<mxfile host="65bd71144e">
    <diagram id="uLgXsEaacVr3cpYx0LAl" name="Page-1">
        <mxGraphModel dx="1930" dy="882" grid="1" gridSize="10" guides="1" tooltips="1" connect="1" arrows="1" fold="1" page="1" pageScale="1" pageWidth="827" pageHeight="1169" math="0" shadow="0">
            <root>
                <mxCell id="0"/>
                <mxCell id="1" parent="0"/>
                <mxCell id="2" value="" style="shape=image;verticalLabelPosition=bottom;labelBackgroundColor=#ffffff;verticalAlign=top;aspect=fixed;imageAspect=0;image=data:image/png,iVBORw0KGgoAAAANSUhEUgAAAeoAAALICAYAAACw4bOaAAAgAElEQVR4Ae3dX4gcV373/7rIxV48F754oHXxgGITcASJWMMj7QoeC1sgsSs84B0y4GgRPxYxNs7IBq/kBVvjjSIaBa+0TrySNxtrMIu1rZgx8iZyZMw42iWjMIrsMM54YczEkZxBODNgszOJk0wSJ/n+OFV9uk9Vn6qurq6uPlX9Nsj9r/6c8zqn69NVdarGE/5DAAEEEEAAAWcFPGdLRsEQQAABBBBAQAhqOgECCCCAAAIOCxDUDjcORUMAAQQQQICgpg8ggAACCCDgsABB7XDjUDQEEEAAAQQIavoAAggggAACDgsQ1A43DkVDAAEEEECAoKYPIIAAAggg4LAAQe1w41A0BBBAAAEECGr6AAIIIIAAAg4LENQONw5FQwABBBBAgKCmDyCAAAIIIOCwAEHtcONQNAQQQAABBAhq+gACCCCAAAIOCxDUDjcORUMAAQQQQICgpg8ggAACCCDgsABB7XDjUDQEEEAAAQQIavoAAggggAACDgsQ1A43DkVDAAEEEECAoKYPIIAAAggg4LAAQe1w41A0BBBAAAEECGr6AAIIIIAAAg4LENQON07li/b5sjSeOSJHvpXwb3JKjp0+LzOvNKTxakMaby3I4kdrslUSnI3r5+XYpKV+T9Tl6sdDrMUXG7Lww2PJ9kntEv3sqfNyba0kjUIxESiZAEFdsgarVHE/vSYnvuyJ52X49yt75MjphiwMM+xSNMbtN6Zkm7V+B+X8L4YZ1Gty+fFt2ext9dl2RBofDbE+KdqCSRAoqwBBXdaWq0K5+wnqVljskamXF2Tji6JAtmTxBwftAffrU3L1TrgcBHXYg1cIINC7AEHduxlz5CWQS1AHe+MHT1+TtUJ26Ahq6xGQMuxRry3KZXX6pOPfZbnm+JGZvL5yLKecAgR1OdutGqXOMag97245cmm5gHPXBHVZg3rr/bOyr3UkxjzdskOOvcUJ9mpsVKpZC4K6mu1ajlrlGtSeeL9xrOPQc/4QBDVBnX+vYokIJAkQ1Ek6fDZYgaSg3n9WFjfCq99aW5ZrL0/JHutekdpD+pIcevX2gPeqKxLUYdrQq61fzMh4jPG2xy/LWmHjAULF6vsFe9R9E7KAIQkQ1EOCZ7Ui0mNQB2ZbcvvSlNwdEyR3HW7I8kDPVRPUBDXfXgSKFSCoi/VmbaZApqBuBvxXzXOMxvNfPyZXB3q6kaAmqM1OzHMEBi9AUA/emDXECWQN6q3bcnnyLvslUt4+Ofv+QHep42pjfd/Zy7OspQ3e5NB3Ag4fITAEAYJ6COissimQNahlQxZO74sJ6h1yYm6gu9Q9NR9B3RPXQCfmHPVAeVn4AAUI6gHisuguApmDOuHws7dNjszeTlzxxocLcvmVs3Ls8eDWnod++1BwK80nTsj5S9dk8U7yHvnG+1ct1+I2pDF7TW5/Hl5116D+/LZcm7Vd29uQy9ftA+O27izEXw+cw93B8tyj3vp0Wa69MSNnn57yjQ8dPiSH1O1HJ6fkxAsNuXrjdvqb1Xy+JotzDak/1bwl6+Gg3aaeO+9bWW968+miXL2kfGfk/KnxmLvEebLvqbPt29T6t6pdTl+ucJPzCoHcBQjq3ElZYGqBPoJ6+ZXxmD1qL3bk99ZH1+Ts5H2x87UvO7pbDn3vakfoBvVK+JGQ5c5kny/K2a8b59iNQXJfOtyQ25bfDLcvHZG7jOna5d4nZ9+zzJC6QZo1zGPU99aaLCSO0G/X+a6xulz+MDLEP1TmLbn91lk59Gvtedp1br+3baIuVyM/VJJ+dNiWod+Lsw8VixcIFCRAUBcEzWosAn0E9e2EoB5/pXNPdOMXDTny6+2Nut4gJz3ueKJhCeucg/qLDbn23B77j4f/e0KufRp1Szjs/+VjufxhjKRwS3V51tZtufpMTJ2sPzA88X59Shof2n5kbMniK0di94Q72u/LU3LZCOukunTMa5SNoI72O14PU4CgHqb+qK+7qKBeW5B6zF5r0sbaU4fRL0VDP+egFpG1KzGXm/3KuMxEw2vrtjS+ZR9It23ysnUPvNdulhRu3YN6S5Zf7SFYjXDc9q2GLEdOHWzcOCsHjWmS2yv4IWYuJ6kuScsiqHvtNUw/SAGCepC6LDtZoJCg3pLlVw7Z91jTBMCDdVkI7dXmH9RbHzXk0F22vX3LwLhPF+REzKVp+15YlKQDyMmN0f40Kdy6BvXaNTmW9S+iefukft2ogf+jJMtf+LqvdUvQpLoQ1O0255nbAgS12+1T7dIVEdQb8eeAvbsOyrEXZmTm5bNy7OtfignzPeHwkPyDWj5dkPr/swW1J+M/DN+/3A/1/22b9j458TMj5ProOUnh1i2o1946JjtifgDtmazL+VdmZOZ7UzH33PZkz3PXWoO4VF2PbLPV1ZNt3zgh519WA8SOyH2W9bWOLjQHk828MiPnn+s2mGxG1HT+3z5/i8FkfXQhZs1ZgKDOGZTF9SBQQFAn7a0eu9IeHb71YUMOWQPQk/GXzbAcQFB/sSZXn9ph/aGw46mroVt2blyv22+h+n+OyOWc/gJU9qDekIXvxVw29/WzstD6HbElyz+MGQz4jfOtw98bN2Lq+mDdOHcfHDH5UjSsf63zT45yeVYP300mdUqAoHaqOUasMAUE9dqVmD28aLAljL7e8bQZlgMIalG3RY0ZyT12XhZb520TDuN//awxXX/9KHNQq0PVh+1HJu57pr2nrEqnzj1b79luDKCL2ztXe8uhu6PduSpTHQMFD8r5yI1vCOr++gVzD0+AoB6ePWseeFBvye1XY85PfzkyotoPGfth1rtCg7QGEdQiW++ftw+aMvcM1QjxZ+yXl5mHjPvtWJmDOuH8ecch/LhLwP73IWk0R21v/OyE9bC2tz8ybsD2A2HbuJx/r7UL75MQ1P32DOYflgBBPSx51pvxj3IouC1Jd3lWQqhag9q+N+iFrmdOWGaW66h1P1A/Wv6v7YeCuja6GTixPybu8ken60X1+5g5qK17tkGdopfMbX04I+O/ElPf5p5wUjn2nboma62rudqXrO35Vl0ac8uy0fqsrUFQty14Vi4Bgrpc7VWt0hawR71247I0fti+C9kRdVcs9e+ZhiybO1y2vTJ93tM4b6p+JCz+4KD1fLK6FvjqnXATdb0zmZ7cv3+5bYSzcae1WK/Ow7x6sVkekwIyaTDZ1seX5cj/sYVv5w+J+IFixuC9hEF2asT2vufaN6XZ+GhRltvJba02QW1l4c0SCBDUJWikyhYxNng88Sx/j7rtkHaPuj1H0rOtO4ty9QfHZJ/1EilPvCKCWrZk+WX7AKt9pxf8y678vVD948F8/H+RQ8FJlU3xWeagjr3MzJPxF67K4i+WZbn5b/GtuOujzdHr6keR3URfWnXfE5EfXAn1I6gTcPjIaQGC2unmqXjhhhzUG7+4Kuef2BdzO05jz7CQoA4GWO0zA7j5/K5vBbcSXZs7Yb30qXUpUk7dJXNQx513ttRJB23n447WNdB+ddauSX2/0RaWZW07fF4WQ9e62yEIarsL77ovQFC730bVLeGQgnrjw2ty/vEebnFZUFDL2lU51jF62RPvqydk4dON2EuawpeP9d9dnApqNUL8/Rk5FHM9tQ76L33jrFzr8sdUCOr++wZLGI4AQT0cd9aqBIoOavWHIl6Zso8ktuyp6RAo5tC3iHy+LDO/bdl7VLcS/cVtufq07VrrPVK/YZ5s779ruRbUqkYbN87LeJew9h480fFHOUwNgtrU4HmZBAjqMrVW1cpaZFCrPxRxKuZmHEkhrT4rao9aNmTxBVsZ75MTb1yT89+whPivTsnlj/PtGC4GtarhxvsNmbKOjDdcVFjH3PiFoM63n7C04gQI6uKsWVNUoKig/mJNrp2OGanth/QemXphRk6MGRt8M7wLC2qRuGuHDz5Tl0O/ainfb8+07uQV5c36Ov+gNkauZy1Uc76tj69KPa6ddJtNnJdFy0EGgrpPfGYfmgBBPTR6VtzPoe+4EdL+X7yabd8aVClv/Kwee29p78FjcvkXGyLDvjxLd4ePL8uULZB/xf4Xs/acWmjdG1svot9Hl4Par9vGosw8br/xiz5dcfCFTheCut+ewfzDEiCohyXPevs6R734Qtwe8t0ydWWtrbuxaD9krPa+9p+Qq3oAkitB/fminO+2x6j3HL1IXdu17utZ5qCOvYmJZY96Y1muXWpI49Xov8tyLebQdahS6lRG0lGSXz3SusOZno+g1hI8lk2AoC5bi1WpvFkPfatbaT4XN2p7j5w1BldtvHc2Zm/6PjkxZwS6K0GdWLfIoe+72rfbzLNbZA7q2L921RnU8Tc8iVyepSu2tSbL16/K1evG3wf/YkMWfnhI7m79cAn7HHrF/GMq6jatcX0hZp163TwiMGQBgnrIDTDSq88c1Gty+fG77XcHM+4Vre4itvxKzA0zjD/+4LeBK0EtImtXpmLDRx/a9R9zvtGJ7otZg1pibyHaS1C3b3iy9emyLFyZkfrjB1seHdeMq/EHMYME/buoGbcSJah1C/NYNgGCumwtVqXyZg3qpFtLPlhv/znFpL1T9demzAFHDgV1/J/mDO8xRv8EZl5dI3NQJ7TnoVeNPWF1t/bYw+TNIyJx15RHf2A1l3Xof4Vt/B8yob88xh51Xv2D5RQvQFAXb84atUDChj3+FqJbcvvKsdhroUN/RSrh7zx7v3FMrhlHvuXTBTn7dcvGXh1WLXDUt0+zsShnu9yNSwVR9NCuZu33MXNQq+vAJ+yGB19YFGPnNv6vhXnqmvEtEWVgbY99oVMbfl3j/mpX5Da07FH32zOYf1gCBPWw5FlvhsFkW7J2Y0aO2O7e5Z+njJx3TvizkJ63Q45dae7lfdplFHHRQZ30A6N1PtYSWDn1qcxBneB91+GGLBtJrf5YifXc8pebP6C+iD+9seOJy3LbWFbsHwOZCF+6llSv6B5/TpQsBoFcBAjqXBhZSCaBpD1qb4ccPNz8S1f+X7w6JONfte+ttc7bTpyPXFOc8JeumoF339hB2WP9c4vGutRh8s91DROW2c9fz9KL9x+35PalI8n3INeBFpovnxdJgZb017P8Pz8aW+675VDzD3MsXm/IsQcN39aPD09UoAchvCW3Z6dkm/FZq529L8nB5xqy8P6yLL93LfZSrR1PX5W1L9om8QPY1G1ap+T8lQVZfH9Rrr3RkMZby7lf9tYuCc8Q6E2AoO7Ni6nzFEgMavuGvL2xjn6+T+o/M49lBwVVo74PWjf20fkTXqtBW63z2UUEtTqfej653K1Ay7NBgmVlD2qRxDDs2g7bZGrWOJd956qc6PbjLHaZ6ohJpD98Hnc4vbPtvzRA3/xbjCVWXYCgrnoLu1y/3IJ6mxz64aJ9D0idNz1sv1lIfOhHNtyhPeVigjrxZjDqbzG/sOj/6ctBNG8/QS3q8Pdp221QI6a2gN0f/XOd6shCzCFy2/zme2ORwYI+1IYsfC9d2QjqQfQslplVgKDOKsd8/QvkEtR75NilmJBulnDj/fMy3u3wtufJtq/us583DV2vXFBQb92Wy5Pb7JegeTvC14D33xKhJfQV1GpJKf40ZeePpH1SN69r1yXaWpOrz8RdMx8T/tsOycz7rUMgeknB452rcuzLMfMZQU9Qh9l4NVwBgnq4/qO99r6C+i45+PSMXPsoZoMckt2Stbl64qHku781I4sfXYs51GreRKWgoFbXgP8w5hrw0A+HUEVzedF3UKtLpu5ck7O/HXOtuxGIfmDfdVDqbxmHvKO12FqTay8cijlfHQndB49JIy6km8vdSByQGCyPoI42Aq+HKUBQD1N/1Ne9sSyNZ8wBY12eP1WX86805PL1ZVlrDe5Kj7jx0TWZefpgaIN/14NHpH5pUdbUKGJ184wXpuSIP3jNKMvkCWMPTV0eVpep6DTq9dMzsvBpuDwb18/LsUljWXq+J+qxf+VJL2HtrWOyIxpq6nVocJueOr9H9Ycvzj5hKfO3jsixH3beQzt2zV9syPLPGlJ/Ylz2WOqx4xtTUn/1mixHzOKW57ffqSNysGPU/91y8Imz/gAwvx3jFmC8v3VnQRqnjsi+uyJB75fzPjn0vWuhgWjGrDxFoHABgrpwclbohIAxGtiJ8kQL8YW6q9oh68jv+565Zj8fH12Gi6+3jOuq+i1fjm249elG6DrvfovG/AjkKUBQ56nJshDIKLD1i4aceLy5F3t4PPaGLv71329FRjNnXCezIYBAOQQI6nK0E6WsuMDG9br18HDHoKuvngjfUa3iLlQPAQRECGp6AQIOCKQL6vvk2BsJg64cqAdFQACB/AUI6vxNWSICPQt0D+odcuSV5MvQel4pMyCAQCkECOpSNBOFrLpAUlDf9626NG6sMdip6p2A+iEQI0BQx8DwNgJFCviDyZqXcR07dV5m1GVoP1uU5Ts5jpIuskKsCwEEchMgqHOjZEEIIIAAAgjkL0BQ52/KEhFAAAEEEMhNgKDOjZIFIYAAAgggkL8AQZ2/KUtEAAEEEEAgNwGCOjdKFoQAAggggED+AgR1/qYsEQEEEEAAgdwECOrcKFkQAggggAAC+QsQ1PmbskQEEEAAAQRyEyCoc6NkQQgggAACCOQvQFDnb8oSEUAAAQQQyE2AoM6NkgUhgAACCCCQvwBBnb8pS0QAAQQQQCA3AYI6N0oWhAACCCCAQP4CBHX+piwRAQQQQACB3AQI6twoWRACCCCAAAL5CxDU+ZuyRAQQQAABBHITIKhzo2RBCCCAAAII5C9AUOdvyhIRQAABBBDITYCgzo2SBSGAAAIIIJC/AEGdvylLRAABBBBAIDcBgjo3ShaEAAIIIIBA/gIEdf6mLBEBBBBAAIHcBAjq3ChZEAIIIIAAAvkLENT5m7JEBHyBX/7yl3Lx4kV56qmn/H/quXpP//c///M/8uGHH8oLL7wgjz76qDz33HPyl3/5l/LFF1/oSVItR030z//8z/66XnzxRfmXf/mX0Pzmi25lMqdVz//7v/9b3n33Xfn93/99v4zqUb1W7/MfAggUI0BQF+PMWkZMQAXnH/3RH8mTTz4pr776qv9PPf/jP/5j+dd//Vdf4x/+4R/kmWeekd/7vd+TN954Q86fP++H4V/8xV+ICnH1X7flfPrpp/Lnf/7n/nJU2CcFtVqvWr/64TA7O+v/U89feeUV2drasraQCmVV7tOnT8uf/umf+o/q9d/+7d9ap+dNBBDIX4Cgzt+UJSIgy8vLfuhevXrV3/tUe6B/9md/5oferVu3/Pd++tOfytNPPy0ff/yxL6aCVIX7H/zBH8jm5qb/Xrfl/PVf/7Uf0j/4wQ/8x6SgVutVIavKpH4I6DKpMqgfDdH/VHirED916pT84z/+o//xJ598Ir/7u78rly5dkv/8z/+MzsJrBBAYgABBPQBUFonAjRs3/KD+u7/7uxaGClW11/vee+/5e7AqBFUoq71m9Z8KThXeag97bW3Nf6/bcv7rv/7LD111uFuFdFJQq71gtX5VDv2fLtPf//3f67daj6pcqnzqiMB//Md/+O/r9Zw7d651ZKA1A08QQGAgAgT1QFhZ6KgL/OxnP5M//MM/DO2p6tBVgakDLxqs6jC2ClMdnN2Wo53jlqc/V49qmWrZqhz6P3VO3Fyffl89qsPqL7/8sn/IW+896/D+0Y9+JP/2b/9mTs5zBBAYkABBPSBYFouAKaAGiL322mv+YWN1+DguWKNBbS5DPY8uR38etzz9uXpUh9PVHvJLL70kGxsb/j/13DzUbk5ve64O06tD5eowPgPKbEK8h0D+AgR1/qYsEYEOAbU3qwaOqbBWYRsXrN2COrocvaK45enP9aM6FK9Gl6u9aPVPnX9W567T/Kf2qv/kT/4kdF49zXxMgwAC/QkQ1P35MTcCXQX0aGs1COvOnTv+9HHBmhTUtuXolcctT3+uHtUAMjWKW4301kGtnqv39Chzc/roc3XIXg1GU+fR2ZuO6vAagcEJENSDs2XJCPgBOD8/7wejedlVXLDGBbUKUttyNHHc8vTn6tEcsf3v//7vov6p0dvqB4T6LOk/daj8+9//vjz//PPy2WefJU3KZwggkLMAQZ0zKItDwBRQlzWpw8vqsis9ult9HhescUEdtxy9rrjl6c/Vox7hbY5E15d/qZHocf+pvWd1SZfam1Z73/yHAALFChDUxXqzthES0Od01blpPYpbVz8uWG1BnbScbsvTn6vHt956K3Tpl3pPjwQ3L9ky59HTqDqo89N69Hd0Gl4jgMDgBAjqwdmy5BEX0Od033777Y5zuvpmIt2uo1aEScvRxHHBrz9XjyqM1V6xOXisW1Dr8+Lq1qH6pifmMnmOAAKDFyCoB2/MGkZQQJ/TVTcG+ad/+qcOAXU4WV3iZN6ZTB0aV5dLqWurP//8c3+ebsvRC7YFtTqvra51VmGr1qcPc6tz3eozfd5bhbfe41fnrdWy1Mh0/bkaeKZCXr3mPwQQKF6AoC7enDVWXECHsAo4dcMQtUet/6kBZTq44+71rYM07XIUpy2o1WHqn/zkJ/458vX19dZ9w6P3+jbvP24eeteDz6anp/2bnug6qMcPPvig4q1I9RBwR4CgdqctKElFBHRA6kugzEc1sEyFpvpP7aGqPVn917PUrUP/6q/+qvXXs9IuRy0rTVCr6br99SwzqPVhcbP8+rmajv8QQKAYAYK6GGfWggACCCCAQCYBgjoTGzMhgAACCCBQjABBXYwza0EAAQQQQCCTAEGdiY2ZEEAAAQQQKEaAoC7GmbUggAACCCCQSYCgzsTGTAgggAACCBQjQFAX48xaEEAAAQQQyCRAUGdiYyYEEEAAAQSKESCoi3FmLQgggAACCGQSIKgzsTETAggggAACxQgQ1MU4sxYEEEAAAQQyCRDUmdiYCQEEEEAAgWIECOpinFkLAggggAACmQQI6kxszIQAAggggEAxAgR1Mc6sBQEEEEAAgUwCBHUmNmZCAAEEEECgGAHvb/7mb4R/GNAH6AP0AfoAfcDNPsAedTE/iFgLAggggAACmQQI6kxszIQAAggggEAxAgR1Mc6sBQEEEEAAgUwCBHUmNmZCAAEEEECgGAGCuhhn1oIAAggggEAmAYI6ExszIYAAAgggUIwAQV2MM2tBAAEEEEAgkwBBnYmNmRBAAAEEEChGgKAuxpm1IIAAAgggkEmAoM7ExkwIIIAAAggUI0BQF+PMWhBAAAEEEMgkQFBnYmMmBBBAAAEEihEgqItxZi0IIIAAAghkEiCoM7ExEwIIIIAAAsUIENTFOLMWBBBAAAEEMgkQ1JnYmAkBBBBAAIFiBAjqYpxZCwIIIIAAApkECOpMbMyEAAIIIIBAMQIEdTHOrAUBBBBAAIFMAgR1JjZmQgABBBBAoBgBgroYZ9aCAAIIIIBAJgGCOhMbMyGAAAIIIFCMAEFdjDNrQQABBBBAIJMAQZ2JjZkQQAABBBAoRoCgLsaZtSCAAAIIIJBJgKDOxMZMCCCAAAIIFCNAUBfjzFoQQAABBBDIJEBQZ2JjJgQQQAABBIoRIKiLcWYtCCCAAAIIZBIgqDOxMRMCCCCAAALFCBDUxTizFgQQQAABBDIJENSZ2JgJAQQQQACBYgQI6mKcWQsCCCCAAAKZBAjqTGzMhAACCCCAQDECBHUxzqwFAQQQQACBTAIEdSY2ZkIAAQQQQKAYAYK6GGfWMoICt1/eJ57niffcQqT2G3L1cc//7MT1yEd3GjKu5vFOSHSuyJS5vFy7NB6U0RuXxp1cFslCEEAgZwGCOmdQFoeAFtiaOxaE4ERD1vSb/uOi1LcFQT3+6u3QJ/JeXbapoP5GQyKfhKfL6RVBnRMki0FggAIE9QBxWfSIC3w0I/v8veN6eO947bIc8t/3xHv6mmwZTGuzh2L2wo2JcnxKUOeIyaIQGJAAQT0gWBaLgGxdk2N+IEcOK18/0Tzc7In35bOyaFAtvnCf/9m+l4vYnxYhqA18niLgqABB7WjDUKwqCNyWmf3qEPc2qb/Xrs/tV/V5YfXZlFzd0J9tybWng0Pix+bM/Wz9ef6PBHX+piwRgbwFCOq8RVkeAi2BdvAemtVnqfV798nBr6u9ZzPEdbDvk5mPWgvxn2xcPy9TYzuC89fe3bJn4pg0PgyH+cKpIOQ9Tx1q35CF7x2SHds8Gb/UXvfypWNy8NfUdHfLwacbcvWH+kdDZK8/vHpeIYDAEAUI6iHis+rqC+iR3/e9oA9w6zA+JpffCAabtYN0QU74h8qPyTUjg7feq8sefU7713b44euPJt92SBoftw3bQT0l9VN7WofX9fK3btTlPr2cjkeCui3JMwTcEiCo3WoPSlMxgdbI78evin+Ee+OqTKmQVKO6P25eiqUv39KXZu2fMUZ8b7Qu5fIm9Ejw2zLz9WDvedup9kVc7aD2xPu1cTn7xjW59sZ5OfuW2qM2lvPVuiyowmytydWng3PiHpdnVaznUZ0qCRDUVWpN6uKegB75rcO3efnVttNqD7u5B60/u1EP9oJDI8EXpN7c+9V7xqqSrVA2LuNqvadC19jTDlDal4SZA9U4R+1el6FECEQFCOqoCK8RyFOgNfI7OJytL78KzlmvyeXDas+4+Vnz5iNmkIreA/fMc81GUPvno4MCt4M6cjmY+jhmOQR1no3NshAYjABBPRhXlopAU0Cfkw72cheeU8F8n5x9P/g4uBwreL14epu/Rx0a8a0Ph/cb1DHLIajpqAi4L0BQu99GlLDUAnqUtycnrt+Wxjfae9CqWhtXpvxwnrpyu3kuOjLiOyZgbXvPtvdadDHLIahbQjxBwFkBgtrZpqFgVRHQI7/HX54JboBinFeW5jnsbafPy9kvh0Pcr39MwNpC2fZeyzBmOQR1S4gnCDgrQFA72zQUrCoCrZHfX74vuDxKj/L2K6gHlO0LbjeqB5bpyscErC2UbQ2QxuMAACAASURBVO/pxUjMcgjqlhBPEHBWgKB2tmkoWGUE9Mjv5ujt9s1PVA3XpDGh9qSb//RlXLryMYPAbKFse08vRoz7i5ujxwnqlhBPEHBWgKB2tmkoWGUEWiO/VRi3B5Lp+ulBZCqs2zdG0Z9muTzLMupb2ssxR5UT1NqZRwTcFSCo3W0bSlYZAT3yWwW1eW/voIJ6QJkK6qkrrRt/N2u/0b7hybcuN/9cZrcbntiCWl8K5omnb3jyhbrNaPNvZnPDk8r0NipSPQGCunptSo2cE2iP/Pai56BVWVuHxjv3ttXH4VuI7pE9/r26PfFibyFqC+pghLn/t671YfbQI7cQda7bUCAEmgIENV0BgQIE9MhvLzSQrLni1qHxzr1tXbTe/yiHntN83BL/j3L8hrpee5vse4o/ymHq8BwBVwUIaldbhnIhgAACCCAgIgQ13QABBBBAAAGHBQhqhxuHoiGAAAIIIEBQ0wcQQAABBBBwWICgdrhxKBoCCCCAAAIENX0AAQQQQAABhwUIaocbh6IhgAACCCBAUNMHEEAAAQQQcFiAoHa4cSgaAggggAACBDV9AAEEEEAAAYcFCGqHG4eiIYAAAgggQFDTBxBAAAEEEHBYgKB2uHEoGgIIIIAAAgQ1fQABBBBAAAGHBQhqhxuHoiGAAAIIIEBQ0wcQQAABBBBwWICgdrhxKBoCCCCAAAIENX0AAQQQQAABhwUIaocbh6IhgAACCCBAUNMHEEAAAQQQcFiAoHa4cSgaAggggAACBDV9AAEEEEAAAYcFCGqHG4eiIYAAAgggQFDTBxBAAAEEEHBYgKB2uHEoGgIIIIAAAgQ1fQABBBBAAAGHBQhqhxuHoiGAAAIIIEBQ0wcQQAABBBBwWICgdrhxKBoCCCCAAAIENX0AAQQQQAABhwUIaocbh6IhgAACCCBAUNMHEEAAAQQQcFiAoHa4cSgaAggggAACBDV9AAEEEEAAAYcFCGqHG4eiIYAAAgggQFDTBxBAAAEEEHBYgKB2uHEoGgIIIIAAAgQ1fQABBBBAAAGHBQhqhxunqkVbOOXJ+KU1kTsNGffqslDVilIvBBBAIAcBgjoHRBYREfAD2BPPC//zw1lEeg/qBakT6BFkXiKAwKgIENSj0tJF1tOyp9wK5yxB7S9vXBp3iqwE60IAAQTcECCo3WiHapUi56BeuzTu753rPfJqYVEbBBBAIFmAoE724dMsAnkGdWtZ6vA3e9VZmoN5EECg3AIEdbnbz83St8K1XTx16Ns8Z51uMFkknC3Lba+BZwgggEA1BQjqarbrcGtlCdRez1EHh7ttI8JVeDdHjQ+3lqwdAQQQKESAoC6EecRW0k9Q36inOh+tz1vXb+Rve/LkSeFfMQb5tx5LRKB6AgR19dp0+DXqJ6iHX3pKgAACCDglQFA71RwVKYwf1OFz0ur8tB613ToMbgn0ighQDQQQQCA3AYI6N0oWlFaAoE4rxXQIIICACEFNLyhcID6og4Fi5ujw7s9tA84KrxIrRAABBAYmQFAPjJYFxwnEB3XcHLyPAAIIjK4AQT26bT+0mhPUQ6NnxQggUEIBgrqEjUaREUAgKpBw2uShKTkY+QMxrVMqEw+EbsTTet/z5NHJzgGRwecPyETc8r6yK9/lZSz7IC5bjIrzujgBgro4a9aEAAIIIIBAzwIEdc9kzIAAAggggEBxAgR1cdasCQEEEEAAgZ4FCOqeyZgBAQQQQACB4gQI6uKsWRMCCCCAAAI9CxDUPZMxAwIIIIAAAsUJENTFWbMmBBBAAAEEehYgqHsmYwYEEEAAAQSKEyCoi7NmTQgggAACCPQsQFD3TMYMCCCAAAIIFCdAUBdnzZoQQAABBBDoWYCg7pmMGRBAAAEEEChOgKAuzpo1IYAAAggg0LMAQd0zGTMggAACCCBQnABBXZw1a0IAAQQQQKBnAYK6ZzJmQAABBBBAoDgBgro4a9aEAAIIIIBAzwIEdc9kzIAAAggggEBxAgR1cdasCQEEEEAAgZ4FCOqeyZgBAQQQQACB4gQI6uKsWRMCCCCAAAI9CxDUPZMxAwIIIIAAAsUJENTFWbMmBBBAAAEEehYgqHsmYwYEEEAAAQSKEyCoi7NmTQgggAACCPQsQFD3TMYMCCCAAAIIFCdAUBdnzZoQQAABBBDoWYCg7pmMGRBAAAEEEChOgKAuzpo1IYAAAggg0LMAQd0zGTMggAACCCBQnABBXZw1a0IAAQQQQKBnAYK6ZzJmQAABBBBAoDgBgro4a9aEAAIIIIBAzwIEdc9kzNCbwJo0Jjyp37DMdaMu3kRD1iwf8RYCCCCAQCBAUNMTBizQe1AvnPLE87r/G79ExA+48Vg8Agg4IEBQO9AIVSvC2qXxLkFblwVV6ZR71Hp5BHPVegr1QQCBNAIEdRolphmMQJeg1gHteSrYF6Te3MsmsAfTHCwVAQTcFCCo3WyXSpTKdgg7dK7aFtR3GjLeOuw9Lo07EYpun0cm5yUCCCBQdgGCuuwt6Gj5/ZA+5R/gNkqo9oqN8LUFtTE1TxFAAAEERAhqesFABLIFdfvwdprBZME0zfPdA6kFC0UAAQSGL0BQD78NKluCTIe+rRoqwIsL5JMnTwr/ijGwNjdvIoBASICgDnHwwg2BFHvWXH/tRlNRCgQQGLgAQT1w4lFewYACVw0oI6hHuWNRdwRGSoCgHqnmLrqyXQ5Zxw4mG1DAF1191ocAAgjkIEBQ54DIIuIE+glqY3R43OJ5HwEEEBgBAYJ6BBp5eFUkqIdnz5oRQKAqAgR1VVrSyXpkPYSdYj4v5g99OOlAoRBAAIHsAgR1djvmRAABZwQSftw9NCUHW3e7i/yxl4kHYu9L/+hkZNrWMh6QidbzyDRf2ZXv8jKWPXQHQGfaiIJkFSCos8oxHwIIIIAAAgUIENQFILMKBBBAAAEEsgoQ1FnlmA8BBBBAAIECBAjqApBZBQIIIIAAAlkFCOqscsyHAAIIIIBAAQIEdQHIrAIBBBBAAIGsAgR1VjnmQwABBBBAoAABgroAZFaBAAIIIIBAVgGCOqsc8yGAAAIIIFCAAEFdADKrQAABBBBAIKsAQZ1VjvkQQAABBBAoQICgLgCZVSCAAAIIIJBVgKDOKsd8CCCAAAIIFCBAUBeAzCoQQAABBBDIKkBQZ5VjPgQQQAABBAoQIKgLQGYVCCCAAAIIZBUgqLPKMR8CCCCAAAIFCBDUBSCzCgQQQAABBLIKENRZ5ZgPAQQQQACBAgQI6gKQWQUCCCCAAAJZBQjqrHLMhwACCCCAQAECBHUByKwCAQQQQACBrAIEdVY55kMAAQQQQKAAAYK6AGRWgQACCCCAQFYBgjqrHPMhgAACCCBQgABBXQAyq0AAAQQQQCCrAEGdVY75EEAAAQQQKECAoC4AmVUggAACCCCQVYCgzirHfAgggAACCBQgQFAXgMwqEEAAAQQQyCpAUGeVYz4EEEAAAQQKECCoC0BmFQgggAACCGQVIKizyjEfAggggAACBQgQ1AUgj+4q1qQx4Un9hilgvrcgdW9cGnfMz3mOAAIIIGAKENSmBs9zFjBDWS/afC8uqOPeby7jTkPGvbos6EXyiAACCFRYgKCucOMOp2oqZD3xYv7VbxDUw2kX1ooAAmUVIKjL2nKlLXfaoI4P++BHAHvUpe0CFBwBBHoSIKh74mLi1AL+4el22I5fWmvOmjaoE85dc+g7dTMwIQIIlF+AoC5/GzpYg+Dwd3sQWRDOQVgT1A42GEVCAAGHBQhqhxuntEW7URfvVGSol9oLnmjImgRB3T6HbdtzTj7PzaHv0vYMCo4AAhkECOoMaMzSRSBFUAd7211Gd3dZzaA+PnnypPCvGINBtSHLRaBKAgR1lVrTmbr0e+jbmYpQEAQQQGDoAgT10JugqgUIH75ON5gsPE/78Hh7UFrne4z+rmoPol4IIBAIENT0hIIF0gwmixZJBTiBHFXhNQIIjIYAQT0a7exQLQlqhxqDoiCAQAkECOoSNFK1ikhQV6s9qQ0CCAxagKAetDDLjwgQ1BEQXiKAAAKJAgR1Ig8fIoBAOQQSBiI+NCUHY+497008EHtf+kcn4wYxPiATccv7yq58l5ex7O2bDZWj9ShlsgBBnezDpwgggAACCAxVgKAeKj8rRwABBBBAIFmAoE724VMEEEAAAQSGKkBQD5WflSOAAAIIIJAsQFAn+/ApAggggAACQxUgqIfKz8oRQAABBBBIFiCok334FAEEEEAAgaEKENRD5WflCCCAAAIIJAsQ1Mk+fIoAAggggMBQBQjqofKzcgQQQAABBJIFCOpkHz5FAAEEEEBgqAIE9VD5WTkCCCCAAALJAgR1sg+fIoAAAgggMFQBgnqo/KwcAQQQQACBZAGCOtmHTxFAAAEEEBiqAEE9VH5WjgACCCCAQLIAQZ3sw6cIIIAAAggMVYCgHio/K0cAAQQQQCBZgKBO9uFTBBBAAAEEhipAUA+Vn5UjgAACCCCQLEBQJ/vwKQIIIIAAAkMVIKiHys/KEUAAAQQQSBYgqJN9+BQBBBBAAIGhChDUQ+Vn5QgggAACCCQLENTJPnyKAAIIIIDAUAUI6qHys3IEEEAAAQSSBQjqZB8+RQABBBBAYKgCBPVQ+Vk5AggggAACyQIEdbIPnyKAAAIIIDBUAYJ6qPysHAEEEEAAgWQBgjrZh08RQAABBBAYqgBBPVR+Vo4AAggggECyAEGd7MOnCCCAAAIIDFWAoB4qPytPFLhRF2+iIWsdEy1I3avLQsf7vIEAAghUT4Cgrl6b5lijNWlMeOJ5Cf+sQRoUYeGUJ+OXOmM2dQEJ6tRUTIgAAtUVIKir27Y51EwF9bg07sQs6k5DxnMNarWnnPCjwNPBzx51TIvwNgIIVFCAoK5go+ZXpaKDOm3JCeq0UkyHAALlFyCoy9+GA6xB/0GdeNjci9tb79yzDh9CJ6gH2OgsGgEEHBMgqB1rELeK09856mx1CUK6fsOcOyhHO6zNII8Le3N+niOAAALlFSCoy9t21Sx53HlvNbDslB7nzR51NRufWiGAgE2AoLap8F4fAubebvLAsPZhcfNSq7R71OY8fRTXMuvJkyeFf8UYWPh5CwEEIgIEdQSEl0qg37DtV7HzkHv7sLcu3+CCut/SMz8CCCCQpwBBnadm5ZfV+yHntUvj1uuww8HbK1zv5eh1DUyPAAIIuCJAULvSEqUoRy8B2dwrbp1XDldQ3QzFftexYDoV8P2FeXh9vEIAAQTKKkBQl7XlhlLuHoJaDQpLvM1n8rII6qE0MCtFAAEHBQhqBxvF3SIlh2u43El71M3PEu5qRlCHNXmFAAKjK0BQj27bZ6h5L0EdLD7rOeq4+dojxfXtRDNUg1kQQACBEgkQ1CVqLIqKAAJxAupHZMzlgA9NycG4zyYesA52VD8IH52MWZ73gEzELe8ru/JdXsayh28YFGfG+2URIKjL0lKUEwEEEEBgJAUI6pFsdiqNAAIIIFAWAYK6LC1FORFAAAEERlKAoB7JZqfSCCCAAAJlESCoy9JSlBMBBBBAYCQFCOqRbHYqjQACCCBQFgGCuiwtRTkRQAABBEZSgKAeyWan0ggggAACZREgqMvSUpQTAQQQQGAkBQjqkWx2Ko0AAgggUBYBgrosLUU5EUAAAQRGUoCgHslmp9IIIIAAAmURIKjL0lKUEwEEEEBgJAUI6pFsdiqNAAIIIFAWAYK6LC1FORFAAAEERlKAoB7JZqfSCCCAAAJlESCoy9JSlBMBBBBAYCQFCOqRbHYqjQACCCBQFgGCuiwtRTkRQAABBEZSgKAeyWan0ggggAACZREgqMvSUpQTAQQQQGAkBQjqkWx2Ko0AAgggUBYBgrosLUU5EUAAAQRGUoCgHslmp9IIIIAAAmURIKjL0lKUEwEEEEBgJAUI6pFsdiqNAAIIIFAWAYK6LC1FORFAAAEERlKAoB7JZqfSCCCAAAJlESCoy9JSlBMBBBBAYCQFCOqRbHYqjQACCCBQFgGCuiwtRTkRQAABBEZSgKAeyWan0ggggAACZREgqMvSUpQTAQQQQGAkBQjqijT72qVx8U4tZKvNjbp4Ew1ZyzJ3H/OqMo9fyrDWOw0Z9+qSsbZZask8CCCAwNAECOqh0adcsR9Knnie/V/9RrAca1CrEI2ZLxTM3cI26XPrZwtSj1mvGcz2oE4xL0GdsvMwGQIIVEGAoC5VK65JY2JcGnc6C20NanMya6A2J0j6TE2S9HnSZ+b6RWThlCf6h4X6KD6o7XVsLY6gblHwBAEEqi9AUJeqjYO9TTPsdPG7BbX/edzh4m5hm/R50me6cP6jKns4gAnqEBAvEEAAAasAQW1lcfNNP2wnxmXccj45Oajbh5N1yKu929BhccsyWwoqjHsI+eBHQWT56lB4ZB0EdUuYJwgggECsAEEdS+PYB0ZY2kLZ9p6ugR/KKiT9Q8bhvVp/mi57xUHwWuZTM3eZNyiDOmQfPuyt3ieoAx3+jwACCCQJENRJOo58Fuz9hoOyFb7NMtqDurknbe7J+oEfCc3EsA0OWddPxYzQTpw3KJxfNrMMRpnNwWXB252HyJuTtx8iA+w6l9GelGcIIIBA2QUIatdb0A9W+6VIflg3L8myBbX5eaia0T3rhLBtL1cFqKUcCfP660wov1p2Z8imDWpLWUKVzP7i5MmTwr9iDLK3EnMiMDoCBHVF2rodqBkqFBe20dHVarrotdpx86pi+CEdPhJgls7VoDbLyHMEEEBg2AIE9bBbIPX6Y/Zom/OnCergEHrnIC89wCxcFLW+yCHy5iVWobCOCepgXfEhrdYVH9SdZdQD3/w98OgPiHDBeYUAAghUSoCgLk1zJgd1cjWC0A0FbGsG22f2wV96FhXCrUPWtqD296S7H5q2B7VeS8IjQZ2Aw0cIIFA1AYK6NC3aR1DbwtSsdz/B123Z5noizwnqCAgvEUAAAYsAQW1BcfOtPoJabHvNupZJn+lpEh4J6gQcPkIAAQT6FyCo+zcsaAnNQI25h3ZwDjf5cHNv56hTVougTgnFZAgggEA2AYI6mxtzIYCAUwIJP2QfmpKDcT9wJx4I36HPmO7RybhBjQ/IhDGdHujoP35lV77Ly1h2+wBRpxqMwvQgQFD3gMWkCCCAAAIIFC1AUBctzvoQQAABBBDoQYCg7gGLSRFAAAEEEChagKAuWpz1IYAAAggg0IMAQd0DFpMigAACCCBQtABBXbQ460MAAQQQQKAHAYK6BywmRQABBBBAoGgBgrpocdaHAAIIIIBADwIEdQ9YTIoAAggggEDRAgR10eKsDwEEEEAAgR4ECOoesJgUAQQQQACBogUI6qLFWR8CCCCAAAI9CBDUPWAxKQIIIIAAAkULENRFi7M+BBBAAAEEehAgqHvAYlIEEEAAAQSKFiCoixZnfQgggAACCPQgQFD3gMWkCCCAAAIIFC1AUBctzvoQQAABBBDoQYCg7gGLSRFAAAEEEChagKAuWpz1IYAAAggg0IMAQd0DFpMigAACCCBQtABBXbQ460MAAQQQQKAHAYK6BywmRQABBBBAoGgBgrpocdaHAAIIIIBADwIEdQ9YTIoAAggggEDRAgR10eKsDwEEEEAAgR4ECOoesJgUAQQQQACBogUI6qLFWR8CCCCAAAI9CBDUPWAxKQIIIIAAAkULENRFi7M+BBBAAAEEehAgqHvAYlIEEEAAAQSKFiCoixZnfQgggAACCPQgQFD3gMWkCCCAAAIIFC1AUBctXsb13aiLN9GQtY6yL0jdq8tCx/uDe2PhlCfjl1RJil/34GrFkhFAAIF4AYI63oZPtEDGoG6Hql5Q2kcVwp54zX/1G+352sskqNsqPEMAgSoLENRVbt3MdQsHpQ5M8zHNXm07VHspyJo0JvRes4ioHwneuDTuBMtoL5Og7kWVaRFAoLwCBHV5286BkieHZTtUeyjqnYaMRw6zm8tpP09edw9rZFIEEEDAaQGC2unmGXbhOvesgz1pXa7ksFShau6Fdz5v7ynrJfp70KfCZ73XLo2L13yPoG5J8QQBBEZEgKAekYbuvZpBSJvnh0Uih6X9AV06jC2h2/tKRYVy+MeAPvyt16MPiyf/SMiwamZBAAEEnBQgqJ1sFgcKZTkE7ZdKnTNu7fHmH5axQc0etQOdgiIggMAwBAjqYaiXYp1p96ijl2cF83Ue5m7vEXd+Ziwj9EMggDLDu4hD3ydPnhT+FWNQiq8ChURgyAIE9ZAbwO3VB4e6zWANH5buZY9aTZvi8LhlT16Fsz4EX0RQu90mlA4BBEZNgKAetRbPtb4DCOroeXD/8qz2HjdBnWsDsjAEECiBAEFdgkYaZhHNw869lSPYG9d7wsGdxFLsUfsrMQ+fh+chqHtrBaZGAIHyCxDU5W/DgdZgOEEdXyWCOt6GTxBAoJoCBHU12zW3WuUX1PkUiaDOx5GlIIBAeQQI6vK01VBKqoLaHExmex4eYKaL2TkQrXPe8GFtPWfSI0GdpMNnCCBQRQGCuoqtSp0QGDkBc1xD5FLAh6bkoPFHXkI/GCceiP0h+uhkZDmtZTwgE63nkWm+sivf5WUse3tsyMh1hEpWmKCuZLNSKQQQQACBqggQ1FVpSeqBAAIIIFBJAYK6ks1KpRBAAAEEqiJAUFelJakHAggggEAlBQjqSjYrlUIAAQQQqIoAQV2VlqQeCCCAAAKVFCCoK9msVAoBBBBAoCoCBHVVWpJ6IIAAAghUUoCgrmSzUikEEEAAgaoIENRVaUnqgQACCCBQSQGCupLNSqUQQAABBKoiQFBXpSWpBwIIIIBAJQUI6ko2K5VCAAEEEKiKAEFdlZakHggggAAClRQgqCvZrFQKAQQQQKAqAgR1VVqSeiCAAAIIVFKAoK5ks1IpBBBAAIGqCBDUVWlJ6oEAAgggUEkBgrqSzUqlEEAAAQSqIkBQV6UlqQcCCCCAQCUFCOpKNiuVQgABBBCoigBBXZWWpB4IIIAAApUUIKgr2axUCgEEEECgKgIEdVVaknoggAACCFRSgKCuZLNSKQQQQACBqggQ1FVpSeqBAAIIIFBJAYK6ks1KpRBAAAEEqiJAUFelJakHAggggEAlBQjqSjYrlUIAAQQQqIoAQV2VlqQeCCCAAAKVFCCoK9msVAoBBBBAoCoCBHVVWpJ6IIAAAghUUoCgrmSzUikEEEAAgaoIENRVacky1uNGXbyJhqxlKPvapXEZv5RlzgwrYxYEEEBgiAIE9RDx3V/1mjQmPPG8hH+2oFUBHDePOX23oE74nKB2v/dQQgQQyEeAoM7HsaJLUUE9Lo07fVQvIWwl6TO1yoTPCeo+2oRZEUCgVAIEdamaq+jC9h/UKlA9ry4LtqInBLE/ufo8Zl6C2gbKewggUEUBgrqKrZpbnfoN6gWpNw+B128EhVo4FTmMbh4KD5U7WPe4OvRumYagDmHxAgEEKixAUFe4cfuvmgrLSLB2nHuO2VsWET+UVcjeaci4ZzmEnrBHbQZxazlGhczPjbd5igACCFROgKCuXJMOskJqDzk+mNtrbu5Jm3vC/mFsT/SetT9tTFD7wXwqcrDcn78d9gR1W5tnCCBQbQGCutrtm7F27UPWsaO3E/asrUGrShLds7YEdey8kZoMMqhPnjwp/CvGINKsvEQAAYsAQW1B4a2CBCxBXdCaWQ0CCCBQGgGCujRNNbyC+nu5HXvQXuobjsTNHzoMHq2ev/edfH6cG55E0XiNAAJVFCCoq9iqudWpOZgser64uXw/gM3z0B3rbR5Ct86f9Jk+TB5/PnyQh747qsEbCCCAwBAFCOoh4ju/an+vNj4sRVTYJnze7dB20vKTPhMRgtr53kMBEUAgJwGCOifIai4maY+6+Rl71NVsemqFAALOCBDUzjSFuwVRe6+20d9pzxFzjtrdtqVkCCDgvgBB7X4bUUIEEOgqkHBJ4UNTctAyGNL/8TnxgPVHqPrs0cm4wYwPyETc8r6yK9/lZSx74kDNrpZM4JoAQe1ai1AeBBBAAAEEDAGC2sDgKQIIIIAAAq4JENSutQjlQQABBBBAwBAgqA0MniKAAAIIIOCaAEHtWotQHgQQQAABBAwBgtrA4CkCCCCAAAKuCRDUrrUI5UEAAQQQQMAQIKgNDJ4igAACCCDgmgBB7VqLUB4EEEAAAQQMAYLawOApAggggAACrgkQ1K61COVBAAEEEEDAECCoDQyeIoAAAggg4JoAQe1ai1AeBBBAAAEEDAGC2sDgKQIIIIAAAq4JENSutQjlQQABBBBAwBAgqA0MniKAAAIIIOCaAEHtWotQHgQQQAABBAwBgtrA4CkCCCCAAAKuCRDUrrUI5UEAAQQQQMAQIKgNDJ4igAACCCDgmgBB7VqLUB4EEEAAAQQMAYLawOApAggggAACrgkQ1K61COVBAAEEEEDAECCoDQyeIoAAAggg4JoAQe1ai1AeBBBAAAEEDAGC2sDgKQIIIIAAAq4JENSutQjlQQABBBBAwBAgqA0MniKAAAIIIOCaAEHtWotQHgQQQAABBAwBgtrA4CkCCCCAAAKuCRDUrrUI5UEAAQQQQMAQIKgNDJ4igAACCCDgmgBB7VqLUB4EEEAAAQQMAYLawOBpwQI36uJNNGSt4NWyOgQQQKBMAgR1mVqrbGVVQex5xr+6LJh1iA3qNWlMmPPZno9L4465MJ4jgAAC1RQgqKvZrkOv1dqlcfG8cDAvnLIEbqY96gWpewT10BuZAiCAQCECBHUhzKO2krggVXvKRsDG7lGHvVToj18yD5DHLT88H68QQACBKggQ1FVoRefqoII0vDeti6j2qus3mq/6Cmr78vV6eEQAAQSqIkBQV6UlnapH3B5vXnvUTlWWwiCAAAIDFSCoB8o7ugvPdo5aBbzlPHbie+xZj24vo+YIjIYAQT0a7TycWkZHfZ8KjfkWSXnou+jC9vYc6AAAIABJREFUnzx5UvhXjEHRbcv6ECijAEFdxlarSpljgzrN5VnsSVelG1APBBBIFiCok334tC+BuHPVzYXGBnWXld5pyHjMYLUuc/IxAgggUDoBgrp0TVamAmcNavaoy9TKlBUBBAYrQFAP1nfEl94lqGN1IqPDY6fjAwQQQKD6AgR19dt4iDUkqIeIz6oRQKAiAgR1RRrSzWqooO52uZVxp7JWJdIc+jZunNKajycIIIBA9QQI6uq1KTVCYAQFEn4UPjQlB+N+ME48YPzRmPCPykcnw6/bf2DmAZmIW95XduW7vIxlb939bwR7QhWrTFBXsVWpEwIIIIBAZQQI6so0JRVBAAEEEKiiAEFdxValTggggAAClREgqCvTlFQEAQQQQKCKAgR1FVuVOiGAAAIIVEaAoK5MU1IRBBBAAIEqChDUVWxV6oQAAgggUBkBgroyTUlFEEAAAQSqKEBQV7FVqRMCCCCAQGUECOrKNCUVQQABBBCoogBBXcVWpU4IIIAAApURIKgr05RUBAEEEECgigIEdRVblTohgAACCFRGgKCuTFNSEQQQQACBKgoQ1FVsVeqEAAIIIFAZAYK6Mk1JRRBAAAEEqihAUFexVakTAggggEBlBAjqyjQlFUEAAQQQqKIAQV3FVqVOCCCAAAKVESCoK9OUVAQBBBBAoIoCBHUVW5U6IYAAAghURoCgrkxTUhEEEEAAgSoKENRVbFXqhAACCCBQGQGCujJNSUUQQAABBKooQFBXsVWpEwIIIIBAZQRyD+rNzU0Z1X9pe8Wo+iTVG7vhfW+w780er968kr73VfgsbX/oZzqCOscfFmkbogqdM+86YDe8jR/2vdnj1ZtX3tsK15aXtj/0Mx1BTVA7cQQkbSd27UtahfJg31vw4NWbVxW+I0l1SNsf+pmOoCaoCeoc+0DSF9rVz9JuQFwtf9HlwougNvtc2v7Qz3QEdY4b6bQNYTYyz4MvPXbD2/hh35s9Xr15VX0bl7Y/9DMdQU1Qs0edYx8o40Yp7QakjHUbRJnxIqjNfpW2P/QzHUGd40Y6bUOYjczz4EuP3fA2ftj3Zo9Xb15V38al7Q/9TEdQE9TsUefYB8q4UUq7ASlj3QZRZrwIarNfpe0P/UxHUOe4kU7bEGYj8zz40mM3vI0f9r3Z49WbV9W3cWn7Qz/TEdQENXvUOfaBMm6U0m5Ayli3QZQZL4La7Fdp+0M/0xHUOW6k0zaE2cg8D7702A1v44d9b/Z49eZV9W1c2v7Qz3QENUHNHnWOfaCMG6W0G5Ay1m0QZcaLoDb7Vdr+0M90BHWOG+m0DWE2Ms+DLz12w9v4Yd+bPV69eVV9G5e2P/QzXWWCemVmTLxn54a6d5i2IdzouCty4WFPpt9x40tXLrtizeae9WRsZmVgfbvM9sP43pfZayjbnuULMuZNy1yOO0VDqUdM+dP2h36mI6hj8LN0hLQNkWXZecyz9NMzcuH6enODT1DnYVrEMgjq+B9GZQ/q8Hcyvp5F9DN/HZ/My4Xnr8hSjtvFTYI6bTTETjfCQb0qs0fG5MJyfl+OWOXIB4P/0tnqtiqzj9Vk9/M3Ceo8N0I5L2v1tcmOvecyBbWt/IPs7+UO6uh3Mr9tUWbzG2dkd21SZldzLAtBHUmA3l+OblB/MiuTXkWDOlXd2KPOvDHLOZzb5ViX2cc6D3OXJ6jt5W/XL8eNf7MNyh3U+XsM0jrzsgnq3pM5MsdwgvrWnNS/uVu2e554Xk3uvf+wHH99qX0Ozvy8dq9MPDsrS58ZnfqTm3LhyQNyb80Tr3avHHjygsx+P3KO+tacnDkyJrvvUevwZPuuw3JGH/a9cUb2qnn99QeP7XOAqzJ36nBzvprc+1vTMvuBse6EjXTENvZlug6/LjdnjsqBHbWgnPfslsmf6POUqzL3/KSM7dre+uzw8/OyrsqWULfwBj8a1Ouy9Nq0HL7/XqkpF991NnQIbP3dC3L0a/fK9h33NtvOk9qOvbL3+flm24XLvH3/pJz7+Wq7XYuyM/uH3/ZjMvnivKxfr8vOWue5MrUX6O0/F9T1nWnxvjMr888bfeBrR2X2g1WZf2lSDuj+tF+91+4Xynb6zSW5qPult93vlzc/aU+zuZnQbps35cz9zbbW/fLhC7KyuSl+u/1oTq48OxH0eW+77P5mXeZuBcte/clh8ZrTmn1r/vROqX37StAvBm4fX/7NzS79Qm3IH74gN6+fk8n9QZ+u7TggR2duhstutmvc914Zt76/wfe+/na4D/pt9fZSrKdpaHse+8WOfGCbN/pe+DsZtPV0r2VL2tbZ2t3cvka3v9FQVd+HZ+dk6afTMtHcFqltadhUt+92uXdHc5vkL3evnPn5plgPfZtlsG3jI+Xuuu1JNAi2deb23n9ujGnSy/e3ffcckMmX5mU1UoZo2+nXkWYfyMshBLU6LOvJ2EtLzS/huqx+MC83mxudzfV5md61W46/vhJ8vr4is9/ebWxw1Pw1qT1yQZbWmxuqd+oydk8tPJhsfUnm3lmS9WbAr/70eHgj7XfI6B71usx/d7fs/vasrPjLXpeV14/L7tpxudJcl24c22PaFrLNG31v5ccTUtt13A+I9c/WZXXlpixpo811WXp7TpZ0CNy6Isd/s9YeGGatW3OD3xqUFA3qTVm5fkVu3mqew15fknMPG3t361fkeO2A1PWPnc1VmX2yJgdeav/AUmXe/sg5mdcBcv2cTNQOyLlFM6zsz/O0UwG18ztXZLXZ9usrN+XmsqrXkpzbX5Pjb+rz9Koszf6oXdSGyavJxIvzwfyfrcjskzv9H0TtfrEq86cPtMO9GaZebULOXV9t9tsluXhkp9SOzBpf+C7tthm0SftHY2ClNua1e8ak/k5z2Z+typVnd0vtseaym20Tdp6XutknEjY6+dnby9+1X/j9tSZ7f+eC0XfOyJi3W87c0P0lzfc++P7WQn3wgkzu2i3T77TbXHtOv2lsY57c2fZMsFLf07T/Rb/Ttte2oFZt3VPZum3rQvXpsv21BXVtu4x990p7m/jaUdlpHB5ff/O41PbXZV5vj1Zn5aj5vY8us+s2Xrd58zHFtmezF4NbszIZKt9Fmbgn+O76bXRrXs49Et622dpOv5e2P/Qz3RCCekUuPhIEta6o+ejv3TwZ2Qv4QI0abJ43WbkoE5ZD1nPPRoI61DlVg8/JtDmfLcxW1eHwo5FQXpILD3ky+Vr4V7lZZv08bUPo6eMfg41sOFAinTdSv9AX3lY3vWemA6kZCkmjvkOHFaNfts1N8T9vtZUq896OUJ77jic7T+s97vg65Ge3KfPfrQVBHTFS3ksvHRCvVeZN2bx1UQ57h+Wi/hGkgjq61+2Hd6Rf+H2yvXfub/yNX+h+2/rLjv4YDBuE2i0pqKPLVkcHWiNp1+XKt2uy98X2j6ZN9flv1mXeYhDtd/nZ24I6Rb+w9tfID6g033v/+9vpHT3iYG2rkGe4jQbnFf3xHLyuJbZ1ctmCska2daE+kLz97dj7tX0fNlWbtq8YCW0n/HUF/eCo/kEc2XZ03caHymvfIw9ve2wmcQaq/jUZ+1H7u6J+2Ie+O2r9bx8XL+fvT9rvmW26IQT1pmx+MCtH92/3D0dPz8w1f6kF2OpL1HGIwj8U2PwC+hvN9gZSf4k6Osutebnw7GHZqw7l1u6VvQ+qQ+3Gl9i2cfCXbV9/dC9Hr9d8tAHb3jPnsT63lS3UeVdlfmZaDj+4V+6tqVMHe/1D9a0yxsxvC4V2UK/L0utnZPLhYFnbd+2VvepQl95o+L9qx+Rc63Dvqlz5zs72HrW/TrtdaxmhOoS/XDYn23tWr+hyP5mXM7+lDtEfkMnnZ9tHa9R0kWD2N+LmXq/qA9HDyLY+59e33Q/Dtrpu4Q2a2ntPbLeEoG61ra5rZP3RYJ4/tTPVDyTlmfa/7vaWoE7TL6J1adYxZGprA/1jUffRmGk2F8/J3taPms5w9OsVUwZbnfPz6ixLqM5xba3f14/dtnV6Ov2YsP21BnX0+xD5ke/vUT98rn16clUd4TOOpEVsVR0Tt/G6nPqx27ZHTZfSYGlGHfW7YJzSC/qsvTzt77etH+j30vaHfqYbTlA3G2D9gzk59+QB2V7b2zo05Tei/uLphjIfY76MoaD2G3anTP74ZuvQd6o96phl6wbp9pi2IbotJ/iyGD8qzPpvBntPO49cFPP8Z+gL7n8xOucPTRP5svl7mvvVec/2IcKQ6eamf473QPPc0+5du+Xwqbn2Yd2YdXata7NuudkZVuu3bsrsKXVed7sc/rH+Bb0uV57Uh/Sbv/x/2q7zpuoD0Q2TrV9YNj4dYRra80jRbv0EtTqs/6A+/TEn07XOoxtxbZGffVxQd/bFUFkilvqzUH+1tQFBLZtptnXGd0Lbqkfb9jdLUKsxCPOnDvjjWtQO0e7oOexI+3bdxlvKq8aXxG570hqoo2C1CbkYutLH0mct6zfdos/Tfn/6mW6oQa0rvP76pHiPXPQHzviHRR48IzfjsPxDYMahyuZ0ag+itedm+1L7v6qNDYYtWPxDZ3vlzLt6j6i3x7QNoesd/zgv0zW90Y2WQR3SaR92CpahNtI6fPShIqOuTaPQhi8U1LbOGgRay1QdNn7xQOiQUbj8wd7j5OtG6MW1oeX9/OyiXpuy+a4aPDjdOgwc7AFckBXVB6LjD/oI6o5DlqFD3ynara+gDg7r+2V4Z1pqenCcxTrcbgPeo27+WEnsF5ENuS5fqL+m+d73cOi740dVTBl0WczHPPtqqI4dp6eafTmpbGm2dV36gLn9zRbUauzHmFxoHW2LfAcj5e+6jbeUN3Hbk8ogGJ9iO4WpDn17j82GBy5aymD2AfN52v7Qz3TDD+rPVmXu9IH2YDF/oEFN9n5ntjVYan11SeZ+qkfhBYNK2gN7NmX1+jk5bA4m8zvGAanrEcdqcMA3t0vNPPStzlnXdsrxN81zz83BKPerQVzNwPlkVZbeuSLzKa4rTNsQZiPHPVcd0/MHkwXlUAZL/oCoIFQPnG56fLYq8y8elu01I6itdYseZguWow99q3P8tSMXZcUfgBUMottbMw59bwbntpI2uP4AuHsOGwOqVmXl3VmZK3gwWdh0XVZ+PBkJLvWjYkymnx2TjnDtJ6ibA7789a8vyYVHlKkeTJam3VQbdZ5fj27M/eVHNn7+e+qHQe24TH+n1nEtdtgkvCHNs9/ayt+1X9jq0hFaKb73as/uu7vFHEy2vnhRJnfV5Khx1CS1Z8zGOl8v83sb/Y6mCOpU27pwe4f6QnT7G20L2/ch9CN/Uzb9H1GTMqsHk0Xdosvsuo2PlrfLtieFwfzp3VIzx6aYZVy+KBPqqJsa6d0cRKwG786+o4/CRcsTfp22P/Qz3RCCekVmf0dfmqUvA7oQOoy7uTov5440L7/ygkuADp82DrNaLtO4+XpwGYHuhEuvHQ1dSnPh3Zty4aHwXmZ7mpocNi598i/D0ZdFqfPb6lKYgoM6ekmLugzq+OvNHxXNc0z+eZV7gstYbv5oLLRxttUtvIEKB/Vm87yuvjRr4tScrLx5vH2UYnNTVn98OHxuyXIJ19Lr03JYXzamLiN6eFIuFhzU88+rc/f6PFj4UqZW/3hxr3jeTqlfD3/p+jr0/f3Z9mWDtsuzUrSbHr+h2rb2zeAoU7jdmuWNbvz8DU/zKIg5OM7cIMU8T7sB0XaJj0YddfnV9In9wloXS2il+N774wDMy+iih2E7fgAkeUb6RtMvT69o20Zf+9YxProd2t91T7bvPyq2bZ2ednOzy/Y3uq40Qb25Khf/P/19Cx79y+teawZddJnKsds2PtJXu217kg2Co1kd56HNU6wfzMp065JhdVnfmEy2TpfZ+4E2Tdsf+pluCEGdXGld+TI+pm2IMtZN7RXtVufFV/Wh7XVZXb0ZvoQr8uXqpZ6F2/UwqjNNPawb2D480qzTNs3Sj8bEa+3Fp/uuFW4/BBebVdb38DL7ldrb3e2PBwr2Rjdlc31VVt89J2OhI5jmPL09H/S2J2s/0POl7Q/9TEdQ57jRSNsQuoHL8xjZ+zbMll7cm3p0cVJ9i7ULBnaZ14AnlS3NZ24Ete068e4bxWLtu5cnjfcwp8HLaEPb3rK/fVDjZixHrIxtR7o2HPy2J105jDpH6pC2P/QzHUEdQe+n0dI2RD/rGM68QbDtftY4/aAOhfs3NNndefg4g2mRdqtvTgf3M9bXTmcob7Qdhh/U67L0I3WTnHTXTpvlL9LeXG9Zn+NlhJY/4nq3TJt3f/PHzWTri519YvDbns51GvVLsW1I2x/6mY6gTtEQaRsybUOkXZ5T05nnB5u3GN37zWm5eMMcjNdbBzfrV4idPzpUjXmYaN9ONqf2H2ZQ+5fRqVulRm5ravomPS/EPifnpHoU9Rle4e956PabekzRs+o0WXi6zO0z4G1P5nI1+3Ta/tDPdAR1jhuQtA3Rb8eo4vzY5bRRy9Cfse/NHq/evKq4vTLrlLY/9DMdQZ1hw2Y2kvk8bUOY8/A8+NJjN7yNH/a92ePVm1fVt3Fp+0M/0xHUBHWqv2416C9b2k486HKM4vKx7y148OrNq+rfqbT9oZ/pCGqCmqDOsQ+UcaOUdgNSxroNosx4EdRmv0rbH/qZjqDOcSOdtiHMRuZ58KXHbngbP+x7s8erN6+qb+PS9od+piOoCWr2qHPsA2XcKKXdgJSxboMoM14Etdmv0vaHfqYjqHPcSKdtCLOReR586bEb3sYP+97s8erNq+rbuLT9oZ/pCGqCmj3qHPtAGTdKaTcgZazbIMqMF0Ft9qu0/aGf6QjqHDfSaRvCbGSeB1967Ia38cO+N3u8evOq+jYubX/oZ7rcg7qfwjAvAggggAACCIQFCOqwB68QQAABBBBwSoCgdqo5KAwCCCCAAAJhAYI67MErBBBAAAEEnBIgqJ1qDgqDAAIIIIBAWICgDnvwCgEEEEAAAacECGqnmoPCIIAAAgggEBYgqMMevEIAAQQQQMApAYLaqeagMAgggAACCIQFCOqwB68QQAABBBBwSoCgdqo57IWp+i34qlA/e8t1vluFurpYh05p+zsulr3IMtlVeNd1AYLa9RYSceKPZhS5MSnjutJ2ozLWrQxlxj/d/bfTOjGdWwIEtVvtYS1NGTaUo15Ga8NZ3hx1p0HV30JtfWtQ6y/Lcq0ovOm8AEHtfBOxR12GjWDablSGupSxjPizR522D5RxOoK6BK1Wxg3nqJU5bTcaNZei6os/QZ22D5RxOoK6BK1W1MaO9aTb2Nmc0nYj27y8l91d2+GfzjCtE9O5JUBQu9Ue1tLojRGP6TZGw3CyNpzlzWGUbRTWaaG2vjUKFkl1tKLwpvMCBLXzTcQ56qQNjyufpe1GrpS3auXAP92P2LROTOeWAEHtVntYS1O1jWoV62NtOMubVay7C3WyUFvfcqGswyyDFYU3nRcgqJ1vIvaoh7lhS7vutN0o7fKYLt0eonbCP51XWiemc0uAoHarPayl0RsjHtNtjIbhZG04y5vDKNsorNNCbX1rFCyS6mhF4U3nBQhq55uIPeqkDY8rn6XtRq6Ut2rlwD/dj9i0TkznlgBB7VZ7WEtTtY1qFetjbTjLm1Wsuwt1slBb33KhrMMsgxWFN50XIKidbyL2qIe5YUu77rTdKO3yOqZ7Z1q8hy/Iyma6PaeO+Ss+38D9c/FbkQsPezL9Ts5t2EPfSOvEdG4JENRutYe1NGk2uks/PSMXrq/zBzxy2aD2viG1NpzlzTRtaZ0mujH+4Iqc+dG8rA+pvtYyNssyjL5ooba+lVTuwX9GUFsbhTe7ChDUXYmGP0H3DciqzD5Wk93P3xypoF59bVLGZlYGUudel522l3Rvy5gfCZGgXn19Umq7zsjNIQd1p9Nw+uLA/XNxJqjTthPThQUI6rCHk68yb9xz2bjEBMfQl70us495Awrq3pedtuNkbstIUGdeTq7t1rvToMo9cP9c3AjqtO3EdGEBgjrs4eSrNBu3uWfN0FIbhDG58O68nDtyQLZ7nni1e+XAkxfk5idm8K7LzZmjcmBHTTw1zT27ZfIneg81/FltxwE5OnMzfKhVhcd3ZmX++cOy+x5PPK8m937tqMx+sCrzL03KAf89T7bvV++116vKOv3mklx88oDcW1PzbbeUbVPW370gR792r9T8sh2QyZfmZdXfYN6UM/c3y6w+U/9a52/D5d6+f1LO/Xy1vde9fEHGHr4gN6+fk8n92/15w3VLWna7DtE2SdtxovPZX6/K3Cltul12f7Mucz8+btRxUzYjwb36dl0O7wrqo9p67zePt8yTPlPrj3fW9TXL44nyOvPz67FtEO6LahnhNgl7B+vw+8TbS3Ll2YlWn/DrfUuXIfkxV/9bc1L/5u7ge6P69P2H5fjrS60+FPLytsvuxy42xw6sy9Jr03L4/maf9b9zs7LUCvlIUOu++PMzrbar7ZiQ+ttGf/XnNf1rcu9vTbfa1u8/kb5g71OBX1onpnNLgKB2qz2spUn64unPwhvHYINQu/+oXLje/NLfmpczD3uhw+MrP56Q2i61QV+V9c/WZXXlpiw1N4ytz5aD897ry1dk+mvbZWKmvcHyw8KrycSL87L62aZsfrYis0/u9MNv97dnZWVdbRxWZf70AfH2n2ttsFRZvdqEnLu+GgT/+pJcPLJTakdmm0G8KZvLF2XinmAav4635uXcIzU58JJef1DH6KFvVe7tj5yT+WY9Vq+fk4naATm32NzQq42jV5O9v3PBmOaMjHm75cwNHQb2ZWtr26O14Sxv2uaNvjd/erd4u6blSrMO64sXZfL+mtRaP0YiQb06K5PemJxbbI5RWF+Vpes3A8ukz1QIdHVel/nv7paaMl1Zl03VTz5Yarat3SncFzclTV9S89TuGZPpN1eafSLoS7XHjD7RCjzdTu1HC7X1rah15+tVmT3iydhLS80fpaq+83JT/2BQXrXdfnCvrm/K+uqK3PygHawr16/IzVu6HZbk3MPRH9DGYDK/L3qivitLzR/Qq+/U5YC3W+rXdd0C//b3aV1WXj8uu2vH5Yr//Yr0hQQjVVf+K6cAQV2CduvcmOgvcfsxvHG0b0DV+cT2nue81H+zJsfftA1ACz7rGJ16vS47a9MypzcG6pe8+Vq9r97zjrY3Iuq9D1Q4tufzN8rPzrX2UPz63booh70xubAc1Gn+9E7Z+6IO5WY93z4u3m/WZd5fv62Oqtx726HcLOfcdzzZeXo+WJ+/cWyvJ7Btbpxb57tty25b29ojbTeyzRt+b16ma7WOkcErM2NG20U2zisXZUIFtXHUorXMpM82N6Wrsx/0xg+dpmmwfLtTuC+m60vWPqH6m9FvWnUKlSFol/z8V+TiI0FQ29anvGrfvhI+smQpj57Xb7dWXw+8Wt8ra1/clPlTO6Wm5/H9I9+nzSW58JAnk681fyCwR522+Us7HUFdgqbTX/qkx/DGMbJB0BsS8wsds5Hw1xH32foVOWqEafTwqz+vH9TtUG4vr/1euKw6ANUGXe9tBOX3D2nrQ9utR70cS0j45W4eCm9N33ytN3z+NHoZet2bEi6TZdnaMOYxbTdKasO2VfSHRCSYVRnMttzclKXXjsqBe9Rh8mm58E5zr7RZ1vjPUjjb2rNlYHcKWabsS6F59PJj2spmmJu/WvcHs3J0/3bZvuuwTM/MNY8eqL5ir2+7POuy9PoZmXx4r38qaPuuvbJXnVbSfa85fzioO/ti6Ae172/v062jSZG+0C5Pu3/r99I6MZ1bAgS1W+1hLY3+kiU9hjd0wQaltUHQGz7zCx23AVXTxn1WcFC3NkS6/KFHy0YzrtzmfDEbf5tf8vrDG0Frw1neTGpD/7O4Ophtp+oTfa3e+2xdlt4554dM7f5pmTPHI1g/sxiaVno9sXu19vlDlnH1ifSl0Dy6DDFtZTO0UFvfss0b9976B3Ny7skDsr22V6bfUUee7PXV8y+9pE7x1GVOH/re3JTue9RpgrpzGr1O/9HWF7Rh5NGKwpvOCxDUzjdRuhuehDd0wQYlMag37YdYgw1AusOV1rBQG43ohj2ywVVlbR3a0xsSy6Fv77HZhEOMto1msFc++brtcH4zWCNl0Rs8m99Qgtpvl53GOcqg3Ks/ORx/6Fsbth6D0dgTP9YDA80fFeHP1KHcROfmoXN9SkJ7BY+2NogenUjXl8L+yW0VLkMwbdqvsW3ebu+tvz4p3iPBgLH579Y6+67vbrNYlytPel32qDuPnnQe+t4rZ9412zDynKBO2/ylnY6gLkHTdduQqM/DG7o0Qb0pSy8eEM8fTBYE2/rqkiw1B49FBwBtqpGwX6vJAfO8sW0DkTao7xmT+jvNc2zrS3LhkVrnYLLadjmsRnr7g2aCwW6z77TPW889W5Od37nSHoCm9mDUALl7DhsD1VZl5d1ZmQsNJuvcQwn7Kc/OZSe1Q9pulLQM/ZkaTOYP3tKDyZZn5XjSYLJWQDc34Kqt9seMP4h+5g+OSnJWYVNrlkf1k/CgQ5tT1DJNX4rO41vE/KjSTuZjnv7mcjc/W5W50wfa56UXz/mDvdQo8HU1gPKTVVlaDE41KIvakYuyot7fDAZ97a11OfRdq8nexy7KUnNg2Oqb07LbMpisdr8a9Nn8AarW+c4VmV9ttrftexjtE83XaZ2Yzi0Bgtqt9rCWJrThiPkChjd06YK687KZvXL89fYI1qXXp2WieemW7ZKafvaox74/Kxe6XJ6lzhVOty6T8WT7rjGZ/HE7qPW5RHUuu/ZNfYnMpqhyty5VUpfPPDwpF3sM6rhlx7WFteEsb8bNH37fvByneXnWz4PLylq3EDU3ziuzclRfmqUszEvpkj7Tfamb86ZZnqAdzukR8s3zuWYbhPtiECbd+pJtnuAUTOePqrBVsHwLtfUt27zh91Zk9nf1GPdlAAADyElEQVT0pVn2yxpDl2epS+G+3RyZ/sm8nPmt9qVZE6fmZOXN4132qI/LRePSurjLs/zLHfVllP7ld3WZI6itbVzFNwnqErRqeEPS/BWtN7IlfLRulEtYD7Nd0nYjcx6e59eXS+nfwxGDvPpKWiemc0uAoHarPaylyetL6spyCOr8AsqVNh12OaxfHMubwy5naP0EtaWFeMsmQFDbVBx7L/TlLvmep6oLQU1Q592n035l815vX8sjqNM228hPR1CXoAv0tTFwMNgJaoI67z6d9muc93r7Wh5BnbbZRn46groEXaCvjYGDQV3F+qTtRlWsuwt1wj/dj7+0TkznlgBB7VZ7WEvjwoaQMiRvCK0NZ3kTx2THrD4WautbWZdflfmsKLzpvABB7XwTpbvhSVU2JGWtR9puVNb6uV5u/NP9AErrxHRuCRDUbrWHtTSubyQpX/q/SoRVukDp1cn6xbG82etyqza9hYS3SiBAUJegkaq2sahifdJ2oyrW3YU64Z/uB1BaJ6ZzS4Cgdqs9rKVxYUNIGZI3hNaGs7yJY7JjVh8LtfWtrMuvynxWFN50XoCgdr6JOEddho1k2m5UhrqUsYz4p/sBlNaJ6dwSIKjdag9racq44Ry1MlsbzvLmqLkUVV8LtfWtosrj6nqsKLzpvABB7XwTsUft6kbPLFfabmTOw/N0e4FpnPBPZ5nWiencEiCo3WoPSoMAAggggEBIgKAOcfACAQQQQAABtwQIarfag9IggAACCCAQEiCoQxy8QAABBBBAwC0Bgtqt9qA0CCCAAAIIhAQI6hAHLxBAAAEEEHBLgKB2qz0oDQIIIIAAAiEBgjrEwQsEEEAAAQTcEiCo3WoPSoMAAggggEBIgKAOcfACAQQQQAABtwQIarfag9IggAACCCAQEiCoQxy8QAABBBBAwC0Bgtqt9qA0CCCAAAIIhAQI6hAHLxBAAAEEEHBLgKB2qz0oDQIIIIAAAiEBgjrEwQsEEEAAAQTcEiCo3WoPSoMAAggggEBIgKAOcfACAQQQQAABtwQIarfag9IggAACCCAQEiCoQxy8QAABBBBAwC0Bgtqt9qA0CCCAAAIIhAQI6hAHLxBAAAEEEHBLgKB2qz0oDQIIIIAAAiEBgjrEwQsEEEAAAQTcEiCo3WoPSoMAAggggEBIgKAOcfACAQQQQAABtwS8X/7yl8I/DOgD9AH6AH2APuBmH2CP2q0fTpQGAQQQQACBkABBHeLgBQIIIIAAAm4JENRutQelQQABBBBAICRAUIc4eIEAAggggIBbAv8/unxKfhOrgGYAAAAASUVORK5CYII=;" vertex="1" parent="1">
                    <mxGeometry x="50" y="30" width="324.83" height="472" as="geometry"/>
                </mxCell>
                <mxCell id="3" value="" style="shape=image;verticalLabelPosition=bottom;labelBackgroundColor=#ffffff;verticalAlign=top;aspect=fixed;imageAspect=0;image=data:image/png,iVBORw0KGgoAAAANSUhEUgAAAfEAAAKvCAYAAAB6XvZnAAAgAElEQVR4Ae3d32sc973/8fkv1nfGJmAMJ+YEan1PLiIacyxyTAU+poIcGV0EoxN6rBoaq4Gvq9MLIwKp3AOpnC+l0kWJqhLWuAUZhyLjBGRwUAw6yAYFUeKwmKCFhmqhF7rwxfvLzM5n58fOZ3dmZ3ZmPrPPQFjtzs7MZx6f93xeM7Oza0v4DwEEEEAAAQSMFLCMbDWNRgABBBBAAAEhxCkCBBBAAAEEDBUgxA3tOJqNAAIIIIAAIU4NIIAAAgggYKgAIW5ox9FsBBBAAAEECHFqAAEEEEAAAUMFCHFDO45mI4AAAgggQIhTAwgggAACCBgqQIgb2nE0GwEEEEAAAUKcGkAAAQQQQMBQAULc0I6j2QgggAACCBDi1AACCCCAAAKGChDihnYczUYAAQQQQIAQpwYQQAABBBAwVIAQN7TjaDYCCCCAAAKEODWAAAIIIICAoQKEuKEdR7MRQAABBBAgxKkBBBBAAAEEDBUgxA3tOJqNAAIIIIAAIU4NIIAAAgggYKgAIW5ox9FsBBBAAAEECHFqAAEEEEAAAUMFCHFDO45mI4AAAgggQIhTAwgggAACCBgqQIgb2nE0GwEEEEAAAUKcGkAggcDB57fl6uRpOWZZYlmWnPiXK7L4pz05TLAM3ooAAghkJUCIZyXJcioucCSPb77uBLcd3uH/T/z0/tCD/OCPl9z1LsrjimuzeQggEE+AEI/nxLtGXeCvq3LBCe9jMv27HTn4h4gcHcrO76bds/Jj8ovPj4aqRIgPlZeFI2CkACFuZLfR6LwFDurT7bPgY+Gz4EO5+077zPzYzeGeHxPiefc660Og/AKEePn7iBaWQKAToP98S3ZC7Xn+iXuZ+9/X5XloWpZPO22wwgcSWa6FZSGAgEkChLhJvUVbCxM42rzufh59QVb/GmrGXx/K+mc78ty+xO777/DRLbnyproJ7picnrwu618HL7k/vul+vj61Ls8P9+TuzSvy+iv2ayfk0v/bkfa7H8tixOfw9ufyi196Kzz6el2uT70uJ3w33d16FLzlLt763GW+PJCHv1LtscQ6dlou/GRVdoKLFJFDefyrK3Lun465VytOy4Wfr8teyMNrKX8hgEBWAoR4VpIsp9oCf7srV1SQ/ssv5OHfem/u0ZNFeV29/5XTcvqYG9bHpuXuC2/eTqj+8+vy+rFjcvrNc957rUuy7rx3R26fP+eFpHVCXrefnz8nt5+4y3pxV6Y76zgtp50DAXudr8viE+/AId767GUeycOfu6Fs34X/T+pgxBLr31Z9VxyOZOcD74Y///uOzdyVA29T+QsBBIYgQIgPAZVFVlPg+R/VTWyWWK9ckdXQWbW31Ydy/yduaL+jgmxPbp9vv3bud95F906oHrsgt560T3G9s/7gmXavy+k7//Na+yz4nxdl56XdkiO5/1O3DT9/6J7Ri8Re38FdmXYOQo7J9U33IKBzc98572rE4X256h6sXKm7kf31bTnnvOZ7n4fDXwggkKEAIZ4hJouqvsDzP17pXK62z3KvbniB7G29d/n70h+9c9FOgP7E+zpa57Wpde+s9cW6XHKD0X+5XB/iB7I+5Qa27+a6zvt9n+PHXt+Xi+7HB+pqgL113nZ12tXnfVc3uq69e0z8hQACqQUI8dSELGDUBA6f3JIL6tK1dUwu/I/67NqV6JzFWhIZ4r7Ajh2qItIJ5a4b23ZkUbUnKsR974+7vs7d+J1L+va2dYd4v/f5t3/U6oTtRSAPAUI8D2XWUT2Bb+/K1X9xz36tY3Lug8edS9biO5P2h1hUgEa95p+/c8bbM8S9cLWyCvHOD8v4z8Ttr8YfyuHhoRw5l+z9Bxb+93nt8W9/9YqALUKgeAFCvPg+oAWmCvxjR25Nqpu/XpNfPHI/O/aFePiX3ZznmZ+Je6EZub5BzsQ1IR7uKu/qgDqgCT4S4mExniOQrQAhnq0nSxs1gX88lkV1Rq7u2vaF+KXf7TlnrvbZq/d/xN3ivmBPdSb+f+/71qPWmXx9Xjj7z7C7O9f/vtVnan2+R2/V3TPzCgIIpBYgxFMTsoBREDj663259ZNL8vq/+79e1d7ywz9dcW8Cm5a79n1s/hD33dgW5TTMy+lp1ucP5/bX3OylHcre5w/l4ecPZc/9il30+6LWzGsIIDAMAUJ8GKoss3IC3g1c1+Vh+Oyyc4e2+0Mwmhvbdn7T/m73uZ/d79yJnk2Ia25s27jufJf83PnbnV+Zi7s+b3v9Z+LeZXv1WX30+9zvtZ8/J9c3vLvzK1cUbBACJRAgxEvQCTTBAIG/rrrfffZ9b9pttve9bhV4Xtj5PxOOCtCo1/xn8ios7VV5Z73hn13t8xWzAT4Tl86BidomuwXednXa1ed9/u03oJdpIgLGCRDixnUZDS5GwBeUx6bl9pfP2589f3tffhH+TFwOOz/2cuzn6jvhz2X139o3ffn/oZREIa7+ERbrnNx+FlTo/NjLv92WPffHXjq/uOb7vD32+nxXEzrf9e782Isv2Ds/9nJMrn/mfie8875jgZ+FDbaYZwggkIUAIZ6FIssYDYFv172fNnV/jKVzN/ixC7L6tccQ/NnV193fQ7dDPPjb67FD1V50Jxy9O8A7Z8Shn119Xf2OuRW8chB/faGfXf0X7zfZgz+nGvrZVd/7gj/P6tnwFwIIZCdAiGdnyZJGQSDwj5TYP7/6ulz6yW15GPHRb+Q/gPIs+Atm8UO1jWsvc7oT0CfklvrtdPuHVqP+AZTPgw1LtL6ofwAl8h820fwDKMFNHYXqYBsRyF2AEM+dnBUigAACCCCQjQAhno0jS0EAAQQQQCB3AUI8d3JWiAACCCCAQDYChHg2jiwFAQQQQACB3AUI8dzJWSECCCCAAALZCBDi2TiyFAQQQAABBHIXIMRzJ2eFCCCAAAIIZCNAiGfjyFIQQAABBBDIXYAQz52cFSKAAAIIIJCNACGejSNLQQABBBBAIHcBQjx3claIAAIIIIBANgKEeDaOLAUBBBBAAIHcBQjx3MlZIQIIIIAAAtkIEOLZOLIUBBBAAAEEchcgxHMnZ4UIIIAAAghkI0CIZ+PIUhBAAAEEEMhdgBDPnZwVIoAAAgggkI0AIZ6NI0tBAAEEEEAgdwFCPHdyVogAAggggEA2AoR4No4sBQEEEEAAgdwFCPHcyVkhAggggAAC2QgQ4tk4shQEEEAAAQRyFyDEcydnhQgggAACCGQjQIhn48hSEEAAAQQQyF2AEM+dnBUigAACCCCQjQAhno0jS0EAAQQQQCB3AUI8d3JWiAACCCCAQDYChHg2jiwFAQQQQACB3AUI8dzJWSECCCCAAALZCBDi2TiyFAQQQAABBHIXIMRzJ2eFCCCAAAIIZCNAiGfjyFIQQAABBBDIXYAQz52cFSKAAAIIIJCNACGejSNLQQABBBBAIHcBQjx3claIAAIIIIBANgKEeDaOLAUBBBBAAIHcBQjx3MlZIQIIIIAAAtkIEOLZOLIUBBBAAAEEchcgxHMnZ4UIIIAAAghkI0CIZ+PIUhBAAAEEEMhdgBDPnZwVIoAAAgggkI0AIZ6NI0tBAAEEEEAgdwFCPHdyVogAAggggEA2AoR4No4sBQEEEEAAgdwFCPHcyVkhAggggAAC2QgQ4tk4shQEEEAAAQRyFyDEcydnhQgggAACCGQjQIhn48hSEEAAAQQQyF2AEM+dnBUigAACCCCQjQAhno0jS0EAAQQQQCB3AUI8d3JWiAACCCCAQDYChHg2jiwFAQQQQACB3AUI8dzJWSECCCCAAALZCBDi2TiyFAQQQAABBHIXIMRzJ2eFCCCAAAIIZCNAiGfjyFIQQAABBBDIXYAQz52cFSKAAAIIIJCNACGejSNLQQABBBBAIHcBQjx3claIAAIIIIBANgKEeDaOLAUBBBBAAIHcBQjx3MlZIQIIIIAAAtkIEOLZOLIUBBBAAAEEchcgxHMnZ4UIIIAAAghkI0CIZ+PIUhBAAAEEEMhdgBDPnZwVIoAAAgggkI2ANsQf37TEsqL+/6FMRb5uifWjq3JBN+1c1LLs1wZc3tQPNe2z5D9ny7Cus3JWZ1H6tmffJ4tf9irYx7Kos6KmfHVOTfnHpH8dpGZ67HtDqdEe62Oc8o3TJXHKuqb0fXxJ1l/0GhPjT9OGePxF8E4EEEAAAQQQKEKAEC9CnXUigAACCCCQgQAhngEii0AAAQQQQKAIAUK8CHXWiQACCCCAQAYChHgGiCwCAQQQQACBIgQI8SLUWScCCCCAAAIZCBDiGSCyCAQQQAABBIoQIMSLUGedCCCAAAIIZCBAiGeAyCIQQAABBBAoQoAQL0KddSKAAAIIIJCBACGeASKLQAABBBBAoAgBQrwIddaJAAIIIIBABgKEeAaILAIBBBBAAIEiBAjxItRZJwIIIIAAAhkIEOIZILIIBBBAAAEEihAgxItQZ50IIIAAAghkIECIZ4DIIhBAAAEEEChCgBAvQp11IoAAAgggkIEAIZ4BIotAAAEEEECgCAFCvAh11okAAggggEAGAoR4BogsAgEEEEAAgSIECPEi1FknAggggAACGQgQ4hkgsggEEEAAAQSKECDEi1BnnQgggAACCGQgQIhngMgiEEAAAQQQKEKAEC9CnXUigAACCCCQgQAhngEii0AAAQQQQKAIAUK8CHXWiQACCCCAQAYChHgGiLpFtFot4f/yGOj6Kfw6fVaePtP1RbjPdM918/P6cPtY1x+8nr0AIZ69aWeJDBTDHSiS+nY6ps8fSZfL+/Pv5z5d2JlM3+TfN7Y5/+UnQIgP0ZoBpJgBROcet6t18/N6efqTvixPX0TtF3H7h/elFyDE0xtqlxBV3LxW3OCj7ajQBPqouD6Kax/qMu3TuMvjfdn2ubZDmJC5ACGeOam3QAaGbAeGtJ5ez/T+K+16mH/4/d67B72p9MXw+yLK2OsB/hq2ACE+ROGo4ua1YgYV2z3uf/RRcX0U156+LHcfxe0f3pdegBBPb6hdQtwBifflMyBpOyo0gf7Ipz/SOIe6TPs0zTqYd/A60HYIEzIXIMQzJ/UWyCAw+CAwDDuvZ3r/NYx1s8xsa6F3D3pTcc/WPa6n1wP8NWwBQnyIwnELnvflM9DE7Wr6I5/+SONMX5a7j+L2D+9LL0CIpzfULiHNIMW82Q9S2o4KTcA+e/usTUNdpn2a9XpZXrza0HYIEzIXIMQzJ/UWyA4fb4fPy8nrmd5/5dUe1jN4ffTuQW8qxoMbp7HzeoC/hi1AiA9ROM1OwLzZDz5xuxr77O2zNqUvy91HcfuH96UXIMTTG2qXkPXAxfLSDVzajgpNwDmdcx5+oS7TPs2jLayju160HcKEzAUI8cxJvQUWs3Pvy8pFSxYedO9Yw21PUeuNv51ez/T+a7hO8ds71HY8WBDr4orsG/qP9PTuQW/qMAw3b1gyubo/5H/caJD9aZB5hlOPXg/w17AFCPEhCg9jAOm/zKJ25DjrbcrWb5dk42mKgaOxLWs3ZmT8dE0sy5La6QmZW92WZowwitvV/Y1TtD9GO3NZPyE+cAgXE+Jx9p04+2CwdrdunpGJj3e7LPZXJ1Md5MXd13hfegFCPL2hdgm5DMZdoZB8R249WpQzNza7duRk7Y+z3m1ZOluT2TuNFOvalvrHddneb0qr1ZTGV2sy++oZWXwUHJyi2q7tqNCEqHkr9xohPnANFhPicfadOPtgaD+x9/03l2U3NI40Pp0V631vTLCfJ7n6ENqleDpEAUJ8iLjFDPzJd+TtX4+LlUuIhwaQ0MAxqFfcQTVuVw/aDqPmI8QNC/E4+07yfb/V2pLFqINguz46Y0JT6u8m+wgh7r7G+9ILEOLpDbVLiDOoN/6yKDNnjzuXhq3aKRm/PC/1zuXmpmyvzsmEe+n4+PlZWf4ieBbb/GpF5t46JbXOpeW6LIU+E2/u1GXh8ricqlliWTU59dacu46G1P/LXbdlT7P/X5BNN1z9y7ZOTsjsx1vS0AavO4Dc2ZLlKxNy3F5W7ZRMXFuR7e/UABQeZOznk7J8r97ZBuvkmMx8uCWNp3VZ+HF7u+zlTH24pblk3pC1y5bMfhp0ibLXdlRoQtS84dfsA4eFe7uydm3CdT0e2taWtNyB0HF8w778Pykre22LgG2XU0taeysyeXFFtr9Y6tRH7fSULP4ltJ3fbMri5bGO99SNuux+r7xb4rTzQbuOxu3+V5+Dd0K87dd9lmUP7jWZv2df8fCW51y1qXk1oqY5Z27n1RldsG67P/Jo10HXOjtt8q3Pv27f36Eu0z5V7dM+PliQWuhM1L7EbIW2cfe3k2Jd23Bq0Dlo/O2mbNyY6vT92OVF2fzGbndCT3eb/PXQ9grvx+F9pyXx5pmUla967ZMt2f1oXM7c3Ar28xcLMvaB/dq2LDm1q8YHXw35+iPsq+0QJmQuQIhnTuotMFzYXc8bdZm1JmV5xx0omw3ZfbTdCcr930/J8beXZcsZHFrSeLQsU7UJWd5xB7lv6jJbq8nUb3fbAfd9QzY/mJTjtdCNbXtbsvFVww3Bpux+HPy8yx6UvKNud9l7azJ1ckqWH7mh8c2WLL9di/z8rL1d7UGm9sacrH2ltmdXVt6uydiH2+4AER6I2s+ts/NS32vP0/hySSadAwDfuvfXnO3sCpRWU7Y+mJDjb690XQ7sss74H0BxzGrtNjqfxzd3Ze3KGaldqXf6zwnx8xMyeXFBNp42pNFw+8C2rY3J/J39dp8092Xjl6HtsEPcsmTsvbrsugdBjQeLMmGNeR8dNLdk4WxwOfX3xqT2XjtsbAO7nRNvTcrkLzdkt2G3we0bX2A2781LrRPAbv/bl1lDQdY23ZXl8+Fwb0j9inemZtdtzdenzb0NWXjruEytqs9e2/1eihB390F1cNU+M52QifM1382h7e1TB4q2ae3kpCw+cPvz+4Zs3BiT2rvtvk/m2ZJWrP04tO8kmMfeJ1d8+7F9kO/tky1p7SzLRGRfu7XQ0vQXIe4N9gX+RYgPET8qSAKv7a/JlB3inTNvtdPYj/aZ0LgX2O4Os/m+JWecI+SW2INl58yqs0NtykI4xDvT3OU7AeGdTUWF+NYHZ2T8IzXouvP9ZV6sVxdlK7w853n0ju6coamzP3cw8O6cj5qn/Vp43fZ2Bwf9pmzaA+fby74zfb9f999xuzrQR5Hb2g7HWudyo7uub9Zkxne27YS4NSNr7kGYWq5t2zWv09++4HD6yDtz78x705vXsXXPDtX01lM7/Gel3mi3yenby2vegYXaHl+It5obMl8L1pp9Ntp1dubOu/vxROes1Fmvs91qO9tn8F4fuzaBg4KofnevXHRqpbv/OtuY6QFZuy0qoJ0rDT9akc3VSW/7mxsy5+tXJ8TDfW9vn7qKldAz3n7cbqdyTTJPcL9pSXCftJ3tZYcPzPz+mv5StRTxGHdf433pBQjx9IbaJfgHHd3fu5/OycTJ4zJ2eUFWHrhnZvZO4Z6JtS9x+y5l2Wep7gASFb7tHTJ4Jt58WpelK5Mybl+2Pzkm42/Yl6l7hXh7p41ct2++4DYFB5nONH9YaEJcDUzteaIHDHtbA4PRzrKMh88eIwaTTjsyHfjbIR5oj7NuO8B89oFtV4Ni9PbZN+ltXPNtY+hAS22HfwB2+t/5CCRUH6HA6W5nd2AGQ9vejh43CwZCuyWNP8yIpa5AaA4+7AMFLwg1BpFeyi34qN3pQhOUW69H+3KyOqiy/3YOIO36UgesXwQvuXfVYmd/9fapJJ7x9uPg/jXIPB2DCGe7D/1XcDrvdepa01899rdQN/B0iAKE+BBxgztCcBAKTPu+KbsPlmXu/HGpvbEgm/blU91g6NtxYu3I9qUya8K79Bcx4HQvJ/lOG3Xw4GxjYMAIDkTR80Sv225jIIweLHRfKfDZBHzd1+N2ddS84de62uOso4AQD58Rhgyi29kd4vYl1XF1STXic+Lg9vsPONr9Nfdn9zK9rm5LHOLO2bcT2Luy/Ka6ImH/3T6QcT4zdq9+2Q6RpuGDrgSe9vLUgbnn3HtfGWSezrID+6Q7LjkHZt4VnM57nXqK3ieD7wmOb3H3Nd6XXoAQT2+oXUKvIo+e1r4LdOr39g9JtANh9o47OIYGZ3t+55Ja16XSYJBEfd+z+ee5wA1sUQOCfcnXerfufo4e3EGj2x4edNx5AgNG+D3h5/Y80QNG5MAZYRLdtnZbtB0VmtBrGWqa3R519qZea0VdTo+4PJzp5fQ3l2S7h4PWLdAvtk/7s277qsjmjV73PrQtnc997W2zw6s2LxvN9uvtuvV9LKDaFrqcvvZ26KDMrucE300OdZn2aadvVDsiH+2PoCZl5Y7v7LvVkvZHShvOpWb/1aJI03CIJ/CMsx+r/UK1Y5B5OhZdfW/3Xftz/5k/hG6cdLyi98nO8iJMtR3ChMwFCPHMSb0F9iryyGn2nca+m4bsHbV2csa5uax981RD9r+qy2bgxjbfjU3fN2Tro5ngjW32WVVtVtb23cF3ry7zb9QCl9Pbg+dy4K7mlnPz1XGZse9IdwbopjT2t6X+IPQ5eWcHjgrk8Blf+D3h53YboweM8MC5/eGY1H4U74Y2Ze31TO+/1Pt7PToh7t7c5Lyv2b6Jr+vGtogQb9sG+23zg4ngzWVOONZk/N012XUDsnFvQca6bmyryfj73s1vzcaubP7Z+xZB2K2zTREDuXNJ9f0FmbcDzb2LvvP+Tj/7w3pSFm5Mdh3MOHXru7GtZdf1WzWZ8N1jYfefdXFJtt3P7u2PfObPxrvz2W5T3P/07VfbYT+2ryxMnJ/o3G/izGcfeJyfkAlrzneQEvNMvNX+mKEWx9O5SS1YD137cfijqEHmUX0Y0ff29joH910nBW0n+8DuzPsb3fdWqGWGHuP2D+9LL0CIpzfULqHvALJflzn19bLOV8SCvz62e2eh8xUjyzouYxdnZU2FuL3jdX3FbFvq9tefOj+72pStD9VXYWpy6seLsrm/IfP+z7a/25Il9XWuk74b1+yveamvL1mWHD87KbO/J8TtfnXC8dd1Wen3FbOoELcHvNBX6IJfxVMfp8zLmu8riJFfMWu0vz7U/vqg/Qt24zLzwWZnsE0S4u3PrS2xNAN5uJ7ty8yWFf3ZuV23U71+Ve+77YDd2OUl2fqy/bW6OD8Fq93pQhPCbdY9d+416NqW9lWtzuf9blBFmnadibckiWf//bj7gHeQeZzt14R4+wZH37df/MH8tO583Of8SuLltb4/1xvqBp4OUYAQHyKubsDgdf9ZUH5/x+3qOP0TOZD7B720f0eFQtpl9p1/V1Z+FO87945Rz28rDLdfs+zLOP092HsSevbtn+GaDraN0W2K2z+8L70AIZ7eULuELHcKlhU9WCRx0XZUaEKcZVYyxJ3vC/s/3+5l3pSN9/p/dh7HcpD3hLpM+3SQZWc2TyLPXtbmTdN2CBMyFyDEMyf1FpjZYFChI/QiTbye6f1XnDZWLsTdz/Tbv9LVPzScz+drs1IPfQc+jl0W7+ndg97ULNY10DISeg60jhKPC14P8NewBQjxIQpXbcc0fXvidnWc7axOiLc/a7Xvt5i4Vu//y3f256nO/RtTsvRI/82JOIZp3pNlX6ZpR/e8CT1LHMTd29b/4E7NE7d/eF96AUI8vaF2CaqgeYy/8w/TSttRoQnDbAPLzqYWQl2mfYp3Nt5JHbUdwoTMBQjxzEm9BSYtfN4/3AHH65nef9EPw+2HLHx796A3NYt1sYzk9eD1AH8NW4AQH6IwO3/ynX+YZnG7ephtYNnZ1AR9mY3jsOoxbv/wvvQChHh6Q+0ShrWDsNzBBjBtR4Um4DuYb55uoS7TPs2zTazLqxtthzAhcwFCPHNSb4Hs1N5OXQYLr2d6/1WGttKG3rXTuwe9qTj2dhyWj9cD/DVsAUJ8iMLD2kFY7mADU9yuxncw3zzd6Mty91Hc/uF96QUI8fSG2iXkOaixrv6DmrajQhOw7G9ZtFGoy7RPi27nqK5f2yFMyFyAEM+c1FvgqO7AZd1ur2d6/1XW9tMu7+Cidw96UzHzzPK08HqAv4YtQIgPUTjPnYZ19R+s4nY1lv0tizaiL8vdR3H7h/elFyDE0xuyBAQQQAABBAoRIMQLYWelCCCAAAIIpBcgxNMbsgQEEEAAAQQKESDEC2FnpQgggAACCKQXIMTTG7IEBBBAAAEEChEgxAthZ6UIIIAAAgikFyDE0xuyBAQQQAABBAoRIMQLYWelCCCAAAIIpBcgxNMbsgQEEEAAAQQKESDEC2FnpQgggAACCKQXIMTTG7IEBBBAAAEEChEgxAthZ6UIIIAAAgikFyDE0xuyBAQQQAABBAoRIMQLYWelCCCAAAIIpBcgxNMbsgQEEEAAAQQKESDEC2FnpQgggAACCKQXIMTTG7IEBBBAAAEEChEgxAthZ6UIIIAAAgikFyDE0xuyBAQQQAABBAoRIMQLYWelCCCAAAIIpBcgxNMbsgQEEEAAAQQKESDEC2FnpQgggAACCKQXIMTTG7IEBBBAAAEEChEgxAthZ6UIIIAAAgikFyDE0xuyBAQQQAABBAoRsCzLEv7HgBqgBqgBaoAaMKcG1BEDIc5BDAdx1AA1QA1QA4bVACFuWIdxhGzOETJ9RV9RA9TAsGuAECfEOfKmBqgBaoAaMLQGCHFDO27YR3csnzMIaoAaoAbKXwOEOCHOETg1QA1QA9SAoTVAiBvacRwhl/8ImT6ij6gBamDYNUCIE+IcgRteA6+9syjrn+/I3rM92XvyUNZvTssJw7dp2AMfyydcq1IDhDiDHSFubA1ckNtPDtU+HHg8enFfrr/CQF2VgZrtoJZ1NaB2fL4nbuxATnHrirvar5+Q659HB7jaqeXgvlyhrjlIpQYqXQNqfyfEKfRKF3rlAv38ujxXe2+Px53fnKBf2bepgQrXgNr9CfEKd3LlAg7kRtAAACAASURBVIy+khOfxIlwEfnfWwzg1As1UOEaIMQr3LmEd3U/auh7KV3t2V+vMoCzj1MDFa4BtatzJl7hTibMqxfmhHj1+pT9lD4dpAYIccKbo3QDa4AQZ8AfZMBnnurVDSFu4ADOjli9HTFpnxLi1EDSmuH91awZQpwQ50zcwBogxKs5IBO09GvSGiDEDRzAk3Yy7zd/YDjxk1uy/sm6rP/qqvNrbElDPDw/NWF+TdCH9KFdA+o/bmwjzDkjL3ENrH7t7qqHD+W6ZfX/oRe1Z7t3p4fnJwAIAGqgGjWgdnVCvMQDODtbNXa2NP0YDuGkZ+Lh+dO0hXmpR2qgPDVAiBPenIEbUAPhECbEyzOIEmj0RZE1QIgbMIAXWSCsuxwD1Oozd1d9uSO3LEvO1WP+Ytuz9o+9hA8C6Ndy9Cv9QD+krQFCnBDnTNyAGri6qf6xkwO5/44l1n8/liO19/Z4PNiYFsu6Lg87s9+XaQO2N+3AxvyE46jUgNr9+UycgY0wL3MN+EL74LMrYlkX5O63avfVPB7tyC37nyP92UNRGX74+XX6ucz9TNuoz4Q1oPZ+Qjwh3Kgc5bGdZTmjuSL3D9zd9eVzWZ+0xJq8LTsqndWerB5fHsjDn9v/gtkFWf+retE9i6fWCQpqoDI1oPZuQpyirkxRV/XA49zv9rxL6H97KNfts+xXpuXWZ3ty+A/34vrRoRw8uSuL/2EHePDfHD96tirnqHPqnBqoVA0Q4hR0pQq6qgHe3q4Lsvq175Pwwz1Z/+lr0f33g6uy/sx3mn60J6v22Tv1jgE1UKkaIMQp6EoVdOVD6pXrcv+FL8hF5Ohvz+XxZ+vtX3T75L48/tYX3vYefnQg951L64R45euD8WzkxjNCnKIfuaI3fiC3L6E/Uh+Qq104+vHo24dyizNwapxxrrI1oPZ8PhOnyCtb5MaHtqY2X3tnUe4+OZDDl2o3dh9fHsnhix25e3Pa+Z31qm4/28WVFWqA304nuDQBwc5h1gDJj7mY1V/sX/RXVjWgDuE5EyfMOKAxqgZekwsz0zLt/n9XfY3s8LHc6rx+Sc7Zd7AbtV20l/6iBpLUACHOAMcgb2ANTP8p3mfi4v7sapJBgfcSItSAOTVAiBs4gLODmbODDauvvJ9hVbuw5tH9p0iH1Q6WSy1SA8XWgNrzuZxOmHNGblIN/OCq3P5Efa1M97jq/uhLsYMMgzz+1MDwaoAQN2ngpq0caFAD1AA1QA34aoAQ92FwtDi8o0VssaUGqAFqIPsaIMQJcY5qqQFqgBqgBgytAULc0I7jiDb7I1pMMaUGqAHTaoAQJ8Q5AqcGqAFqgBowtAYIcUM7zrSjRdrLGQ41QA1QA9nXACFOiHMETg1QA9QANWBoDXRCXP3BIwIIIIAAAgiYJeD9UyhmtZvWIoAAAgggMPIChPjIlwAACCCAAAKmChDipvYc7UYAAQQQGHkBQnzkSwAABBBAAAFTBQhxU3uOdiOAAAIIjLwAIT7yJQAAAggggICpAoS4qT1HuxFAAAEERl6AEB/5EgAAAQQQQMBUAULc1J6j3QgggAACIy9AiI98CQCAAAIIIGCqACFuas/RbgQQQACBkRcgxEe+BABAAAEEEDBVgBA3tedoNwIIIIDAyAsQ4iNfAgAggAACCJgqQIib2nO0GwEEEEBg5AUI8ZEvAQAQQAABBEwVIMRN7TnajQACCCAw8gKE+MiXAAAIIIAAAqYKEOKm9hztRgABBBAYeQHr73//u/A/BtQANUANUAPUgDk1oI5eOBNXEjwigAACCCBgmAAhbliH0VwEEEAAAQSUACGuJHhEAAEEEEDAMAFC3LAOo7kIIIAAAggoAUJcSfCIAAIIIICAYQKEuGEdRnMRQAABBBBQAoS4kuARAQQQQAABwwQIccM6jOYigAACCCCgBAhxJcEjAggggAAChgkQ4oZ1GM1FAAEEEEBACRDiSoJHBBBAAAEEDBMgxA3rMJqLAAIIIICAEiDElQSPCCCAAAIIGCZAiBvWYTQXAQQQQAABJUCIKwkeEUAAAQQQMEyAEDesw2guAggggAACSoAQVxI8IoAAAgggYJgAIW5Yh9FcBBBAAAEElAAhriR4RAABBBBAwDABQtywDqO5CCCAAAIIKAFCXEnwiAACCCCAgGEChLhhHUZzEUAAAQQQUAKEuJLgEQEEEEAAAcMECHHDOozmIoAAAgggoAQIcSXBIwIIIIAAAoYJEOKGdRjNRQABBBBAQAkQ4kqCRwQQQAABBAwTIMQN6zCaiwACCCCAgBIgxJUEjwgggAACCBgmQIgb1mE0FwEEEEAAASVAiCsJHhFAAAEEEDBMgBA3rMNoLgIIIIAAAkqAEFcSPCKAAAIIIGCYACFuWIfRXAQQQAABBJQAIa4keEQAAQQQQMAwAULcsA6juQgggAACCCgBQlxJ8IgAAggggIBhAoS4YR1GcxFAAAEEEFAChLiS4BEBBBBAAAHDBAhxwzqM5iKAAAIIIKAECHElwSMCCCCAAAKGCRDihnUYzUUAAQQQQEAJEOJKgkcEEEAAAQQMEyDEDeswmosAAggggIASIMSVBI8IIIAAAggYJkCIG9ZhNBcBBBBAAAElQIgrCR4RQAABBBAwTIAQN6zDaC4CCCCAAAJKgBBXEjwigAACCCBgmAAhbliH0VwEEEAAAQSUACGuJHhEAAEEEEDAMAFC3LAOo7kIIIAAAggoAUJcSfCIAAIIIICAYQKEuGEdRnMRQAABBBBQAoS4kuARAQQQQAABwwQIccM6jOYigAACCCCgBAhxJcEjAggggAAChgkQ4oZ1GM1FAAEEEEBACRDiSsL3ePDHS2JZVuT//zkb/bpl/VCmNPNYP7oqF3TTpn4YuR57/fp1XZL1F74Gh/98sS6XBljfv+rmybz95lvp++asnNU5DtTXeVplvy5tTU2ty0G4bv3Pe9XwuTLsg9lb6Wuqx7r+z9kBxo8ey8tzX+9XA/564G+tACGupWECAggggAAC5RYgxMvdP7QOAQQQQAABrQAhrqVhAgIIIIAAAuUWIMTL3T+0DgEEEEAAAa0AIa6lYQICCCCAAALlFiDEy90/tA4BBBBAAAGtACGupWECAggggAAC5RYgxMvdP7QOAQQQQAABrQAhrqVhAgIIIIAAAuUWIMTL3T+0DgEEEEAAAa0AIa6lYQICCCCAAALlFiDEy90/tA4BBBBAAAGtACGupWECAggggAAC5RYgxMvdP7QOAQQQQAABrQAhrqVhAgIIIIAAAuUWIMTL3T+0DgEEEEAAAa0AIa6lYQICCCCAAALlFiDEy90/tA4BBBBAAAGtACGupWECAggggAAC5RYgxMvdP7QOAQQQQAABrQAhrqVhAgIIIIAAAuUWIMTL3T+0DgEEEEAAAa0AIa6lYQICCCCAAALlFiDEy90/tA4BBBBAAAGtACGupWECAggggAAC5RYgxMvdP7QOAQQQQAABrQAhrqVhAgIIIIAAAuUWIMTL3T+0DgEEEEAAAa0AIa6lKXZCq9US/h+eQdzeHYU+wCJ9nVXRMO428b5iBQjxYv21ax+F8ChyG7XwoQlFtjGvdYc2Wfs0r/aYuB4tWmiCSdsWajpPSypAiJe0Y0za2U1sa9xuN3HbkrYZC87Eo2ombl3wvmIFCPFi/bVrj9qpeC39YKsMtfChCer9VX4MbbL2aZUN0m6bFi00Ie168pw/1HSellSAEC9px+S5s47iuuJ2+yjYYJH+4LCKhnG3ifcVK0CIF+uvXfsohEeR26iFD00oso15rTu0ydqnebXHxPVo0UITTNq2UNN5WlIBQrykHWPSzm5iW+N2u4nblrTNWHAmHlUzceuC9xUrQIgX669de9ROxWvpB1tlqIUPTVDvr/JjaJO1T6tskHbbtGihCWnXk+f8oabztKQChHhJOybPnXUU1xW320fBBov0B4dVNIy7TbyvWAFCvFh/7dpHITyK3EYtfGhCkW3Ma92hTdY+zas9Jq5HixaaYNK2hZrO05IKEOIl7RiTdnYT2xq3203ctqRtxoIz8aiaiVsXvK9YAUK8WH/t2qN2Kl5LP9gqQy18aIJ6f5UfQ5usfVplg7TbpkULTUi7njznDzWdpyUVIMRL2jF57qyjuK643T4KNlikPzisomHcbeJ9xQoQ4sX6a9c+CuER2Ma9FZm0FmQzp3/4RQsfmhBoY05t067zwYJYF1dkP+N2hDZZ+1Tbrj7t2V+dFOvGZn7/oM+QnHptvxYtNKHXMso2LdR0npZUgBAvaceUbYceentGMcSfbsjSb7ek2ScEO/ZDCqe4u0CnHXHb676PEPeE+xk2/zwntVcXZavLeF9WLloyubqf28GQ12r+KrMAIV7S3um3s5s9fUsWXw2ddY9giDfuzErt7JJsdw3Ymsu7sUK8IfUrk7Kyp1lGxLri7gKD1hwh7gn3N9yV5fPdYd28N68J9/j93H/dwWV5reavMgsQ4iXtnaQ7nFHv/2pJxsOXzkcwxBP3WZwQ/64usxYhPoyPHXr1V9xhpNcy1LTmgwU5Yx/kNlWo2sFek9lPG7mdhdtt4T8zBAjxkvaT2qF7PTb+sigzZ4+LZVli1U7J+OV5qT9tSeMPM5GfnW59cEZq721Is2VfmpuU5Xt1mXvrlNTs+U+OycyHW9J4WpeFH7uv1U7J1If+y73t+Va+3JKly2Ny3F3v1M1NafjO8Jo7dVm4PC6napZYVk1OvTXntMvelsadufZ89rzu/wsPWtJyQ7z+aFlmz7e3qXZ6QuZWt93LzfbZe02c9/rW1WrYoTUhyztqwIv3GLfbe/l3ptnh+n5dtj6ckbGT/m1uyNbHszLhvGbJ8fOegzNvOJS/2ZRF2/XkKdeu3S/j/1Vvfw7uvn/zzwsydbrm+B0/OyOLf3EH9y+XZNwx92zjXH7N1OK7bVm5NtFuf+2UTFxbkfqvw5+JN2V7dU4m1Dacn5XlL9rb4NTu5bVAPdlWWzfPyJmbW26INWTzps/6xwud+op0bQXXF6wrt15s2xsbsvsHf7vmZOWrZqzgzNTQ2T+9s3HnEvv5Zdn1133Lb2BJoA6c923KgmV17S9JrorE3SbeV6wAIV6sv3btnYAI7Li+gHLCa1KWd9xBptmQ3Ufb7cGvuSHztXCw+UOw/fmadXZe6nvt+RtfLsmkE8pTsvzIDYX9NZmt1WT+nhrIfPM9dV+zg+e8JWMfqAHWDuQt2fiq4YZvU3Y/ngweVNgDZuSZeE3G/2tNtr9rb2dzZ0WmamOy9GX7+e7HE+5BiOfQ+HQ2uGydV+h1LXxoQt9+sJfrbE9Npj7aksb3LWl9vy/1a2eckB17ry77zhlVQ7Y+mBDLPxi7ody+Uc092/qDd7a1/evQ9trvrx2XyQ82peGepTXuLchYbVbqDdfEORgq6kzcvpRfk9rbK7Kr2vdgUSZP1gI3tu3/fkqOv70sW9+029x4tCxTql6jDsqcej4ji4/s9zdl65dj4rk2Zf/OvIzV5mVDnbkGXFtir6/mq/Xm3oYsvHVcplZ3vYD296GznKbs/n5Wzti2bjt71UKobLRPey0jMO3Ropyxt+m7LVk8698HPYNawHBFZs+OycIDta8S4tpOqNgEQrykHRrYoUMB5EzbX5Mpa1KWn7qDd+A9Tdl4rybjH/kGKXtQ6Nww0w7j4Fla+7XAPK2WbL7vnRG0QmcInTY6A07oM25/e8KXyp0BM/T+yPCxQ8G3/p1lmbDmvMG61ZC1y5bM+IKv0yb/+iP+jtvtsZbnhGtoe5xt9Le1Ja2noTvw7fd07ja3B91Q+NrTw6FfC62nZR+c+c64Ih2jasR7LTMLtybDn8dv3vCHuN3e8a4rJ3adnXEOBNu1O/GxV7vO58HKwQn5kGtrV1Z+ZHmXmwOu/oNXb5tb4Zq15+mybddXcD/xLcNXV5kZdpbZPiAae2Ncap0acdftHsCHnYNX4AjxuH1i+vsI8ZL2YJzw2P10TiZOHpexywuy8mA/eJdzILTdy5Gds+V2YAcvTUcFe0s2b/hC1A3x4HwtaV/S9gKo+bQuS1cmZdy+1H9yTMbfsC/P+8LHHjD9z+2BKxz07mAWXH8otL9ZkxnLdxbaGQCjB1q/adxu98+j/TsQGu6642xjYD77TPyMzN/zzsTtKxjtjz98ywwP6OE+KTLEo7a51ZLAJVynfd7lfvWRivOovob2YEFqb6rLx03ZuOarQWcd0fN3wtbvqvNobsic/6DJP4+vjuyPoOJ8PS7TelLrd+4dUVcgfDWtcW7tLPvuNSHE4/aJ6e8jxEvag9rAUDu4evy+KbsPlmXu/HGpvbEgm+6l6FZrV5bfVJ8hb8pCzX/2M8QQd86WJ2TxgbqcHhHQUYNQrBBvif35oDp7dcLhmv0Zv2+Ai/l33G6P1Q9RARBnG8PzPV2T2VftzzfHZfzsmPN5svpowWlH+P3Otob6UhdaPVwys4ja5sgQ9w74on3ts2c3vJyzzhlZU5e0NesILMfvpPMwIcR1bdcZEOJxS7lS7yPES9qdgUGpxwDsva8p9Xctmfq99z1S5zNk++zGPrNRlyOjBn7fa52zGXedwTPh6LN1/6VJJ1hDZ4tO8PrPvKMGoZgh3nI+H7VDwG5L+LPC+GEet9s93x7L9oeG6qs42xiaz3Yae39Tf1ASen+7bSUKcedyui9wXQv7pjTvbLZ9+X/2jvrsNtp196Nx50a2ffsmTf+BmhPq47L0VfR8jknAydTL6ergN+KAJ9bl9C1ZqPk+Zunsz/6PNnoYcnd63CGi8PcR4oV3QXQDYoWHCgz70bnBLBRq9uXm2rwsvF8L/UhEaOB3lhMd0N0hXpPaG7Oypm6o+2ZDFs76bmyzDxhqs7K23x4gmnt1mX+jFryc7p5hBD7Pjxvi7p3KkzcWZDL0GabzveuTc95NXn6f0N/R6t2vxuqHQGi4A6P9mv/AxV5/eBtD8239sibjv972brYKtdm5gS50gKTuU/A+4rCvugQvy/fbhu6tjn6l33JaLfdz3M7NfC2xb1qbibixrXZyxrmB0rmK0mzI/ld12fR/w8C+ovPqnMxdCdW0e2Nb7Q37mxjugcB3Ddl9sCFb6ua+kGv4xjZnX3mrJhP+e0bsedRNg/bNia2m7P52yqnlQm5s69RLRIgrA9+Nbc2dNZk9W5O5P6uDo4bU363JmWt12Xe3p30DoeU7oCLEoyvdrFcJ8ZL2V98Bc78uc+rrZZYlkV+babU/T7Ss8NlRmhC3ZP737lehIr9i1pStD6e8r5f9eFE29zdkPhBo/vccl8UvIgLODbDgQYQ76DiXDS3fV47arzsh7r9TOxyCvudxu71vP9jLDIWGM4/9WmCbI7YxNF/zi0UZ8331zrLs+x2WZEt9RBJ6f7tt3X3Zvlei/VW3mT94V2Z025KpRcRXzLbv2F/fCv7s6u6dBe/rkfZ2XrQPDP2h0r7/wercjBmc5nx1z/2KWvvrlYuyqQlxe7vt9amv5UXuK47tktQDX30r6itm7ra6B7vhG9ja/Rj6+qL/q4aqztVXFt39dOLamuze6+6LtHURt35433AECPHhuKZeqm7HSvr67m8nxbpS7/rebdLltN/fHRiDLcc/IA/y96bMWxE3/KjBK8Zj3A7Ka/uaXyzI2Hn7gEedSbWk2diXjffPSC0UgFm3qWwWWW9frOVFHiDFr80qGsbdJt5XrAAhXqy/du2xBp6+YdX+7rH3Pe/4g1L0+ssR4oGvHPU1iN5mLXxoQrRD9DLTvDfyikPLvZEvs4Ow6HaHNln7NM32lX5eQrzrYxxtITChVAKEeKm6w2tM+kHP/UzvbNQ/phA9mPdfZwlC3PkMPv1PUHrSvf/qbzKoZXA+5yZE+0dSnM8v29Oc+wnOpt/WftvQW8Cb2m85Rk8nxAlxr9SN+osQL2l3pRkQnTvErYif+RzwrNVrS5Eh3v7eq/35Z/CnYINh6LW19+txuz3u8tK/L/gzms7n4RdnZele/8+00667fBa9+y7t9kbOT4gT4nF3hJK9jxAvWYeo5kQONKlDuIDBsaRtVs79HkehH/oZqOmjYDHoNiqjfo+DLr+I+fptC9PLIUCIl6MfulpRxE47SuvsAte8MAommk3venkULAbdxi4szQuDLr+I+TSbwMslEyDES9YhqjlF7LSjtE7l3O9xFEz6Gajpo2Ax6DYqo36Pgy6/iPn6bQvTyyFAiJejH7paUcROO0rr7ALXvDAKJppN73p5FCwG3cYuLM0Lgy6/iPk0m8DLJRMgxEvWIao5Rey0o7RO5dzvcRRM+hmo6aNgMeg2KqN+j4Muv4j5+m0L08shQIiXox+6WlHETjtK6+wC17wwCiaaTe96eRQsBt3GLizNC4Muv4j5NJvAyyUTIMRL1iGqOUXstKO0TuXc73EUTPoZqOmjYDHoNiqjfo+DLr+I+fptC9PLIUCIl6MfulpRxE47SuvsAte8MAommk3venkULAbdxi4szQuDLr+I+TSbwMslEyDES9YhqjlF7LSjtE7l3O9xFEz6Gajpo2Ax6DYqo36Pgy6/iPn6bQvTyyFAiJejH2gFAggggAACiQUI8cRkzIAAAggggEA5BAjxcvQDrUAAAQQQQCCxACGemIwZEEAAAQQQKIcAIV6OfqAVCCCAAAIIJBYgxBOTMQMCCCCAAALlECDEy9EPtAIBBBBAAIHEAoR4YjJmQAABBBBAoBwChHg5+oFWIIAAAgggkFiAEE9MxgwIIIAAAgiUQ4AQL0c/0AoEEEAAAQQSCxDiicmYAQEEEEAAgXIIEOLl6AdagQACCCCAQGIBQjwxGTMggAACCCBQDgFCvBz9QCsQQAABBBBILECIJyZjBgQQQAABBMohQIiXox9oBQIIIIAAAokFCPHEZMyAAAIIIIBAOQQI8XL0A61AAAEEEEAgsQAhnpiMGRBAAAEEECiHACFejn6gFQgggAACCCQWIMQTkzEDAggggAAC5RAgxMvRD7QCAQQQQACBxAKEeGIyZkAAAQQQQKAcAoR4OfqBViCAAAIIIJBYwLIsS/gfA2qAGqAGqAFqwJwaUGlPiHMQw0EcNUANUAPUgGE1QIgb1mEcIZtzhExf0VfUADUw7BogxAlxjrypAWqAGqAGDK0BQtzQjhv20R3L5wyCGqAGqIHy1wAhTohzBE4NUAPUADVgaA0Q4oZ2HEfI5T9Cpo/oI2qAGhh2DRDihDhH4IbXwGvvLMr65zuy92xP9p48lPWb03LC8G0a9sDH8gnXqtQAIc5gR4gbWwMX5PaTQ7UPBx6PXtyX668wUFdloGY7qGVdDagdn++JGzuQU9y64q726yfk+ufRAa52ajm4L1eoaw5SqYFK14Da3wlxCr3ShV65QD+/Ls/V3tvjcec3J+hX9m1qoMI1oHZ/QrzCnVy5AKOv5MQncSJcRP73FgM49UINVLgGCPEKdy7hXd2PGvpeSld79terDODs49RAhWtA7eqciVe4kwnz6oU5IV69PmU/pU8HqQFCnPDmKN3AGiDEGfAHGfCZp3p1Q4gbOICzI1ZvR0zap4Q4NZC0Znh/NWuGECfEORM3sAYI8WoOyAQt/Zq0BghxAwfwpJ3M+80fGE785Jasf7Iu67+66vwaW9IQD89PTZhfE/QhfWjXgPqPG9sIc87IS1wDq1+7u+rhQ7luWf1/6EXt2e7d6eH5CQACgBqoRg2oXZ0QL/EAzs5WjZ0tTT+GQzjpmXh4/jRtYV7qkRooTw0Q4oQ3Z+AG1EA4hAnx8gyiBBp9UWQNEOIGDOBFFgjrLscAtfrM3VVf7sgty5Jz9Zi/2Pas/WMv4YMA+rUc/Uo/0A9pa4AQJ8Q5EzegBq5uqn/s5EDuv2OJ9d+P5UjtvT0eDzamxbKuy8PO7Pdl2oDtTTuwMT/hOCo1oHZ/PhNnYCPMy1wDvtA++OyKWNYFufut2n01j0c7csv+50h/9lBUhh9+fp1+LnM/0zbqM2ENqL2fEE8INypHeWxnWc5orsj9A3d3fflc1ictsSZvy45KZ7Unq8eXB/Lw5/a/YHZB1v+qXnTP4ql1goIaqEwNqL2bEKeoK1PUVT3wOPe7Pe8S+t8eynX7LPuVabn12Z4c/sO9uH50KAdP7srif9gBHvw3x4+erco56pw6pwYqVQOEOAVdqYKuaoC3t+uCrH7t+yT8cE/Wf/padP/94KqsP/Odph/tyap99k69Y0ANVKoGCHEKulIFXfmQeuW63H/hC3IROfrbc3n82Xr7F90+uS+Pv/WFt72HHx3IfefSOiFe+fpgPBu58YwQp+hHruiNH8jtS+iP1AfkaheOfjz69qHc4gycGmecq2wNqD2fz8Qp8soWufGhranN195ZlLtPDuTwpdqN3ceXR3L4Ykfu3px2fme9qtvPdnFlhRrgt9MJLk1AsHOYNUDyYy5m9Rf7F/2VVQ2oQ3jOxAkzDmiMqoHX5MLMtEy7/99VXyM7fCy3Oq9fknP2HexGbRftpb+ogSQ1QIgzwDHIG1gD03+K95m4uD+7mmRQ4L2ECDVgTg0Q4gYO4Oxg5uxgw+or72dY1S6seXT/KdJhtYPlUovUQLE1oPZ8LqcT5pyRm1QDP7gqtz9RXyvTPa66P/pS7CDDII8/NTC8GiDETRq4aSsHGtQANUANUAO+GiDEfRgcLQ7vaBFbbKkBaoAayL4GCHFCnKNaaoAaoAaoAUNrgBA3tOM4os3+iBZTTKkBasC0GiDECXGOwKkBaoAaoAYMrQFC3NCOM+1okfZyhkMNUAPUQPY1QIgT4hyBUwPUADVADRhaA50QV3/wiAACCCCAAAJmCXj/FIpZ7aa1CCCAAAIIjLwAIT7yJQAAAggggICpAoS4qT1HuxFAAAEERl6AEB/5EgAAAQQQQMBUAULc1J6j3QgggAACIy9AiI98CQCAAAIIIGCqACFuas/RbgQQQACBkRcgxEe+BABAre9OgAAAF7RJREFUAAEEEDBVgBA3tedoNwIIIIDAyAsQ4iNfAgAggAACCJgqQIib2nO0GwEEEEBg5AUI8ZEvAQAQQAABBEwVIMRN7TnajQACCCAw8gKE+MiXAAAIIIAAAqYKEOKm9hztRgABBBAYeQFCfORLAAAEEEAAAVMFCHFTe452I4AAAgiMvAAhPvIlAAACCCCAgKkChLipPUe7EUAAAQRGXsD6+9//LvyPATVADVAD1AA1YE4NqKMXzsSVBI8IIIAAAggYJkCIG9ZhNBcBBBBAAAElQIgrCR4RQAABBBAwTIAQN6zDaC4CCCCAAAJKgBBXEjwigAACCCBgmAAhbliH0VwEEEAAAQSUACGuJHhEAAEEEEDAMAFC3LAOo7kIIIAAAggoAUJcSfCIAAIIIICAYQKEuGEdRnMRQAABBBBQAoS4kuARAQQQQAABwwQIccM6jOYigAACCCCgBAhxJcEjAggggAAChgkQ4oZ1GM1FAAEEEEBACRDiSoJHBBBAAAEEDBMgxA3rMJqLAAIIIICAEiDElQSPCCCAAAIIGCZAiBvWYTQXAQQQQAABJUCIKwkeEUAAAQQQMEyAEDesw2guAggggAACSoAQVxI8IoAAAgggYJgAIW5Yh9FcBBBAAAEElAAhriR4RAABBBBAwDABQtywDqO5CCCAAAIIKAFCXEnwiAACCCCAgGEChLhhHUZzEUAAAQQQUAKEuJLgEQEEEEAAAcMECHHDOozmIoAAAgggoAQIcSXBIwIIIIAAAoYJEOKGdRjNRQABBBBAQAkQ4kqCRwQQQAABBAwTIMQN6zCaiwACCCCAgBIgxJUEjwgggAACCBgmQIgb1mE0FwEEEEAAASVAiCsJHhFAAAEEEDBMgBA3rMNoLgIIIIAAAkqAEFcSPCKAAAIIIGCYACFuWIfRXAQQQAABBJQAIa4keEQAAQQQQMAwAULcsA6juQgggAACCCgBQlxJ8IgAAggggIBhAoS4YR1GcxFAAAEEEFAChLiS4BEBBBBAAAHDBAhxwzqM5iKAAAIIIKAECHElwSMCCCCAAAKGCRDihnUYzUUAAQQQQEAJEOJKgkcEEEAAAQQMEyDEDeswmosAAggggIASIMSVBI8IIIAAAggYJkCIG9ZhNBcBBBBAAAElQIgrCR4RQAABBBAwTIAQN6zDaC4CCCCAAAJKgBBXEjwigAACCCBgmAAhbliH0VwEEEAAAQSUACGuJHhEAAEEEEDAMAFC3LAOo7kIIIAAAggoAUJcSfCIAAIIIICAYQKEuGEdRnMRQAABBBBQAoS4kuAxWuDFulyyLLGi/p/6YfTrliWLX0Yvrv3qY1mMWp792o+uygXdtB7r+89ZTRutH8qUbnm91nUu4+Vl3fapdTnoQXzwx0vavtFbXZL1Fz0WOmAt6NdX0b7pVVc3H/cAZhICyQUI8eRmzIEAAggggEApBAjxUnQDjUAAAQQQQCC5ACGe3Iw5EEAAAQQQKIUAIV6KbqARCCCAAAIIJBcgxJObMQcCCCCAAAKlECDES9ENNAIBBBBAAIHkAoR4cjPmQAABBBBAoBQChHgpuoFGIIAAAgggkFyAEE9uxhwIIIAAAgiUQoAQL0U30AgEEEAAAQSSCxDiyc2YAwEEEEAAgVIIEOKl6AYagQACCCCAQHIBQjy5GXMggAACCCBQCgFCvBTdQCMQQAABBBBILkCIJzdjDgQQQAABBEohQIiXohtoBAIIIIAAAskFCPHkZsyBAAIIIIBAKQQI8VJ0A41AAAEEEEAguQAhntyMORBAAAEEECiFACFeim6gEQgggAACCCQXIMSTmzEHAggggAACpRAgxEvRDTQCAQQQQACB5AKEeHIz5kAAAQQQQKAUAoR4KbqBRiCAAAIIIJBcgBBPbsYcCCCAAAIIlEKAEC9FN9AIBBBAAAEEkgsQ4snNmAMBBBBAAIFSCBDipegGGoEAAggggEByAUI8uRlzhARarZaM4v8hBu3TPGy0Kw9NyKMtJqwjxKJ9mvW2aFfEBAQGFCDEB4RjNk8g64HOlOV5Ar3/ymN7erfAm5pHW0xYhyfS+6+st6X32piKQHIBQjy5GXOEBLIe6ExZXohB+zSP7dGuPDQhj7aYsI4Qi/Zp1tuiXRETEBhQgBAfEI7ZPIGsBzpTlucJ9P4rj+3p3QJvah5tMWEdnkjvv7Lelt5rYyoCyQUI8eRmzBESyHqgM2V5IQbt0zy2R7vy0IQ82mLCOkIs2qdZb4t2RUxAYEABQnxAOGbzBLIe6ExZnifQ+688tqd3C7ypebTFhHV4Ir3/ynpbeq+NqQgkFyDEk5sxR0gg64HOlOWFGLRP89ge7cpDE/JoiwnrCLFon2a9LdoVMQGBAQUI8QHhmM0TyHqgM2V5nkDvv/LYnt4t8Kbm0RYT1uGJ9P4r623pvTamIpBcgBBPbsYcIYGsBzpTlhdi0D7NY3u0Kw9NyKMtJqwjxKJ9mvW2aFfEBAQGFCDEB4RjNk8g64HOlOV5Ar3/ymN7erfAm5pHW0xYhyfS+6+st6X32piKQHIBQjy5GXOEBLIe6ExZXohB+zSP7dGuPDQhj7aYsI4Qi/Zp1tuiXRETEBhQgBAfEI7ZPIGsBzpTlucJ9P4rj+3p3QJvah5tMWEdnkjvv7Lelt5rYyoCyQUI8eRmzBESyHqgM2V5IQbt0zy2R7vy0IQ82mLCOkIs2qdZb4t2RUxAYEABQnxAOGbzBLIe6Ipd3qYsWJOystf/H3XxBHr/lcf29G6BNzWPtiRdx/7qpFg3NnP9R3Q8kd5/Jd2Wfu/vvTamIpBcgBBPbsYcIYF+A5dZ0wnxvPvL+BDfW5FJa0E2Y/xrfqFdh6cIpBYgxFMTsoC8B/3hro8Qb3w6K5Or+7mdGRPijCEIDC5AiA9ux5yuwHBDtf9l7WzXP+oh3pT6uxYhnqS2ORNnLCxQgBAvEL8qq+4fok3ZXp2TidM1sSxLrJNjMnllWba+UwHdkM2bMzJ20hLLqsmpHy9I/ama1pLWgwXnM9PmVysy94a9jEn56DczYl1ek0boEubWzTNy5uaWexbZZ7mtljT+sigzZ4877Tp+dkYW/7Im84V8Jt6U3U8XZOaNU1KzjWqnZOJaXXZD26ezjltLuvnbr2/LkuNr94P7/8UV2XfaEOzD4+dnZfmLhne2bgfZxRXZfrQss+fbnrXTEzK3ui1N/zZ8ty0r1ybkVE1t44rUfx3+TDy4rqjlbN6wZOEvu7JxY6q9LOu4jF1elM1vfHXjX2/o72y83HUR4nE5ed8QBAjxIaCO2iJ7B0NLWo8W5cyr87KhBtjv9mX7y313cG/K1i/HZOy9uuw37UGxKft35mWsNi8bznM3xM9PyOTFBdl42pBGoyHNRl1mrQlZ3vEN2s0Nma+dkcVH7eX0Xe6jRRmzxmThnhtGzV1Ze3dcarVibmzbf7Qh298028HY3JXli/HPiOPWXN++au3LSsR6938/JcffXpYttw8bj5Zlqubzd4KsJuP/teJ7z5JMWmOy9KXqo4bUr9Sk9vaK7Lp923iwKJMna4Eb2+x11c7OS32vbdHc25CFt47L1Opu56DBDvHayUlZuOfWUXNf6tfOSO3deteBXdQ2Z+fVkhYhHpeT9w1BgBAfAuqoLTJqkAy89sWC1OwQb6jB3PfohPGcF9jOGdOurPzIktlP3XC1z8StGVlTBwHOe5qy8V5NJj72BvbmvXmpnV9un73GWO7WL2tSC98V7QzIxYR4wKzVkiSfFcetufA6up9HhfiWLL46HjxgarVk831LznzgXvWIdLND23cgsr8mUxFXOTZv+EPcXldNFh74asTub/tAsObdPOaEeLjv7PdkfINZt0+oXXbbCPG45cf7hiBAiA8BddQW2X+ga8rWh1Ny6uQpmbiyJPWvfJdhnYD2Xb5Vl3Et3+Bvv6dzWdc3iD5YkNqbbmi3mrJxLTSPb1mdy8Od5UaFlb3soj4Tb8runSWZvTjufKxw/Oy4jNsfP4SDyjmA8Rm4z+PWXP++inBxQiq6jzrt0wSZHbadm+ScvvaCWLUlcLASeTDQklZzQ+Z8BwCB5SoTTRvUevyP2XkR4nEted9wBAjx4biO1FL9g2PPv5sN2b6zKFOna3L88lr7jFkzsAeWowvxln3W5l4+d868fWfrfZcbEVZOGBQT4rsfT4h13v5M172cXqYzcV2wqvC0HzUBGghbTZ8Q4iM1XLCxGQsQ4hmDjuLiAoHrH9i1f2/L0ps1WfiiJS0nfMdl6avus8vOcrUh3pLdj8adG9n2/zAj1rUN7yaqGMu1L6d7N8G56/9mTWZ8Z3ydNkRsS9y+7rWM9rSoA4r2lYXOmW7E+v3LHW5b7IMlS2bveAcY/nU7f8cJcedyuu9Ay90m+2ZEbzvjX07vnOErG00butraasXl6nwGH7WMzmtDWG/sBvLGkRcgxEe+BNIDdAYzNZj2eWzurcls56ao9o1ttTfmpf7UDYnvGrL7YEO21GfoPUK8tbMsE6/OydyVmszf84dMjOXaN7bVpmT5kbqxbV/q7xVzY5v9uXDtyprsf28fTLRv7huvFXE5vSV2W868vxG4Qcy52ezkjGPl3G3ebMj+V3XZVDcWaoIscCbeat/Y5t3E2BL7BrmZPje2tb7ZlMW3ajLxkXf/Q3C57gGYpg1R9Rm36qPm7XptCOuN2z7ehwAhTg2kFuga1MIh/sVS+/Nd9zPq9le5fJ+Ltxqy9fGs9xW02ikZt78uFCfEWw1Zu2yJ9eqibIXX22+5kV8x25KViwXc2Pbdliz92Pt62dTNTdm/N+87Q+1xpSLrM8undZlTXxO7vOZ+xawlu3cWOl/Hs+yvdF2clbVEId6SVsRXzLbvtL9C6K8je132xy72vQy6r5hxJp5612UBFRAgxCvQiUVvgn/wHaW/47rnYVKmtuSxvWnXUZRX3PXyPgTiChDicaV4n1Yg7YBq6vxakNCEPLYvtErt0zzaYsI6tEChCVlvS2jxPEUgtQAhnpqQBWQ90JmyvLg9n8f2lKkteWxv2nUU5RV3vbwPgbgChHhcKd6nFUg7oJo6vxYkNCGP7QutUvs0j7aYsA4tUGhC1tsSWjxPEUgtQIinJmQBWQ90piwvbs/nsT1lakse25t2HUV5xV0v70MgrgAhHleK92kF0g6ops6vBQlNyGP7QqvUPs2jLSasQwsUmpD1toQWz1MEUgsQ4qkJWUDWA50py4vb83lsT5naksf2pl1HUV5x18v7EIgrQIjHleJ9WoG0A6qp82tBQhPy2L7QKrVP82iLCevQAoUmZL0tocXzFIHUAoR4akIWkPVAZ8ry4vZ8HttTprbksb1p11GUV9z18j4E4goQ4nGleJ9WIO2Aaur8WpDQhDy2L7RK7dM82mLCOrRAoQlZb0to8TxFILUAIZ6akAVkPdCZsry4PZ/H9pSpLXlsb9p1FOUVd728D4G4AoR4XCnepxVIO6CaOr8WJDQhj+0LrVL7NI+2mLAOLVBoQtbbElo8TxFILUCIpyZkAVkPdKYsL27P57E9ZWpLHtubdh1FecVdL+9DIK4AIR5XivchgAACCCBQMgFCvGQdQnMQQAABBBCIK0CIx5XifQgggAACCJRMgBAvWYfQHAQQQAABBOIKEOJxpXgfAggggAACJRMgxEvWITQHAQQQQACBuAKEeFwp3ocAAggggEDJBAjxknUIzUEAAQQQQCCuACEeV4r3IYAAAgggUDIBQrxkHUJzEEAAAQQQiCtAiMeV4n0IIIAAAgiUTIAQL1mH0BwEEEAAAQTiChDicaV4HwIIIIAAAiUTIMRL1iE0BwEEEEAAgbgChHhcKd6HAAIIIIBAyQQI8ZJ1CM1BAAEEEEAgrgAhHleK9yGAAAIIIFAyAUK8ZB1CcxBAAAEEEIgrQIjHleJ9CCCAAAIIlEyAEC9Zh9AcBBBAAAEE4goQ4nGleB8CCCCAAAIlEyDES9YhNAcBBBBAAIG4AoR4XCnehwACCCCAQMkECPGSdQjNQQABBBBAIK4AIR5XivchgAACCCBQMgHLsizhfwyoAWqAGqAGqAFzakAdSxDiHMRwEEcNUAPUADVgWA0Q4oZ1GEfI5hwh01f0FTVADQy7BghxQpwjb2qAGqAGqAFDa4AQN7Tjhn10x/I5g6AGqAFqoPw1QIgT4hyBUwPUADVADRhaA4S4oR3HEXL5j5DpI/qIGqAGhl0DhDghzhG44TXw2juLsv75juw925O9Jw9l/ea0nDB8m4Y98LF8wrUqNUCIM9gR4sbWwAW5/eRQ7cOBx6MX9+X6KwzUVRmo2Q5qWVcDasfne+LGDuQUt664q/36Cbn+eXSAq51aDu7LFeqag1RqoNI1oPZ3QpxCr3ShVy7Qz6/Lc7X39njc+c0J+pV9mxqocA2o3Z8Qr3AnVy7A6Cs58UmcCBeR/73FAE69UAMVrgFCvMKdS3hX96OGvpfS1Z799SoDOPs4NVDhGlC7OmfiFe5kwrx6YU6IV69P2U/p00FqgBAnvDlKN7AGCHEG/EEGfOapXt0Q4gYO4OyI1dsRk/YpIU4NJK0Z3l/NmiHECXHOxA2sAUK8mgMyQUu/Jq0BQtzAATxpJ/N+8weGEz+5JeufrMv6r646v8aWNMTD81MT5tcEfUgf2jWg/uPGNsKcM/IS18Dq1+6uevhQrltW/x96UXu2e3d6eH4CgACgBqpRA2pXJ8RLPICzs1VjZ0vTj+EQTnomHp4/TVuYl3qkBspTA4Q44c0ZuAE1EA5hQrw8gyiBRl8UWQOEuAEDeJEFwrrLMUCtPnN31Zc7csuy5Fw95i+2PWv/2Ev4IIB+LUe/0g/0Q9oaIMQJcc7EDaiBq5vqHzs5kPvvWGL992M5Untvj8eDjWmxrOvysDP7fZk2YHvTDmzMTziOSg2o3Z/PxBnYCPMy14AvtA8+uyKWdUHufqt2X83j0Y7csv850p89FJXhh59fp5/L3M+0jfpMWANq7yfEE8KNylEe21mWM5orcv/A3V1fPpf1SUusyduyo9JZ7cnq8eWBPPy5/S+YXZD1v6oX3bN4ap2goAYqUwNq7ybEKerKFHVVDzzO/W7Pu4T+t4dy3T7LfmVabn22J4f/cC+uHx3KwZO7svgfdoAH/83xo2erco46p86pgUrVACFOQVeqoKsa4O3tuiCrX/s+CT/ck/Wfvhbdfz+4KuvPfKfpR3uyap+9U+8YUAOVqgFCnIKuVEFXPqReuS73X/iCXESO/vZcHn+23v5Ft0/uy+NvfeFt7+FHB3LfubROiFe+PhjPRm48I8Qp+pEreuMHcvsS+iP1AbnahaMfj759KLc4A6fGGecqWwNqz+czcYq8skVufGhravO1dxbl7pMDOXypdmP38eWRHL7Ykbs3p53fWa/q9rNdXFmhBvjtdIJLExDsHGYNkPyYi1n9xf5Ff2VVA+oQnjNxwowDGqNq4DW5MDMt0+7/d9XXyA4fy63O65fknH0Hu1HbRXvpL2ogSQ0Q4gxwDPIG1sD0n+J9Ji7uz64mGRR4LyFCDZhTA4S4gQM4O5g5O9iw+sr7GVa1C2se3X+KdFjtYLnUIjVQbA2oPZ/L6YQ5Z+Qm1cAPrsrtT9TXynSPq+6PvhQ7yDDI408NDK8GCHGTBm7ayoEGNUANUAPUgK8GCHEfBkeLwztaxBZbaoAaoAayrwFCnBDnqJYaoAaoAWrA0BogxA3tOI5osz+ixRRTaoAaMK0GCHFCnCNwaoAaoAaoAUNrgBA3tONMO1qkvZzhUAPUADWQfQ0Q4oQ4R+DUADVADVADhtZAJ8TVHzwigAACCCCAgFkC3j+FYla7aS0CCCCAAAIjL0CIj3wJAIAAAgggYKoAIW5qz9FuBBBAAIGRFyDER74EAEAAAQQQMFWAEDe152g3AggggMDICxDiI18CACCAAAIImCpAiJvac7QbAQQQQGDkBQjxkS8BABBAAAEETBUgxE3tOdqNAAIIIDDyAoT4yJcAAAgggAACpgoQ4qb2HO1GAAEEEBh5AUJ85EsAAAQQQAABUwUIcVN7jnYjgAACCIy8ACE+8iUAAAIIIICAqQKEuKk9R7sRQAABBEZegBAf+RIAAAEEEEDAVIH/D8a/b9cIMqntAAAAAElFTkSuQmCC;" vertex="1" parent="1">
                    <mxGeometry x="60" y="530" width="311.08" height="430" as="geometry"/>
                </mxCell>
                <mxCell id="4" value="" style="shape=image;verticalLabelPosition=bottom;labelBackgroundColor=#ffffff;verticalAlign=top;aspect=fixed;imageAspect=0;image=data:image/png,iVBORw0KGgoAAAANSUhEUgAAAisAAAFiCAYAAAA3EZgRAAAgAElEQVR4Ae2deawcxb3vj550/4kuSJc/nq6loEjRTeAm8CIUJUQXWeEll53EcWJQQgJhCcHkxuSRxDY2i4038M5ywAtmMRgMGAg4bGEJxDiYxcbYLHZs8IJ3wPu+/p6+DTWpM646Z5aemZ7pz0jHU1PTXV31qV/3fKaqetw2adIk4w8GuYyBsVfamUe3WVtb4O8/e9k142Nx0W7Df3lCeL+2Njvhl8Ot/fPzqn3oJfbtLwTKb+tmp/zP8MK51379Jfbtfw1t12Yn/GJwobxJk9rtmp8eFz72v59sfW7sWOfhvU+2I0PtazvOfjao/bPjTxhtff67W7DMbv/dx0ZP+GeZ4/v2sC+Hyvu3k6z3iM/Lq/Ka0j7oAjshdIy2Njvyu7071Kdj3I63/j85NtiOtuN6Wf9Cf7bb4PMi/XfCz2zwLZ+1d3z/SFuP6WFXjnVM2m3wL79t/1Jc3/99eF+0X9PLji3eLnndzU7pM7oQCx3b5I7DM1zyHQNtBEC+AyDX/V8HWRn9P6dYt9AHVPGH+y3XWK/jwrLS7VRfGGogK5PabfivTrIvhOr5f35m13z+4S1R0gdzUO6O6+VtV905VbGstA+3S77zL8H6HX3GlTbel67+vcLS9aUzCyIyuk+4747sXiRMN/axk/+9uO+Os59d01HekJXq4iLX16oqvwC0AjtkhSDI7ze6mstKuw2/KPLhfvQ/PxSTC0nyQVv8gffZ6y90723D292FvhayMsnar/mZHReSFX+EYMJ4u/KMo4My8OWzOspANRfHimVlbH8788thhiec549OTbLoMf7123bJ0M8kY/zvz7SjQ0z+s4f1L4ysTLJJIUk68gT72cDxHc4tZMXFMM/VnB953RdZQVY6XFBzdSLUQVaiUzZBWQmPCrR955Kay8oksfhS6IP+WOvlPnSjQvUFO+lX/5zSqjaGoiLR1TRQcITjszb5U3OqX/v1F9gJ/yvS3s9HRDqrx7E/vNJGFwRyvPX/0WfTT1/+rx52yf8bbOML7/3zgxlZ+SeLamOE/fPHEllBVpCV4LfnNNastNvo/r3tkvN62SnfPclO+i/v74xLbHBhDUXk27mrl7eOoiZrVnQOtA+33t2PDIyaHGkn/fpzEYnK3eFTHtV8mHQmCZ2tWWkf0dtO+reQgBwuU1pLdNKRoW2/bD36fj4iMra/9fiP0Daf5R17Vh8b7ta3DL3GBo/uOO1TzABZyd8HbHEM8LryGEBWkBVkxUmB/5zSAttSLk7tN15jfX56ih0bXIjbZm31kBWtR/lFeNHpsT/qb+PdaITPyKX/o2hapMpzqmJZiS5mbrMTzulj1wwabIM//7umT6/wtFfb0Xbm7930jabcwkzcup2j/2+RdHbSdmSl8g+qUs4jtmltvh1kxZ2APMe/TcEGNsQAMUAMEAPEQHoxUIpoIivu2yHPgSmA9IKRExuWxAAxQAwQA6EYQFYQEASEGCAGiAFigBjIdAwgKwRopgM0ZNjk8c2LGCAGiIF8xQCygqwgK8QAMUAMEAPEQKZjAFkhQDMdoHx7yte3J/qb/iYGiIFQDCAryAqyQgwQA8QAMUAMZDoGkBUCNNMBGjJs8vjmRQwQA8RAvmIAWUFWkBVigBggBogBYiDTMYCsEKCZDlC+PeXr2xP9TX8TA8RAKAaQFWQFWSEGiAFigBggBjIdA8gKAZrpAA0ZNnl88yIGiAFiIF8xgKwgK8gKMUAMEAPEADGQ6RhAVgjQTAco357y9e2J/qa/iQFiIBQDyAqygqwQA8QAMUAMEAOZjgFkhQDNdICGDJs8vnkRA8QAMZCvGEBWkBVkhRggBogBYoAYyHQMICsEaKYDlG9P+fr2RH/T38QAMRCKAWQFWUFWiAFigBggBoiBimLgq1/9qr399tu2efNm6927d6GMI444wmbPnm07duywK664opAfEpFS8pAVArTqICol0NiGb0vEADFADLRmDFx88cW2adMmW7BggX3ta19LPlPGjh1re/bssWnTpqXyGdMQWXnhhRdMD1mX7MsP4CFDhtjevXuTP6X99xqVvuSSS+ytt96ynTt3JvXWP0q/8cYbds4551RcR8dh27Ztdv7551dcTqO4cNzWvPDQr/QrMUAMlBsD7e3tyef21KlTrWfPnrZhw4YO8lJuecXbN1RWtm/fbr/5zW86fEhnTVYGDhxokonYo3joqxhwZ6+RFS4IncUH7xEfxAAx0Cwx4KZ99Jm4aNGiw6aFqm1HQ2VFAvDkk09mVlY0F7d48eLEU/bv329/+tOf7Kyzzkr+nnjiCTtw4EDynrbRtuV2huBr2GzOnDlJmeXuz/ZcyIgBYoAYIAayEgNnnHGGrVmzJvlsvPPOO8v+TOysHQ2XlfXr15sa6CqZpZGV3/72t8niIBmJpoH8KSul33333URWtIBI27o28MzFgxggBogBYiBvMaCFtPo8PHTokD3//PMdPjOrZdFwWTl48KBNmDCh8EGfJVnRHJzqp4dGUophu2kcjbqMGTPmsPeLt+c1Fy9igBggBoiBVowBLaxdsmRJMrLy9NNP265du2z48OGpfS42XFYkAsuWLbPvfOc7SaNisqKRDK0q3rp1a2JtMreNGzfa+PHjCzAefPDBRCzee++9Qp4rb8uWLXbeeecl+T/4wQ+SxT9ayDts2LDCtsUBNGXKlKQ8/aN08ftOVvz3XZ7K1rG1jxbPunUvet+V47b1F9j6xywc/PNEqA6uLJ65ABIDxAAxQAw0KgZmzpyZ3P0zYsSI5I4gicuqVas6zJxUU7eGyorMSx/q+/btsxtvvDH5EHdy4X/Yq4Ga/3JrRDSS4dK7d++2wYMHJ/u6kZDVq1fb9773vSTvnnvuST7qdQvVddddl+TpNist7tWf0jGAvjiERMHJRj1kxWcUqy/5XKiIAWKAGCAG6h0D+gzW57k/9eOmhF588cVUpoMaKitaiPP+++8nMuHWhIRk5Vvf+pYtX7482e6jjz5KROQnP/mJffzxx0ne3//+90Q4+vXrlwDzR1H++te/JtvoHycc7hhr1661U045JVOy4geZv8DXFzB/G9JcmIgBYoAYIAYaFQNac6oRlNAoykMPPZQMSOg3V6qtX0NlRR/At99+ezKy4m5jdiLhj6zEplE03aOHREZCo9880dSQDE/iog/7pUuXFmTFTcG4ERPdXuUvmi2G6bbzRcffphYjK375AwYMMI0c6VF815S/HWkuVMQAMUAMEAOtHAMNlxWtH3G3B+sDOSQrmr7RNI4eTjjUKU5W3KiDG4FxC17d2hSJkOTHyclf/vKXpCyNunTWuY2WlVmzZiX1dCLXWV15jwsVMUAMEAPEQKvGQMNlRWtLdDeQ7rrRz/XecccdiVj4IytOYLqSFXXSwoULkw94rVVxtx5/+OGHpikfN+0zb968wjaddWwjZUWLgcVDDzdF1lldeY+LFDFADBADxECrxkAmZEVzXvq9Fd3hM3fu3E5lJfn0LvrHjayok9yoiUZg3IJb5UliNEJx+eWXJ1NDkqHO7gRSWY2UlQceeCDhwcJaLj6tevGhXcQ2MUAMlBoDmZAVVVZTQHpoCkejLLGRFf1/QlrD4v9psa1be6IGSXo0RaTfRlFZkhYJi8qePHlyMsIicensTiDVqVGyotu4V6xYkfDwRazUTmU7LgDEADFADBADrRQDmZEVf9pDn9IxWfHXrIQ6wq1v0cpk/cKsW2zrRlm0v37XxE0JhcpweY2SFd3GrREVPVhYywXHxSPPxAIxQAzkNQYyIyvqALegtFhWnIAo35cV/a/HEg8t0O3evXuyWFbSo1uXNXKiNR/6nx+10NatX9Ht0hIht9i2s47Xr9JqNEYPjcwUb6u66OFPKfl5WmujfWJ3M7lt/R+F0wiR1qjowcJaLkzFMcdrYoIYIAbyGAOZkhX/Vl1/ZCX2YV98N5A6UAt2NXWiqSBNATkp0e+paDRFeXqvqzuBVJYTHImDRmncVJPe838DRb+qe+GFFyZi4gSklPq7bX1Z0f9CLUnRg4W1XJTyeFGizcQ9MUAMFMdApmTFFwD/w97dkqwPcP1uitZ09OzZMxk1CYmEkxi956REoiFxcQ/9NH8xjOLXfn30i7n6/w60zkV/+lU+9yu6vlS4Bb6SIt3ZpLr620pQ3HFCsuLW7rCwlpPVxQnPxAIxQAzkPQYyJSvqDP3SnT6ofVlRfvHP7bvpGW1b/Ot4TgI0gqIGuk52IqF9S/2PB3v37m2bN292jnPYs97TNu4Ybm2Mv6H+F0q3BqUrWfFFyy+jmIc7Hs9cxIgBYoAYIAZaPQYyJyvuTpjiD2eNjIT+I8Nbbrmlw/SMOswtjPX/PyDlq7ESGMmDpnhK7Vz9Mq7Wx+zcudP3B/vggw/stNNO61CO/ufJt99+OzmOfn1W/1eCjqWpHj2QFS4qpcYd2xErxAAxQAx8FgMNkZVmh6//VVIyJRkZOXJkB1lp9rZRfy6OxAAxQAwQA1mLAWSlrfyg1CiPRkw0SiNpcf9jdNY6l/qU37cwgxkxQAwQA9mLAWSlAllRILvpHk01dfVLuAR+9gKfPqFPiAFigBhonhhAViqUFQX5F7/4Rbv33nuTO5MI+uYJevqKviIGiAFioLliAFmpQlYI9uYKdvqL/iIGiAFioDljAFlBVlggTAwQA8QAMUAMZDoGkBUCNNMByreg5vwWRL/Rb8QAMZBmDCAryAqyQgwQA8QAMUAMZDoGkBUCNNMBmqaZUxbf9IgBYoAYaM4YQFaQFWSFGCAGiAFigBjIdAwgKwRopgOUb0HN+S2IfqPfiAFiIM0YQFaQFWSFGCAGiAFigBjIdAwgKwRopgM0TTOnLL7pEQPEADHQnDGArCAryAoxQAwQA8QAMZDpGEBWCNBMByjfgprzWxD9Rr8RA8RAmjGArCAryAoxQAwQA8QAMZDpGEBWCNBMB2iaZk5ZfNMjBogBYqA5Y6BsWTEeEIAABCAAAQhAoI4EkJU6wuZQEIAABCAAAQiUTwBZKZ8Ze0AAAhCAAAQgUEcCyEodYXMoCEAAAhCAAATKJ4CslM+MPSAAAQhAAAIQqCMBZKWOsDkUBCAAAQhAAALlE0BWymfGHhCAAAQgAAEI1JEAslJH2BwKAhCAAAQgAIHyCSAr5TNjDwhAAAIQgAAE6kgAWakjbA4FAQhAAAIQgED5BJCV8pmxBwQgAAEIQAACdSSArNQRNoeCAAQgAAEIQKB8AshK+czYAwIQgAAEIACBOhJAVuoIm0NBAAIQgAAEIFA+AWSlfGbsAQEIQAACEIBAHQkgK3WEzaEgAAEIQAACECifALJSPjP2gAAEIAABCECgjgSQlTrC5lAQgAAEIAABCJRPAFkpnxl7QAACEIAABCBQRwLISh1hcygIQAACEIAABMonkGtZmT17tl122WW2a9eu8smxBwQgAAEIQAACdSFQV1k5dOiQDR061EaMGNGhcVu2bLFevXrZtddeawcOHCi8t3fvXrvyyitt4sSJhbw0E8hKmjQpCwIQgAAEIFAbAnWVFTXhueees/PPP9+2bdtWaNGCBQvs+OOPt7POOss++eSTQr7SPXr0sLlz5xby0kwgK2nSpCwIQAACEIBAbQiUJCsDBw4091dtNRYvXmynn366LV26tFDUtGnTrE+fPnbhhRd2EBNJigTm448/LmybZgJZSZMmZUEAAhCAAARqQ8A5SGfPbb7RVFsNjahoZEUjLHq4qZ4nnnjCxo0bl/y5Y0hiNA2kbfTYv3+/TZ8+3U488URra2tLnvVa+e4xZMgQe/nll+2BBx6wY445prAmRetSbr755iTvqKOOsksvvdRUPmtWHDmeIQABCEAAAtkk4HtILJ2qrAiDpMStW1mzZo2de+65tmzZMtNIxwUXXJBMETmJkVC4h8Tk7LPPtiVLltjBgwftww8/tJ///Od2//33m9bD6CFZ+dGPfmRjxoyx9evXm9bDaNubbropmVJauXJlsu17771nZ555pvXu3ZsFtg4wzxCAAAQgAIEMEogJip+fuqz461YkKE4Y1q5dm4iLpoq0XkWLbrWeRQ9JxznnnJMIjc/x9ddfTyTErXWRrFxxxRW2Z8+ewmabNm2yH/7wh4fty8hKAREJCEAAAhCAQGYJ+FISS6cuKytWrEgEQ+tWNMri7vbRnUADBgywRx99NFm7osW1TkIkMKeeeqrp2X9oZObHP/5xIV+y4o/GaNvYvqxZ8UmShgAEIAABCGSTQExQ/PzUZWXnzp32q1/9ymbMmGEXX3xxh0W1WruidSp33nlnIi7uVuaYcCAr2QwsagUBCEAAAhBIi4AvJbF06rKiymtE5fLLL7df/OIXhdET5UtKtIZFa1ckLu5RzjRQ8ciKpoF69uxpmjLyHxrBYYGtT4Q0BCAAAQhAIHsEYoLi59dEVjQF061bt+SWaDd6Ijw7duxIbmH+yle+Uliv4rD5C2y1oHbVqlXJnUWTJ0/usMC2WFa0rRbY6g4grYvRay3S1TSTWy/jjsEzBCAAAQhAAALZIuBLSSxdE1nR9M3JJ5/cYfTEodEaFi2u1WiK/9BdPTNnzrTu3bt3eutysayojNCty1ro27dvX+4G8iGThgAEIAABCGSMQExQ/PyayErGOFAdCEAAAhCAAAQySsCXklgaWclo51EtCEAAAhCAQB4IxATFz0dW8hAJtBECEIAABCCQUQK+lMTSyEpGO49qQQACEIAABPJAICYofj6ykodIoI0QgAAEIACBjBLwpSSWRlYy2nlUCwIQgAAEIJAHAjFB8fORlTxEAm2EAAQgAAEIZJSALyWxNLKS0c6jWhCAAAQgAIE8EIgJip+PrOQhEmgjBCAAAQhAIKMEfCmJpZGVjHYe1YIABCAAAQjkgUBMUPx8ZCUPkUAbIQABCEAAAhkl4EtJLI2sZLTzqBYEIAABCEAgDwRiguLnIyt5iATaCAEIQAACEMgoAV9KYmlkJaOdR7UgAAEIQAACeSAQExQ/H1nJQyTQRghAAAIQgEBGCfhSEksjKxntPKoFAQhAAAIQyAOBmKD4+chKHiKBNkIAAhCAAAQySsCXklgaWclo51EtCEAAAhCAQB4IxATFz0dW8hAJtBECEIAABCCQUQK+lMTSyEpGO49qQQACEIAABPJAICYofn6qsjJ37lzjDwbEQLZioPhiR/9kq3/oD/pDMZDnhy8lsXTqspJn4LQdAlkjELoIhvKyVm/qA4E8Ecj7ORkTFD8fWcnTGUFbc0cgdBEM5eUODA2GQIYI5P2c9KUklkZWMhSwVAUCaRMIXQRDeWkfl/IgAIHSCeT9nIwJip+PrJQeT2wJgaYjELoIhvKarmFUGAItRCDv56QvJbE0stJCAU9TIFBMIHQRDOUV78drCECgfgTyfk7GBMXPR1bqF48cCQJ1JxC6CIby6l4xDggBCBQI5P2c9KUklkZWCuFCAgKtRyB0EQzltV7LaREEmodA3s/JmKD4+chK88QzNYVA2QRCF8FQXtkFswMEIJAagbyfk76UxNLISmrhRkEQyB6B0EUwlJe9mlMjCOSHQN7PyZig+PnISn7OB1qaQwKhi2AoL4doaDIEMkMg7+ekLyWxNLKSmXClIhBIn0DoIhjKS//IlAgBCJRKIO/nZExQ/HxkpdRoYjsINCGB0EUwlNeETaPKEGgZAnk/J30piaWRlZYJdxoCgcMJhC6CobzD9yQHAhCoF4G8n5MxQfHzkZV6RSPHgUADCIQugqG8BlSNQ0IAAp8TyPs56UtJLI2scLpAoIUJhC6CobwWRkDTIJB5Ank/J2OC4ucjK5kPYyoIgcoJhC6CobzKj8CeEIBAtQTyfk76UhJLIyvVRhn7QyDDBEIXwVBehptA1SDQ8gTyfk7GBMXPR1Za/jSggXkmELoIhvLyzIi2Q6DRBPJ+TvpSEksjK42OUo4PgRoSCF0EQ3k1rAJFQwACXRDI+zkZExQ/H1npIoh4GwLNTCB0EQzlNXMbqTsEmp1A3s9JX0piaWSl2aOc+kOgEwKhi2Aor5MieAsCEKgxgbyfkzFB8fORlRoHIcVDoJEEQhfBUF6j6rhy5UobO3asbdmypewqLFy40G677TbbvXt32fuyAwSyRCBL52QjuPhSEks3RFaef/55mzZtWgcmu3btsgkTJthTTz1lBw4c6PAeLyAAgcoIhC6CobxQ6TpH+/bte9ifJCGtR7GsbN682XR90PWgqwey0hUh3m8WAqWek83SnnLrGRMUPz8TsqILkyr14IMPIirl9jLbQ6ATAqGLYCgvVIRk5cknn0xGPTTy4f727dsX2ryivGJZWbJkiY0YMcLWr1/fZXnISpeI2KBJCJR6TjZJc8qupi8lsXTDZUWjKJIUjaqU8m2qbArsAIEcEwhdBEN5IUSSFY1y1PJRLCvlHAtZKYcW22aZQKnnZJbbUE3dYoLi5zdUVg4dOpRcDGOiom9Zo0ePtn79+tmAAQPsnnvusa1btxaY6GKlC6q2u+GGG+zaa681Xfz00Dez9vZ269+/f7KvhGjnzp2FfZcvX2633npr8p7K13FWrVpVeN+V/eqrr9r111+fDIUPGzbM5s2bZ6o3Dwg0A4HQRTCUF2pLV7JSyjmiLyMvvviiDR48ODk/Na2k803n1KJFi5Lz1V+zUiwv/nms/TTqMnv27KS6Or7O8ZdeeolzNNSB5DUNgVLPyaZpUJkV9aUklm6orOgiduONN9qnn356WNM++ugjGzp0aHJh0gVvx44d9vDDD3cYgdHFShc9LbLTRU4io201760LoC5qbt97773Xpk6dWphm+uSTT0zCovf198wzz3RYrKeyr7rqKpsxY0ZybG3zyiuv2PDhw0saoj6sQWRAoAEEQhfBUF6oaqXISlfniI41bty45JzUMdatW2cjR460ZcuWJYcslhP/taabJk+enJyb7jxdu3ZtoSx3jj722GPJqOzBgwftzTffLHkaKdRm8iDQCAKlnpONqFs9jhkTFD+/YbKiUZBBgwYl37aWLl16GI9HHnnE7r///g6jGJIRjYDoIqWHnlXGmjVrOuwvqbj77rsLYqI3V6xYkYy+6GIZevgXSb2vsvUtTuLjHtu3b+9wfJfPMwSySiB0EQzlheovWSleYCtZd3fulHKOFC+m1507+nLh6lB83vmv9+zZk3w5efbZZ00iUvwo5fjF+/AaAlkk4M6HLNatHnXypSSWbpisaORj06ZNyQI+ja5s3LixwMRd0Irny/XtShLi8nWxCt26GLrI6qLrTxPponjHHXckw9MDBw5MRmgkJ/6FuLhsVy8dlwcEmoFA6CIYygu1pZSRla7OER1LUzVuCnbDhg3JqGcpIyuqk6ZmR40aZZqC1XmvEVb3CJ3/nKOODs/NRKDUc7KZ2lROXWOC4uc3TFZ0IdTD3bLs3wnkLjhOSlyjy5EVV77b13/WhVLTR2+99VZh9MX/RqdtuRD6xEg3K4HQRTCUF2pfGrKic1bTNFpzpmldfSHw130Vn3fFr1UvjaqsXr3a7rrrruQLx/z585Pqco6Geo28ZiRQ6jnZjG0rpc6+lMTSDZcVNUTrU7QA7/XXXy+0q9RpoOJvdipA00CaJ/e/hRUKNku+oRXv98YbbyTrURhZ8UmRbnYCoYtgKC/UzjRkRefgxIkTk/VhoWMUy0nx6+J95syZk0wNaYoIWSmmw+tmJVDqOdms7euq3jFB8fMzIStqiL5tDRkyJBEXvS5eYKuL06OPPmo333xzQUJCFyvtq3UmWtuii63Wueibmaac3nnnHdOiPe3njqU7ezTUrKkopoG6CinebzYCoYtgKC/ULp0/nf3OSuj8c6Oiek8PN42j6Z/Qo1hOil/7+7hrgFsoX8rx/f1JQyCrBEo9J7Na/2rr5UtJLJ0ZWdFwcfHvrUhYbrrppk5vXS4eIXHQdIfRlClTkuFnrVe57rrr7PHHH09kRceaOXNm4bblW265xRYvXpzMrTOy4gjy3AoEQhfBUF6orZKV4gW2eu1EpBRZkGDo4uOXo0Xxs2bNShbPF8uJ/1r7ao2afn5A+xf/fEEpxw+1izwIZI1Aqedk1uqdVn1iguLnN0RW0mog5UAAAp0TCF0EQ3mdl1LZuxpl0a3HL7zwQuH/71Gefl9FdxVJTHhAAAJWuDsuryx8KYmlkZW8RgftzgWBkJiE8moBwx8l8cvXnUEazZS08IAABJCVmKD4+cgKZwoEWphASExCebVAoB9e1C9L+3f/aGpH62DGjBlj27Ztq8VhKRMCTUegXudkVsH4UhJLIytZ7T3qBYEUCIQugqG8FA4VLML/LzO07kRrx6ZPn54seA/uQCYEckignudkFvHGBMXPR1ay2HPUCQIpEQhdBEN5KR2OYiAAgQoI5P2c9KUklkZWKggsdoFAsxAIXQRDec3SHuoJgVYkkPdzMiYofj6y0oqRT5sg8DmB0EUwlAcwCECgcQTyfk76UhJLIyuNi0+ODIGaEwhdBEN5Na8IB4AABKIE8n5OxgTFz0dWouHDGxBofgKhi2Aor/lbSgsg0LwE8n5O+lISSyMrzRvf1BwCXRIIXQRDeV0WxAYQgEDNCOT9nIwJip+PrNQs/CgYAo0nELoIhvIaX1NqAIH8Esj7OelLSSyNrOT3/KDlOSAQugiG8nKAgiZCILME8n5OxgTFz0dWMhu+VAwC1RMIXQRDedUfiRIgAIFKCeT9nPSlJJZGViqNLvaDQBMQCF0EQ3lN0BSqCIGWJZD3czImKH4+stKy4U/DIBD+D9LyfmEkLiCQNQJ5Pyd9KYmlkZWsRS31gUCKBEIXwVBeioekKAhAoEwCeT8nY4Li5yMrZQYVm0OgmQiELoKhvGZqE3WFQKsRyPs56UtJLI2stFrU0x4IeARCF8FQnrcLSQhAoM4E8n5OxgTFz0dW6hyUHA4C9SQQugiG8upZJ44FAQh0JJD3c0kPT3kAABhcSURBVNKXklgaWekYM7yCQEsRCF0EQ3kt1WgaA4EmI5D3czImKH4+stJkQU11IVAOgdBFMJRXTplsCwEIpEsg7+ekLyWxdOqyIuj8wYAYyE4MFF9W6Zvs9A19QV+4GCg+T/P0OiYofn6qspInuLQVAhCAAAQgAIHqCfhSEksjK9VzpgQIQAACEIAABCokEBMUPx9ZqRAuu0EAAhCAAAQgUD0BX0piaWSles6UAAEIQAACEIBAhQRiguLnIysVwmU3CEAAAhCAAASqJ+BLSSyNrFTPmRIgAAEIQAACEKiQQExQ/HxkpUK47AYBCEAAAhCAQPUEfCmJpZGV6jlTAgQgAAEIQAACFRKICYqfj6xUCJfdIAABCEAAAhConoAvJbE0slI9Z0qAAAQgAAEIQKBCAjFB8fORlQrhshsEIAABCEAAAtUT8KUklkZWqudMCRCAAAQgAAEIVEggJih+PrJSIVx2gwAEIAABCECgegK+lMTSyEr1nCkBAhCAAAQgAIEKCcQExc9HViqEy24QgAAEIAABCFRPwJeSWBpZqZ4zJUAAAhCAAAQgUCGBmKD4+chKhXDZDQIQgAAEIACB6gn4UhJLIyvVc6YECEAAAhCAAAQqJBATFD8fWakQLrtBAAIQgAAEIFA9AV9KYmlkpXrOlAABCEAAAhCAQIUEYoLi5yMrFcJlNwhAAAIQgAAEqifgS0ksnbqsbNy40W644QY75phjrK2tLXnu37+/ffrpp9W3iBIgAAEIQAACEGgpAjFB8fNTlZU9e/bYH/7wB/vjH/9oK1asSARl1apV9tRTT9n27dtThfvEE0/YtGnTUi2TwiAAAQhAAAIQqC8BX0pi6VRlRaMn5557ri1atKimLd2/f7/169cPWakpZQqHAAQgAAEI1J5ATFD8/FRlZdOmTdazZ0/729/+1mnr5s+fb+ecc44dccQRdvzxx9udd95pGpXRY9euXda3b1+bNWtWMkpz1FFH2Ze+9CW7+uqrTVNMW7dutfPPPz+ZYtI0k/4uu+yyZD/t31nZixcvTsp+6aWX7Oyzz072PfHEE2369OkmAXIP1eHmm28uTGVpm9deey15W9tpe+Xp2Cpnzpw5dujQIbc7zxCAAAQgAAEIlEjAl5JYOlVZ0Qf2/fffb1//+tftrrvuSsSiuK5LliyxHj16JB/wBw8etLVr19qll15qU6ZMSTaVKEg+JAFvvvmmuW0uvPBCu/XWWztsUzwN1FXZkpVvfvObpjU0Oq7KfvXVV+2kk05KJEeFHzhwwEaNGpXU6aOPPrLdu3fbypUrbdu2bcmxJSq//vWvC/tLVE499VR79913k/f5BwIQgAAEIACB0gnEBMXPT1VWVDUJy7x585KRk27dutnAgQPt448/LtR63LhxNnHixMJrJTQS06tXL9uyZUsyQiJZKRYRrVFxIyhOaIq36apsyYrEQs/usXfvXrvyyisLx9Nam9NPPz0oH6rfBRdcYAsWLHC7J+0dNGiQ6dg8IAABCEAAAhAoj4AvJbF06rLiV1GjFxrF+O53v2vLly8viIibvvGfTzvttGRBrhOR2bNn+0WZXncmK24/v0yXdmVLUn76058edmfSkCFDCrKi47jtO1TALJGcb3zjGx2moNwxVAYPCEAAAhCAAATKIxATFD+/prKi6jqJePDBBwvp4hERv1lu+0plpbOy05CV4pEZv+6kIQABCEAAAhAoj4AvJbF0zWXFTbNIVvTQdInu5PEXtPrNqlRWSim7FFlZunRpMg3kTxW5+mkaSNNVTz/9tMviGQIQgAAEIACBKgjEBMXPT1VW1q1bZ88995ytX7/eduzYkUy33HfffXbyySebFr/qoWctaNUdQNpG0qLfYtFCVT1KkRWtixk6dKhp6kV3EWmhrPK6KrsUWVF9tM5Gi35Xr15t+/btS+qnO5H00ALb7t27J/XVtqqv1rBorQsPCEAAAhCAAATKI+BLSSyduqz07t07udVYazl0y7HunNF6Ff8hqbjoootMtyVrO61peeihh5JNSpEVbagydJu09v/d736X3LXj8mNllyIrKkN18G9dVv3colqJ0cyZM+373/9+cmy1Qbdhh0ZikgbxDwQgAAEIQAACUQIxQfHzU5WVaE14AwIQgAAEIAABCAQI+FISSyMrAXBkQQACEIAABCBQHwIxQfHzkZX69AVHgQAEIAABCEAgQMCXklgaWQmAIwsCEIAABCAAgfoQiAmKn4+s1KcvOAoEIAABCEAAAgECvpTE0shKABxZEIAABCAAAQjUh0BMUPx8ZKU+fcFRIAABCEAAAhAIEPClJJZGVgLgyIIABCAAAQhAoD4EYoLi5yMr9ekLjgIBCEAAAhCAQICALyWxNLISAEcWBCAAAQhAAAL1IRATFD8fWalPX3AUCEAAAhCAAAQCBHwpiaWRlQA4siAAAQhAAAIQqA+BmKD4+chKffqCo0AAAhCAAAQgECDgS0ksjawEwJEFAQhAAAIQgEB9CMQExc9HVurTFxwFAhCAAAQgAIEAAV9KYmlkJQCOLAhAAAIQgAAE6kMgJih+PrJSn77gKBCAAAQgAAEIBAj4UhJLIysBcGRBAAIQgAAEIFAfAjFB8fORlfr0BUeBAAQgAAEIQCBAwJeSWBpZCYAjCwIQgAAEIACB+hCICYqfn6qszJ071/iDATFADBADxAAxkJ8YqFZpfCmJpVOXlWorzf4QgAAEIAABCDQHAUlptY+YoPj5yEq1lNkfAhCAAAQgkFMCyEpOO55mQwACEIAABJqFALLSLD1FPSEAAQhAAAI5JYCs5LTjaTYEIAABCECgWQggK83SU9QTAhCAAAQgkFMCyEpOO55mQwACEIAABJqFALLSLD1FPSEAAQhAAAI5JYCs5LTjaTYEIAABCECgWQggK83SU9QTAhCAAAQgkFMCyEpOO55mQwACEIAABJqFALLSLD1FPSEAAQhAAAI5JYCs5LTjaTYEIAABCECgWQggK83SU9QTAhCAAAQgkFMCyEpOO55mQwACEIAABJqFALLSLD1FPSEAAQhAAAI5JYCs5LTjaTYEIAABCECgWQggK83SU9QTAhCAAAQgkFMCyEpOO55mQwACEIAABJqFALLSLD1FPSEAAQhAAAI5JYCs5LTjaTYEIAABCECgWQggK1X21O7du+22226zhQsXll3SypUrbezYsbZly5ay92UHCEAAAhCAQF4ItLSsPP/889a3b9/D/pSf1qNYVjZv3mwqf9euXV0eAlnpEhEbQAACEIAABKzlZeXuu+9ORi40euH+JBhpPYplZcmSJTZixAhbv359l4dAVrpExAYQgAAEIACB1peVadOm1bSbi2WlnIMhK+XQYlsIQAACEMgrgZYfWelMVrTORO+/+uqrdv311yfTRcOGDbN58+bZoUOHkpg4cOCAvfjiizZ48GC79tprk2369euXbL9o0SIrlpViAdEIS3t7u/Xv39+0n0ZdZs+enZTttp0zZ47dcMMNSdmDBg1Kjqfj8oAABCAAAQhAwPI9siJZueqqq2zGjBm2Y8cOkyC88sorNnz48MI0jmxu3LhxprUoeqxbt85Gjhxpy5YtS153Jiv79u2zyZMn2zPPPJOUrfLXrl1bKEuyct1119k999yTTFFJkD744AMbOnSoaTqJBwQgAAEIQAACOZCV4gW2Gh2RJOghWdFIhxMR5W3fvt1Gjx5duLtHi2X90RknJ25Iyr12dwO50RKtj9mzZ49NmDDBnn32WTt48OBh8aZtJUauPtrACU6ai4APOzAZEIAABCAAgSYi4D5zq6nypEmTrKu/Nn+Dag6mfUutdLFoFB9XgqHbjiUc7lEsHzqWpnF27tyZbLJhw4bkduNSRla0w6pVq2zUqFGm6SXVRyM47uGLjcvTs+QIWfGJkIYABCAAgTwTKPVzvzNGvofE0k0rK5q6eeyxx2zAgAHJ9IxGYvw1LcVyExIQjaqsXr3a7rrrrmTdy/z58xOeoW31BrLSWbjxHgQgAAEI5I0AstLFyIpGQiZOnGjLly8PxkYpsuLvqMW0mhrSFBGy4pMhDQEIQAACEAgTaHlZ6ex3VkqZBnLTOJr+CT3KkRUJyqOPPmpTp05NFtwiKyGi5EEAAhCAAAQ6Emh5WSleYKvXbj1IKbIiwdDcll+Obi+eNWtWcntzZ7KifSVLum1Z+2sqSXf+bN26NekFZKVjMPIKAhCAAAQgECLQ0rISanA5eRIR3Xr8wgsvFBbhKk+/r1J8F0855bItBCAAAQhAAAKlE0BWOmEVG/nQnUG33HJLIi2d7M5bEIAABCAAAQikQABZ6QTiJ598kvyyrH/3j6Z2nnzySRszZoxt27atk715CwIQgAAEIACBNAggK11Q1C/J6kfi9FP5WneiX5ydPn26bdq0qYs9eRsCEIAABCAAgTQIICtpUKQMCEAAAhCAAARqRgBZqRlaCoYABCAAAQhAIA0CyEoaFCkDAhCAAAQgAIGaEUBWaoaWgiEAAQhAAAIQSIMAspIGRcqAAAQgAAEIQKBmBJCVmqGlYAhAAAIQgAAE0iCArKRBkTIgAAEIQAACEKgZAWSlZmgpGAIQgAAEIACBNAggK2lQpAwIQAACEIAABGpGAFmpGVoKhgAEIAABCEAgDQLIShoUKQMCEIAABCAAgZoRQFZqhpaCIQABCEAAAhBIgwCykgZFyoAABCAAAQhAoGYEkJWaoaVgCEAAAhCAAATSIICspEGRMiAAAQhAAAIQqBkBZKVmaCkYAhCAAAQgAIE0CCAraVCkDAhAAAIQgAAEakagaWVFFecPBsQAMUAMEAPEQD5ioFoTmjRpknX11+ZvUO0B2R8CEIAABCAAAQiUQ8D3kFgaWSmHKNtCAAIQgAAEIJAqgZig+PnISqrIKQwCEIAABCAAgXII+FISSyMr5RBlWwhAAAIQgAAEUiUQExQ/H1lJFTmFQQACEIAABCBQDgFfSmJpZKUcomwLAQhAAAIQgECqBGKC4ucjK6kipzAIQAACEIAABMoh4EtJLI2slEOUbSEAAQhAAAIQSJVATFD8fGQlVeQUBgEIQAACEIBAOQR8KYmlkZVyiLItBCAAAQhAAAKpEogJip+PrKSKnMIgAAEIQAACECiHgC8lsTSyUg5RtoUABCAAAQhAIFUCMUHx85GVVJFTGAQgAAEIQAAC5RDwpSSWRlbKIcq2EIAABCAAAQikSiAmKH4+spIqcgqDAAQgAAEIQKAcAr6UxNLISjlE2RYCNSBw0UUXGX/ZYFCD7qVICECgCwIxQfHzkZUuIPI2BGpNAFHJhqioH3hAAAL1J+BLSSyNrNS/XzgiBDoQQFaQlQ4BwQsI5IxATFD8fGQlZ0FBc7NHAFlBVrIXldQIAvUj4EtJLI2s1K8/OBIEggSQFWQlGBhkQiAnBGKC4ucjKzkJBpqZXQLICrKS3eikZhCoPQFfSmJpZKX2/cARINApAWQFWek0QHgTAi1OICYofj6y0uJBQPOyTwBZQVayH6XUEAK1I+BLSSyNrNSOPyVDoCQCyAqyUlKgsBEEWpRATFD8fGSlRTufZjUPAWQFWWmeaKWmEEifgC8lsTSykj53SoRAWQSQFWSlrIBhYwi0GIGYoPj5yEqLdTrNaT4CyAqy0nxRS40hkB4BX0piaWQlPd6UBIGKCCAryEpFgcNOEGgRAjFB8fORlRbpbJrRvATyIiuzZs2yTZs22ahRozL7Hzc2bxRRcwg0LwFfSmJpZKV5+5eatwiBtGRl2LBhtmDBAtu1a5cdOnQo+duzZ4+9//779vvf/77hgoCstEjA0gwIpEwgJih+PrKSMnSKg0C5BNKQlXHjxiWjFhKV2bNn2x133JH8vfLKK/byyy83XFTUxnJlZciQIbZ27VqbOXNm3epfbt+xPQQgUD0BX0piaWSles6UAIGqCFQrK5dffrktX77cdu7caVOnTq3bB3u59S5XVh544AHbsWMHslJVdLEzBLJPICYofj6ykv1+pIYtTqDcD/3i7adMmZJM/bz++utdispzzz2XCICmiQ4ePGjr1q2zyZMnF/aTUGzYsME++OCD5H1tJ2F4+umn7R//+Ift378/6Q3lPf744x320yiIpqH27dtX2EbHc/UNyYpfH5WtY2g6S/mqn/947733krKuvvpqe/fddwvH0WiSRo8kbe5YlT77xyMNAQjUh4AvJbE0slKfvuAoEIgSqPSD1e2naZLdu3d3OQIhudAalnnz5pk+8G+99VZbuXKlbdy40TSNpPIkFBKUJUuW2MiRI23s2LG2fv36pO6SEe0jmdBIztatW4P7qSwnFDrejBkzCmX7C2xVH40GSTS0pua+++6zzZs3J8KiusTaJVHRdtpe+2l/tf+pp55CVqJRxhsQyC6BmKD4+chKdvuPmuWEgJOOSp9jH+rF5a1YscJWr17dYQRCFwONkkhStL2eNVKh0Rq3v/IkHdOmTSvk/fnPf7bt27cn62Ji+0lqPv30U3MjIirHlxXVZ+nSpYUyVY7W26g+t99+e1BWlC9JevbZZwv7aURFIqXyXJ0rfc5JyNFMCGSKgC8lsTSykqkuozJ5JFDpB6vbrxRZ0e3CEgUnDm7fAQMGJNM+Lr9YKLSd8jRyoUW7bj8ds1hWfBFx20kg1qxZk+znl+3qE+pvd6xQu5TnpqKK93XHcceu5Lm4TF5DAAK1JxATFD8fWal9P3AECHRKoJIPVX+fUtasODlwUuL2b7SsFNfH1UvPMVkpZcrLL6ecdKcdxZsQgEBNCPhSEksjKzVBT6EQKJ1AOR+moW01DaK1J5oe0ZqS0DbKK3UaqHiEpNSRleLpo1KmgbSYV+tbQnUOyYqmgTRNNHfu3OA+oXLKySu919gSAhBIi0BMUPx8ZCUt2pQDgQoJlPNhGttWtyxrsaqmZrSew/3OyiOPPFJYeFu8wFYLaN1CWSc5/lSNO1apsqKFucuWLUsW5kpAFi1aZHv37u10ga3e1x1AblGubld2vwujESO16bXXXkvW2WgUSHXSAlvtp+10HI0aqc0PP/xw1QJTYReyGwQgUAUBX0piaWSlCsDsCoE0CDgpqPZZd+7olmN367DkQQtj58yZU/gQl7BoBEbvxW5drnRkReVKPNzxNQLS1a3Lqs+WLVuS+oilJOSdd95J6qsRo/nz5ydrVFTfhQsXJvm6A0h3NKlteug9HUsjMdUyTKM/KQMCECiPQExQ/HxkpTymbA2B1AlU+wGbhf1DIzJZqFe5dUi9cykQAhDokoAvJbE0stIlRjaAQG0JlPuBmsXtkZXaxgilQ6CVCcQExc9HVlo5AmhbUxDIonyUWydkpSlCjUpCIJMEfCmJpZGVTHYdlcoTgXLFIIvbIyt5iljaCoF0CcQExc9HVtJlTmkQKJtAFuUjr3Uqu/PYAQIQqJqALyWxNLJSNWYKgEB1BPIqBllsd3U9yd4QgEAlBGKC4ucjK5WQZR8IpEggix/aea1Tit1KURCAQIkEfCmJpZGVEmGyGQRqRSCvYpDFdteqjykXAhCIE4gJip+PrMT58Q4E6kIgix/aea1TXTqcg0AAAh0I+FISSyMrHZDxAgL1J5BXMchiu+vf+xwRAhCICYqfj6wQJxBoMIEsfmjntU4NDgUOD4FcEvClJJZGVnIZGjQ6SwTyKgZZbHeW4oK6QCAvBGKC4ucjK3mJBtqZWQJZ/NDOa50yGyRUDAItTMCXklgaWWnhAKBpEIAABCAAgawTiAmKn4+sZL0XqR8EIAABCECghQn4UhJLIystHAA0DQIQgAAEIJB1AjFB8fORlaz3IvWDAAQgAAEItDABX0piaWSlhQOApkEAAhCAAASyTiAmKH4+spL1XqR+EIAABCAAgRYm4EtJLI2stHAA0DQIQAACEIBA1gnEBMXPR1ay3ovUDwIQgAAEINDCBHwpiaWRlRYOAJoGAQhAAAIQyDqBmKD4+chK1nuR+kEAAhCAAARamIAvJbE0stLCAUDTIAABCEAAAlknEBMUPx9ZyXovUj8IQAACEIBACxPwpSSWRlZaOABoGgQgAAEIQCDrBGKC4ucjK1nvReoHAQhAAAIQaGECvpTE0shKCwcATYMABCAAAQhknUBMUPx8ZCXrvUj9IAABCEAAAi1MwJeSWLqDrMQ2In+SwQAGxAAxQAwQA8RAY2IAWZnUGPAEPNyJAWKAGCAGiIHSYgBZQVYYNSIGiAFigBggBjIdA8gKAZrpAOVbR2nfOuAEJ2KAGGjlGEBWkBVkhRggBogBYoAYyHQMICsEaKYDtJW/KdA2vgkTA8QAMVBaDCAryAqyQgwQA8QAMUAMZDoG/j/0QWLSRGCzlQAAAABJRU5ErkJggg==;" vertex="1" parent="1">
                    <mxGeometry x="580" y="60" width="345" height="220.05" as="geometry"/>
                </mxCell>
                <mxCell id="5" value="" style="shape=image;verticalLabelPosition=bottom;labelBackgroundColor=#ffffff;verticalAlign=top;aspect=fixed;imageAspect=0;image=data:image/png,iVBORw0KGgoAAAANSUhEUgAAAigAAAHZCAYAAACsK8CkAAAgAElEQVR4Ae2de7AdVZn2U1/V98+UWuVUjaVVQ1nlfI46OhdmxpGSoeTzMowiAiNecEBHQMQLR0UTBPEQLxypAZIZjCIqCkIU+HAUwqUQUBIwGbkoIeQEOFzCLYRDSI53HS/rq6fx3byn03uf3me/e/dl/1J10mt3r169+nmftdavV/fuveTss89O/KHBWHrgjA+l1+2xJC1ZUvD3okPSSSu7+WJVOuUdexbvt2RJ2vMdp6RVWbtalU555z8U59vjdelDZ7jyV52SjtyroB5LlqQ/2ueYdMoqy7sqnfTWlxSX+ex907GnWr4nl6ccs296RtH5LXlJOvTkVZ22v+qkQ9NLivI9y5V51sr0odfuUXjs5+3/obTyrPnHXqynVp389rRnUV2WLEnPeMUx6bRuxznj+PS65xVruOfblv8hJk/WsesxnvYP6chPPanLyuNel/YoqseLDkzH7xa7/z1fl2fsmQ49cWVHX2mx6qRD0guLylvynPSaY0+bl3ex2rFfjAfRsR46LiEQ9QgEcaggDiMAlK4wUQgouUHOBrO9jhw6oJwtLZ5bNLi/MB1iA21XiPqjtPdRp4QNsF3hYSFAOfXYtO+zi87BQ+OTPlv1ibenPf9XUd4XpkNOehJQetXjhW/4UDqtA40r0/EHvTADlOe9/MB05AeXp5WdbU/5GkB5Sgv6O7Qo4wEAhRmksIGljOFqlWcEgHLa8cekI992SHrNK/ZOe7/c/b32yLTcz9Bkg38XQNnz0LT8TOvQhjODcvaqU9Ix+zxj/ixABkjPSHsf/Qf46KrXS9KhfxjUI+LbCwx6zaCsmjom7f3MIujYHaBWferItPczivI+Lx249A8zH2ccnw78P0V5nlz3wv2PTaf8IS4rP3VSWn7aUzNSRToAKOZhlkX+YN3uvgBQABQAxWYq/DLkFs/uDa6oE1p16knp2Le+Jr3wj7oMhqMAlLNXpeWHFd+2euFBx6eVukWhWQevkaX/T+6Wx4BtatGA8qkj0z900XDPNx2bTjp5eVr+h7+Tjj2k+JbWkj3S646zWzOCwWJN7LbgHv83B5o9zh1AKdceitoI68ZTu3mAYo2OZZeBwjpklgVX2mhGu8EDeAAP4IH+PdANQAEUYAPYwAN4AA/gATxQmQcAFMxXmfm4ouj/igLN0AwP4IFx8QCAAqAAKHgAD+ABPIAHaucBAAVT1s6U43J1wHlyJYwH8AAe6O4BAAVAAVDwAB7AA3gAD9TOAwAKpqydKbmi6H5FgTZogwfwwLh4AEABUAAUPIAH8AAewAO18wCAgilrZ8pxuTrgPLkSxgN4AA909wCAAqAAKHgAD+ABPIAHaucBAAVT1s6UXFF0v6JAG7TBA3hgXDwAoAAoAAoewAN4AA/ggdp5AEDBlLUz5bhcHXCeXAnjATyAB7p7AEABUAAUPIAH8AAewAO18wCAgilrZ0quKLpfUaAN2uABPDAuHgBQABQABQ/gATyAB/BA7TwAoGDK2plyXK4OOE+uhPEAHsAD3T0AoAAoAAoewAN4AA/ggdp5AEDBlLUzJVcU3a8o0AZt8AAeqNoDf/7nf55uu+22tGvXrnTMMcd0xpCnP/3p6cYbb0w/+9nP0sTERGf9YusLoAAoA5toseZjPzpaPIAH8EAzPXDEEUeknTt3po0bN6a/+Iu/yMaRM844I/3qV79KF1xwQci4MjJAufbaa5P+/frXv06f/OQn51X+la98ZXr44Yez7T/5yU/S4Ycfnm3XUp/1T/tj5GYambgRNzyAB/BA+zywatWqbEw/77zz0sEHH5wee+yxecAyaMxbCyjATfsaw6BmZ388gQfwAB6I84Dd0tGtni1btux2y2dQrWsNKPvvv3/asGFDRmSqaD8nC6DEmbAf3cmL7ngAD+CB8fHAa1/72vTII4+k3/72t+mcc87pa5xeyCe1BpSFKt9rO4AyPg2klw/Yhg/wAB7AA8PzgB6G1UOxv//979M111yTNKsSpTeAwkOyYWaKMiXlDK8zQVu0xQN4IMoDejj27rvvzmZQrrzyyvSLX/winXLKKWFjSq0BpdssyF577ZWR2i9/+cvsAdqf//zn2VPDRm72QG620f2nB3H1QK6Cc9hhh6Xbb789/eY3v8ly6Mnjm2++Oe27774dcfUwrx7q1T+VuXLlyuypZT24K1L83e9+l1Gjv/306U9/urPPueee2ykryhCUQ+eCB/AAHsADdfDAZZddln1rZ2pqKvsmj2DloYceSrrtE1G/xgGKIEQgYf8EGJpa8ve/JJpNOSmf4ENQceedd6Z99tkng5QHH3wwK0L7GoRohf/KlAeU++67LxkQqawvfelL6ac//WlWxtVXX90JxoUXXpitE0kuW7assz4iWJRBp4QH8AAewAN18MDy5cuzGRN/W8du91x33XUht3oaByhve9vb0tzcXAYBJsKZZ56Z/ud//idt3bo1aXZFwes2+6Jt+mqUZj/0Z9/XvuiiizLQ8V+D9oAikLn33nuTAOT73/9++tjHPpbuv//+rB6bN2/ugIi26Z++bnXAAQd01tfBUNSBjg0P4AE8gAcG9YBmSDRTUjRborFU46jeiTLocUYOKNno3eM/zU4ILnRiRZBh6wQXAg3le81rXpO2bduWnnjiifTWt761674mlt0C8sfyMGK3Zvy6O+64o/MyGivHYETHVh30dr2ZmZns7JTfbjlZfpZ0DHgAD+ABPIAHynmgcYDypje9KQMRUYCnN82s/Omf/mmH2AxklC//krdbb701g4hugGL5PaDYOm8sm4nRrR69VU8zJpo50b9LL720Uxe/D+lyxkQndMIDeAAPjLcHRg4o/haKma/fN8nqGRPdctE/ff9aD7xaWbbsBSi6JaN/gwLK+9///uxZFz0Hc/rpp2fPnOjZE52jHpa1urAc70ZG/Ik/HsADeKB/DzQSUDRTogdzDFJ0ayf/w0SjABQ9cKtZHP3Tsyk2o6JnZDSjgyH7NySaoRkewAN4AA/IA40EFFVcz3dcfPHFna8J539VcRSAonrYcyi6baTbOvqn51D0PAqNjEaGB/AAHsADeGBxHmgsoFjA9Q0e3VbRP3112N5zMipA0at9NZOjb/Totwj077vf/S5wwgvw8AAewAN4AA8M4IFGAspLX/rSdOKJJ3ZmKfR1Jn3N2J4FEbz0ApSoh2R1HHsORZCkWzv+20UGUSwXR8/ohm54AA/ggfH1QOMA5ayzzspmLPTcib7RI/Pa14w1e/HlL385W9cLUBbzNeOib/Ho2PaAr2ZRBCd6QZyghUY1vo2K2BN7PIAH8MDgHmgcoJxwwgnZG10FBJdcckn2LIq9vc7PXvgXuukFa/YCN5nGHmZVfr0RVusWelFbN0DRvjYjI0DSQ7N6eBZzDm5ONERDPIAH8MD4eqBxgJJ/1b1eY2/f5vHPoOghVb3a3v+z3+LRrId/1b0vo9ur7nsBil7sZv8EKzSo8W1QxJ7Y4wE8gAdiPNA4QFHg9QuK+v0b+20cPXui3+fZb7/95sGB3o+iHy8ygNGr8G12YzE/FtjNdJOTk9nv/QhS7C203fKyPsa46IiOeAAP4IF2e2BkgNJWI2lGR7eM9JAuPxDY7sbSVg9zXvgWD+CBOnoAQBngK1D2Rlq7vXPbbbd1vllUx2BTJzohPIAH8AAeaIoHAJQBAUW3j3784x+nK664Yt6DuE0xAPWks8IDeAAP4IE6egBAGQBQ6hhQ6kRHgwfwAB7AA23wAIACoMx7sLgNpuYc6JzxAB7AA833AIACoAAoeAAP4AE8gAdq5wEABVPWzpRc+TT/yocYEkM8gAcG9QCAAqAAKHgAD+ABPIAHaucBAAVT1s6Ug1I3+3PlhgfwAB5ovgcAFAAFQMEDeAAP4AE8UDsPACiYsnam5Mqn+Vc+xJAY4gE8MKgHABQABUDBA3gAD+ABPFA7DwAomLJ2phyUutmfKzc8gAfwQPM9AKAAKAAKHsADeAAP4IHaeQBAwZS1MyVXPs2/8iGGxBAP4IFBPQCgACgACh7AA3gAD+CB2nkAQMGUtTPloNTN/ly54QE8gAea74FSgPLjH/848YcGeAAP4AE8gAfwwKg8AKAAX8AnHsADeAAP4IHaeQBAwZS1M+Wo6JzjcCWIB/AAHqivBwAUAAVAwQN4AA/gATxQOw8AKJiydqbkiqa+VzTEhtjgATwwKg8AKAAKgIIH8AAewAN4oHYeAFAwZe1MOSo65zhcCeIBPIAH6usBAAVAAVDwAB7AA3gAD9TOAwAKpqydKbmiqe8VDbEhNngAD4zKAwAKgAKg4AE8gAfwAB6onQcAFExZO1OOis45DleCeAAP4IH6egBAAVAAFDyAB/AAHsADtfMAgIIpa2dKrmjqe0VDbIgNHsADo/IAgAKgACh4AA/gATyAB2rnAQAFU9bOlKOic47DlSAewAN4oL4eAFAAlJEAyvbt29M73/nO7E9p6xS+9KUvpZe85CXplltu6ayzbQstrcyTTz65730XKjtq+/33359e9apXpY997GNZHRd7vtpf5ai8fN3m5ubSd77znfTyl788LVmyJB1wwAHphz/84bx89957bzriiCPSM5/5zPT85z8//cd//Ed64okn5uXJlzvMz73OZ5jHlc/kN8Wh23HWrl2b/v7v/363PFu3bk3veMc7dvOwfHjCCSd0jU+347C+vgMjsalHbAAUAKVrRx3dSPOD8+OPP57e9773pbe+9a3pkUce6bseBii9BpuIcygzqHU7zigAxer3+te/Pk1OTqZ//Md/TAcddFB64IEHMk1nZ2fTsccemw3MX/nKV9LHP/7x9Cd/8ifp61//et+adzvPftfXEVB+9KMfpfe85z0ZxAn0zFfy5umnn55e/OIXZwAo0Jb3pKv0NDDsBpD9alMm/9VXX53VRcsy+clTjwGXOPQXBwAFQBlZB7d+/fr0Z3/2Z+kb3/hGdsw777wzG0x1Nb+YhmuAMuxO2gDABqx+6poHlH729Xl7DejST1f8t99+e6aj9BCAmC533HFHetnLXpampqay7QIXzbIIDgWJ/jijSvc6n2HWoVcszznnnPSKV7wiHXroodngb/HWPoKPf/3Xf00veMELOjMoiq10fPOb35z22muvkc6gKLaCKIvxMDWj7P4GVfSK0wtAAVBGNkDpSlSzJccdd1zauXNn1rnuscceSVPqi2nUAhTNDNx8882L2r/sMXsNaguVMWxAsVkof/Vu9f3CF76Q6WKfbcA1sLOZgIXOYRjb6wgodp42+Jtett5imdfN9PQxsH2GtbQ6Aihxg+GwYkW5i48RgAKgDHVwzzdOXcW/+tWvTvfdd192Ra8rULsVce2113amy/1zFPnO2AY3lSHo2bFjR/roRz+a9t1336RnLWzA0PMCSncrN183zTQcfPDB6WlPe1r2rIHKssFdV6v60yC0ZcuWec/TWB4b0B599NHOrYJ3v/vd2eyG6qzjKY9/5kbHUD11TN1CWL16ddIzJfrT7QM9M6I6vfGNbyy8Qrdz9YOj1ceOqVsXf/M3f5MMWAwUjzrqqPTYY4/Ni7/yajZA0Kg6SFebaVG50lhAqG2qq+rs9dI56rg6R82U/fM//3N2zr3OR+eg54h0rrpdonjlY6PP3bQyDTTD8dnPfjark85B56L9ZmZmsltegmEBrWbxLFZFxzG/5fMMAihF3tKx5RVprHNX/ezZoF7nZPUzTxowddPH/KC29+EPfzg71nvf+96sbagO3dpHt7ppn3Xr1mWzTaq36q+8RVqybvGDM9r9OAEoAMpIOxYNfHpI89JLL00HHnhgOumkk7LBzm47HH744emiiy7KBmMbGK1D1lKN1gBFA4Y1Yj/wq6z99tsvy9erXNtXS81EfPCDH8z2u/jii7OZHnXoepD0e9/7XjbonXnmmRlMqTPWoGADgw0ANqBdcMEF2aCt/fWngcdgwddTg/Ypp5ySAYz2mZiYyG7FaDDT7RrdtpEeX/3qV7NbYR5CrO6aidKMlMGZ1lt97Jg22Gn26sEHH8wGF92qsPpaWVraIHzllVdmA5jgSXF66KGHshkvPd+iW3NWPx37/PPPz4BE56oydFxBi+Ksemm75S86H+ktaDjrrLPSpz/96c7xfL2klbwiTfJa2flJZ8Xoc5/7XHZ8nZ9prG2rVq1Ky5Yt62zz5fu0+S2vj2ljcbd97PhF8VGebt7SNp2L6mbn/uxnPzuDQyuz6JxU3je/+c0MmLVUbHbt2tXVS+aHV77yldl+gmaDZEG+Lhh8u7MZzm51e/jhh9O//Mu/zNvHbtuaJiwBkwgPACgASmeQjzDUQmVYh6graw2SBh32fIoNCh5CbMCwvH6bHU9XgRoUlceeudDAXlSu4MVmbWx/GxB0NahB7bLLLsu+maHBwDp4q5vltYEqv93XzwY1rdOxVIYNDjaTYeWo7joHnUuZc7a6q0ztd+6552azDBqk9dmOqXw33XRTNrjbVfcHPvCBwqteOzeVqStyAYaeX5Gm0tMeaP72t7/deQbC9rHz0HEFHDfccEPHW73OR8cywBL8HHnkkWl6erqzr+qf10oApXNRufnj+3j02mb65ZdWV9XLb7NY2nnaNjtGN0Cx7Xlvab1gwPazektn28eOZdusTlZHLVWPvD5ab17K76syzINF7UNQqvK61c10sBk5AeF//ud/ztPKtGEJqAziAQAFQBlpx2JXwhpc7GpcBrYO1zpgDXK6LaFpettmnbG2Wadu5rfbGAYlgp9+BnrNROjqWlesV1xxxTxN8h18r8Ejv806c4MFPzjkt/nz9Pl0jkXnbOdutzAMPgQUuhK3Y0rzL3/5y9mDs7qF8ld/9VcZrAharAxbKq8GUu2rWznSWUCnmS/dfrBZLdUvDwgGftrXBkArt9f5CAY1mH7iE5/o+tVnzRAIKjVboDqWBZS8xvlYWv380uKgOvv1VpZBg22zmOc9adu7ecv2s/J83XptU7lWR2sTVjeLud/uy9W+PhY+n7ZpNmvlypXZLVjVq6humkHU7TTNZhV5yM6bJXAyqAe6AsqJJ56Y7G/Qg7A/RvUesKtvm0rWNusobVDwg5xt01J5tS0/GGjg0q0I3WbQ4JWHGxu8tczva3XTQL///vtnkLJmzZpsINS2fAffa/DIb8sPHH5wsG2+bjbo+3zdztnqraVuRWkA158GDQGCDVY2o6TbSRrclafXt3h0ZSwQUZz07hQ9t6GvJAtc7DaO6md1tXM2XX3srI69zkd1F5yoPD2Loq/v2n75pWZYdCtOzz7kj180mJrGpkU+lvny9dn8pjr77VaWHce25c/f1vtlkbdsP52H/9NxbZsdK19vq6O1CaubL8f0ye/rY5Evx+psx8+XZ5rYjJwgZcOGDfN0sjJY0u8P6gFjkPxyiSeXQQ/C/hjVeyDfYWqbdZTWAfpBzrZZZ6xtNhhauboVo0FV0KP7+f65CeuoLW+vpW5r6DaGn0nJ19c676LBI7/NBg4bIP3gkN/m6+XzaX3ROfv8Pm31tRfY5fVbqDyBiTT493//9wxIVBcdX+drzxponelq52wxUd5+ZlBUH0HKaaed1nMmxQZFgdK3vvWt3Y5fFI+8xqaN6u8182nTK5/HyrLj2D7587f1+WXeW7Zfvjztl9+Wr7fV0dqE1c185o+d31fnZfHJl2P75Y9v6/1SLwPUcy3MpNC/e19Epj2H+DSAwq2frh34oAbMd5gqzzpKGxTU0eZnQawz1jYbDH1ddAtC98/1sKndirBybV+bwt62bdtu56fZBd1K0P13PQehaWxNZ+frm++8/XbbpnoonR84/OCQ36YOXzMJWiqfviFjX6Huds4CM72/Q9Pydk6+Pl5b00DrupWnbXouQS990zkISHSrTA9F7rPPPllaeVS/PKAsdIun1/noNoi0/+IXv5id93//93/Pi49mVY455pjsHSV6SNPH1TS3gd6fv2lsz3/4bTqPoj8r27xoeawsO46tt+MXedLyFHlL5aksK+/uu+9On/nMZzKNrUzblq+31dFianVTXHVM76X8vt6D+XIEpYr7XXfd1bVuKt/OR99o06yjbo8qhna+LIu9hS796eKhxKcBlC6dFwbrz2BFeuU7TOUpeljPOvx8J9ptcNWVvwZBvWzLbkVYuXbl321fXd1qUNY3F1SfSy65pANB+fr2GjzUSfuHC/MDhx8c7MHGIpiy22A2AHWrt+qqmRL/PI/21TMdtq9pYOdmg7098JqPkd0Ssm+U6Pkeaeq/uuvrl9dDdbUrdCvb59c6Ox/pvnz58qSvvapeGvD0nIzV3fY3He22YNlnUEzjbgO9le+X5rcoQOnmrXvuuSfzis32eZ/lNfXbVFero+lk51nkpfy+3oPmDTtXxUWAovKkdVHdVJ789t3vfjdrK3rLrunrdSQ9eF857hp6KPFpAAVAGdrVUL7DVCO05yL81x3zna1mRjRLoq+vGrz4BqzZBgGKruwNSHy5mj3RVb6V6/e1QVvb9dVNHUuzBrpatwFbA7oGBH1VVx2yBmHNXuTfPKrOXoAgSFJ9dbtIHb+O5wcHXYX6rxlrQLBvzJhG0kNgoan0onNWmRqsBRMaWD7/+c9ng4d/1b091Pi3f/u32TdxBAR6hkPvDPEaWFqaSQeDHvvsj29fG1adi75mnAeUXufjv86qb4S86EUvSjfeeOO8utk5qFy9y0P10zkrHr0Gc2msrycrBrr1p9f8KzY2INs5+6UN/vk8Bkn5wdiO7/Xx5fXylj93+UX11APJVqYdy/SzOimPzl8+lVa6RbaQl2xfLS0+9q06+czah82GdKubb1MCT7ULPRek58BUX6uz14A0sLIYD3go8WkABUCZN0Asxlzd9sl3tpZPtxLsd038i9p0BSpYEHwICDQoFg0Gyqevq+orrroyXKhc225LfbXVYEPHt0FSsyICDQ3qdtzzzjsvGyAOO+ywDGjU4dsAIIDRb7rodfPq+LWtCFB0XNVZYKFBU+dnL2rTMXW7QwOWvpKtaXQ7ttXXlro1osFEzwIIzrx2lkfnprrqOCrz1FNPzQZB2+6XenmbXuJmMyz2fI8feDTwL/SiNsXZyu11PhqMNThLX2mgF9RpwLV9bSl/CLKkhwZT3QKU5gsN5pqV0cvuVL60ruJFbd28JfDS7SfVTXGRz3TuC52Ttts7XSwu3byUb28eUKRtt3bXrW7aR21DcZCf5CudX77OFjeWwMliPeChxKcBFABltwFisSZjPzooPIAH8AAe6NcDHkp8GkABUAAUPIAH8AAewAOVecBDiU8DKJiyMlP2S9nk58oMD+ABPNA+D3go8WkABUABUPAAHsADeAAPVOYBDyU+DaBgyspMyZVQ+66EiCkxxQN4oF8PeCjxaQAFQAFQ8AAewAN4AA9U5gEPJT4NoGDKykzZL2WTnyszPIAH8ED7POChxKcBFAAFQMEDeAAP4AE8UJkHPJT4NICCKSszJVdC7bsSIqbEFA/ggX494KHEpwEUAAVAwQN4AA/gATxQmQc8lPg0gIIpKzNlv5RNfq7M8AAewAPt84CHEp8GUAAUAAUP4AE8gAfwQGUe8FDi0wAKpqzMlFwJte9KiJgSUzyAB/r1gIcSnwZQABQABQ/gATyAB/BAZR7wUOLTAAqmrMyU/VI2+bkywwN4AA+0zwMeSnwaQAFQABQ8gAfwAB7AA5V5wEOJTwMomLIyU3Il1L4rIWJKTPEAHujXAx5KfBpAAVAAFDyAB/AAHsADlXnAQ4lPAyiYsjJT9kvZ5OfKDA/gATzQPg94KPFpAAVAAVDwAB7AA3gAD1TmAQ8lPg2gYMrKTMmVUPuuhIgpMcUDeKBfD3go8WkABUABUPAAHsADeAAPVOYBDyU+DaBgyspM2S9lk58rMzyAB/BA+zzgocSnARQABUDBA3gAD+ABPFCZBzyU+DSAgikrM2Xbr4Tmds6lu869q/Z/bY8D59e+K25i2q6YeijxaQAFQAFQhuQBAcoNB9+Q7lh5R23/1h28rjD+mzZtShMTE+noo4/e7e+SSy4p3EeDxuc+97nUa7vyzM7OpqmpqXTjjTcWlqMy/HG75WOQatcgRTzHN54eSnwaQBnS4ERjG9/GZrE3QNm+cXuq49+jP3o0dQMUOwctBRwCCoGFX1+UHhRQtL8/loESkEJ7KvIb69rhCw8lPg2gACgLDjp0AovrBNoMKH6Ww2ZMtLSZD6VtpsTWGXjY+jx02Horz3ynY+nPf7YyrQzbN79e25cuXZrNBtnxtc7y2Torm+XivI5u6DaIBzyU+DSAAqB0Ov5BDMa+u3dQbQUUAcSyZcvSgw8+mPIzHAIJAwwPFsqrfQQHBhMGF9472lfw4IEkv9226diTk5NZPbTOYEPl6vaUtvu0ytE6AYuWVg8rzx+H9O5+RhM0GZYHPJT4NIACoAAoQ/JAWwFFA7pBiDosfbZBPr/NOjSDgYUARfkNZmyWw8r2ZVi5WubX22fVUcczmFJerTOQ0Wdt9599uaQZkPHAaDzgocSnAZQhDU4YezTGrrPObQQUP/ib9hr0DSI8oGiWIv+gbRlAsXK19MczcFEZPk/ReqtHHkBUVwMfW3qA8eWSpg3jgdF4wEOJTwMoAMq8zp4GGdcg2wgo8ocN/uYVfdaf3+bBQuvtcy9AEWhoNkNLK1tLAyBfht+eX2+ftV8RoFhdfRmk43yPlmjZrwc8lPg0gAKgzBsM+jUW+bt3Rm0FFA38NutgsyQ2q2Hw4iFBHtF2zVj0AhTl87CjzzY7omPmt/vnSbSf3arRMfwzKLZe+/t9rDy/Xev4QwM8MFoPeCjxaQCFDokOeUgeaCug2MBut0gMHrReaa3X0qBEnw08tN7gRduLBgLltbKtLMtn+9p2K6Pbem3PA4ivl4GWlc9ytAMTeqO3POChxKcBlCENTjQ8Gl5bAAUv42U8gAeG6QEPJQslOKAAACAASURBVD4NoAAohVexwzTjuJQNoNCpj4vXOU+8PogHPJT4NIACoAAoQ/KAAUoTX3U/SGfDvgxWeAAP9OMBDyU+DaAMaXDqJzjkbWdjFqDwY4HtjC1tlrjigTgPeCjxaQAFQGEGBQ/gATyAB/BAZR7wUOLTAAqmrMyUXIHEXYGgJVriATzQVA94KPFpAAVAAVDwAB7AA3gAD1TmAQ8lPt03oOg9BnpPgSc1e1mTve/Ab1Na2+1HvfLb7LO9+8BesGTrWXJVgAfwAB7AA3igvR7wUOLTfQGKvYTJA4q96VEvP7KXJSmfmcngpdcLkZTfXqakcnrltXJZttesxJbY4gE8gAfGxwMeSny6NKAISgQRq1evnjeDkp8dycOGZkQuv/zynjMoKtugxgMPBh0fgxJrYo0H8AAeGE8PeCjx6dKAYsYRSPgZlPyrpItmQPIQY2VpabMu2s9/NmDxeUmPp3mJO3HHA3gAD7TXAx5KfHpgQPEzJjJQv4CSnzExYAFQ2mtGOhpiiwfwAB7AA+YBDyU+PTCgMIOCycxkLPECHsADeAAP9OsBDyU+PTCg5G/f5GdUVNF8nnzli55BWbNmTbrzzjtL/V166aVpy5YtpfKWLZN85bRHJ3RarAd0cUO7xT+L9Q/7Vecdtd25ubnOl2HyY3q/nz2U+PTAgOJv0XS7PbMQoHioKbpFtNDJap9du3aFibXQ8djOFQIeGNwDd911V2gnR0wGjwkaomEZD0S3XQ8lPj0woOhkBCD6tk7Z96AIavReFO1nYmgWRfsv5j0oAAqNynzEsjleiO7kiH1zYk+smh2r6LbrocSn+waUOhoLQGm22evoKeo0fE9Fd3LEbPgxQ2M0lgei266HEp8GUHi9cWcWi86HzmeUHoju5EZZd45FWxlnD0S3XQ8lPg2gACgACh6oxAPRndw4DxicO8A0Sg9Et10PJT4NoDA4VTI4jbIxcax6dt7RnRxxrmeciUv74hLddj2U+DSAAqAAKHigEg9Ed3IMhO0bCIlpPWMa3XY9lPg0gMLgVMngRMdTz45nlHGJ7uRGWXeOhX/H2QPRbddDiU8DKAAKgIIHKvFAdCc3zgMG5w4wjdID0W3XQ4lPAygMTpUMTqNsTByrnp13dCdHnOsZZ+LSvrhEt10PJT4NoAAoAAoeqMQD0Z0cA2H7BkJiWs+YRrddDyU+DaAwOFUyONHx1LPjGWVcoju5UdadY+HfcfZAdNv1UOLTAAqAAqDggUo8EN3JjfOAwbkDTKP0QHTb9VDi0wAKg1Mlg9MoGxPHqmfnHd3JEed6xpm4tC8u0W3XQ4lP9w0o+uVh/bCfN12vHwss8yOA9ivI/Fhg+4zsfUKa+HoPRHdyvmzSeA0PDM8D0W3XQ4lP9wUogpP8Lxbrl4mXLVuW9IN9BhrKJ3NoOTU1la3XduVT/rxxBDEGPb3y5fezz/xY4PCMaBqzRONoD0R3ctH1ozw8jweKPRDddj2U+HRpQBFACDZWr17dgQkFT7Mnk5OTHfDwUKJ9DFY8yPig56FG5S1dujQr1+frlQZQik3USzO2oVnVHoju5Ko+H45PmxoXD0S3XQ8lPl0aUEx4AYfNdmid4MBmSeyzZkpmZmay9dqu9XkQsfK09FCj/N1mWvw+Pg2g0DF4P5Buhh+iOzni3oy4E6fmxym67Xoo8emBAcXDhYxngDE9Pd259aP1vQBF21WObh952ClrZACl+YYvG2vytSfW0Z0c3miPN4hlvWMZ3XY9lPj0wIAiOPBQYYBSdgYlDy7c4qm3Mek4iE+UB6I7uah6UQ4exwO9PRDddj2U+PTAgDLoMyh5IDFgOe+887LbRAKdhf4uu+yyJMEWysf2hbVEIzQalQfWr1+f7r77btptiT5uVDHhOLT/Mh5Q252bm9vtCy+LBTsPJT49MKD4h18NLnS7RhX1t39sZiX/LZ78PgKWiYmJtG7durRz585Sf2vXrk07duwolbdsmeQrpz06odNiPbBly5b0xBNP0G5L9nOL1Zn9aKPRHlDbbQSgCEQMKvJfQdY2PVCbf7+JIEXf/NF+ymOQo3z6M8DRtjJ/PINSTqcyWpIHLUflgehp4lHVm+PQRsbdA9Ft18+a+HTfMyh1DAyAQodRR19Sp96+jO7k0Lu33uiDPlEeiG67Hkp8GkApOUsTFVjKoZPAA096ILqTQ1faFh4YjQei266HEp8GUACUUrfRaPijafjjpHN0JzdO2nGutMcqPRDddj2U+DSAAqAAKHigEg9Ed3JVdtgcG2AYJw9Et10PJT4NoDA4VTI4jVNj5lyLB6/oTg6di3VGF3SJ9kB02/VQ4tMACoACoOCBSjwQ3clFd8KUx8COB4o9EN12PZT4NIDC4FTJ4ETDL27446RLdCc3TtpxrrSfKj0Q3XY9lPg0gAKgACh4oBIPRHdyVXbYHBtgGCcPRLddDyU+DaAwOFUyOI1TY+Zciwev6E4OnYt1Rhd0ifZAdNv1UOLTAAqAAqDggUo8EN3JRXfClMfAjgeKPRDddj2U+DSAwuBUyeBEwy9u+OOkS3QnN07aca60nyo9EN12PZT4NIACoAAoeKASD0R3clV22BwbYBgnD0S3XQ8lPg2gMDhVMjiNU2PmXIsHr+hODp2LdUYXdIn2QHTb9VDi030Din5pWL9Q7E+4318z9vta2n71mF8zpjGZJ1i22wvRnRx+abdfiG994hvddj2U+HRfgCI4EUB4QHnwwQfTsmXLkn5ReHZ2Nk1NTSXlk5m01Get13blU/680Xw+bZ+cnEyCnny+bp/5NeP6GLdbjFhPjPIeiO7k8uXzGc/hgeF4ILrteijx6dKAIigRbKxevXoeoAgkBBQGHh42tI/BigcZbxrBy4oVK/oCEr+/0gDKcEyY15nP6BzpgehOLrJulIXX8UB3D0S3XQ8lPl0aUCxYAg4/gyI4sFkS5bGZkpmZmWy9Pmt9fnbFyhO4aP9zzjknm53hFk93U5hmLNGoDR6I7uTaoAnnQNtuggei266HEp8eGFD8jImENUCZnp7u3PrR+l6Aols/Bj2akVm6dGlfMyo65q5du0rfEmqCAagjHVXbPRDdybVdL86PPqEuHohuux5KfHpgQBEcDDqD4p85MZD52te+lu69995Sf2vWrEmasSmbn3zldEUndBqmBzZs2JDuuece2m3Jfm6YsaBs2no/HlDbnZubC5sU8FDi0wMDSsQzKAKc/K2giy66KO3YsaPU3/XXX5/N0JTNT75yuqITOg3TA5s3b06PP/54qTY+zHpQNj7HA/15QG23EYDiH3612Q97MNbf/rFbP/YwrZ+q8s+1KN/ExAS3eHg/Sxide6+Rrs80efQ0MbGtT2yJRbtjEd12/ayJTw88gyIjahZFUJH/CrK26dkSrffQIUjxt3V8PuW12ZSyJld+nkFpd4Mo6wXyNccH0Z0csW9O7IlVs2MV3XY9lPh034BSR2MBKM02ex09RZ2G76noTo6YDT9maIzG8kB02/VQ4tMACrdSuJWCByrxQHQnx+DJ4IkHRuOB6LbrocSnARQGp0oGJzqS0XQkddY5upOr87lSN/zeJg9Et10PJT4NoAAoAAoeqMQD0Z1cmwYAzgWgqbMHotuuhxKfBlAYnCoZnOrc+KjbaAaH6E6OuI0mbuiMztFt10OJTwMoAAqAggcq8UB0J8fAycCJB0bjgei266HEpwEUBqdKBic6ktF0JHXWObqTq/O5Ujf83iYPRLddDyU+DaAAKAAKHqjEA9GdXJsGAM4FoKmzB6LbrocSnwZQGJwqGZzq3Pio22gGh+hOjriNJm7ojM7RbddDiU8DKAAKgIIHKvFAdCfHwMnAiQdG44HotuuhxKcBFAanSgYnOpLRdCR11jm6k6vzuVI3/N4mD0S3XQ8lPg2gACgACh6oxAPRnVybBgDOBaCpswei266HEp/uG1D8Lw+bgP3+WKDtV7TUjwvqr2hbt3X8Fg+NuZs3WF9fb0R3csS6vrEmNu2KTXTb9VDi030BiuAk/4vF+mXiZcuWZb9APDs7m6amppLyyZBa6rPWCyKUT/m7mVV58uV3y+vXAyjtMr+PLen2xja6k8Mr7fUKsa1XbKPbrocSny4NKJrVEGysXr163gyHZk8mJyc74OGhRPsYrHiQKTKbtqt8/TGDUi8zFsWLdcRoUA9Ed3KD1of98TQeKOeB6LbrocSnSwOKBU7A4QFCsxc2S6I8NlMyMzOTrddnrc/Prlh5tjSY0dKXb9t7LZlBKWeqXhqyDQ1H7YHoTm7U9ed4tJlx9UB02/VQ4tMDA4qfMVGwDFCmp6c7t360vhegaBZmxYoVWR4AhUY/ro1+3M47upMbN/04X/rKqjwQ3XY9lPj0wIAiIBlkBkXgIjgRpEhsA5StW7emsn9XXHFFuu+++0rnL1su+crHAK3Qql8P3HTTTen++++n3fbR1/WrMflpl8PwgNru3Nxc1+dJ+wUnDyU+PTCgDPoMivafmJjIHo7VA7L2d+aZZ6bHHnus1N91112Xtm/fXipv2TLJV057dEKnxXpAbZ92i38W6x/2q847aruNABT/8Gv+No6//WO3fnp9i8fPoPRDYDyDwlRnP34hbz38Ej1NTFzrEVfi0P44RLddP2vi0wPPoMiMfhYk/4CrPmtWRLMkyqf8ghR988c+e0PbLR6/bqE0gNL+BrGQB9jePA9Ed3J4oHkeIGbNjFl02/VQ4tN9A0odDQWgNNPkdfQSdRqdl6I7OWI3utih9XhrHd12PZT4NIDCa87DHnSi0xrvTqvf+Ed3cv0en/z4FQ8szgPRbddDiU8DKAAKgIIHKvFAdCfHYLO4wQbd0K1fD0S3XQ8lPg2gMDhVMjj12yDI375ONLqTwyPt8wgxrWdMo9uuhxKfBlAAFAAFD1TigehOjsGsnoMZcWlfXKLbrocSnwZQGJwqGZzotNrXafUb0+hOrt/jkx8P4oHFeSC67Xoo8WkABUABUPBAJR6I7uQYbBY32KAbuvXrgei266HEpwEUBqdKBqd+GwT529eJRndyeKR9HiGm9YxpdNv1UOLTAAqAAqDggUo8EN3JMZjVczAjLu2LS3Tb9VDi0wAKg1MlgxOdVvs6rX5jGt3J9Xt88uNBPLA4D0S3XQ8lPg2gACgACh6oxAPRnRyDzeIGG3RDt349EN12PZT4NIDC4FTJ4NRvgyB/+zrR6E4Oj7TPI8S0njGNbrseSny6b0DRLxTnfxCw3x8LzJtOv6WjHxS0P33O5+n1md/iqaeJe8WMbcQsupPDU3gKD4zGA9Ft10OJT/cFKIITQYQHFP0y8bJly5IgYXZ2Nk1NTSXlk1G01Get13blU35vIn1WHlvfLZ/fJ58GUEZjyrzufEb3QTwQ3ckNUhf2xct4oLwHotuuhxKfLg0oghKBxOrVq+cBimZPJicnO4DhoUT7GKx4kOllhLL5fBkASnljed1Io1uVHoju5Ko8F45NWxonD0S3XQ8lPl0aUEx8AYefQREc2CyJ8tgMyMzMTLZen7U+P7ti5eWXAp6lS5cmLfPbun0GUOgcunmD9fX1RnQnR6zrG2ti067YRLddDyU+PTCg+BkTmdAAZXp6unPrR+vLAEqZPEVGB1DaZf6iGLOufTGO7uTwSPs8QkzrGdPotuuhxKcHBhTBQcQMisGJzc7oVk/Zv6uuuipt3bq1dP6y5ZKvfAzQCq369cAtt9ySHnjgAdptH31dvxqTn3Y5DA+o7c7NzZW+y7EQaHoo8emBASXiGRQJqAdo7XkVncz27dtL/11zzTVp27ZtpfP3UzZ5y8cBrdCqHw9s3LgxPfroo7TbPvq6fvQlL+1xWB5Q220EoBhcaCbFZkEMNPztH7v1o/yepvL7+G1l09ziqec0YNn4kW884xc9TYyPxtNHxH30cY9uu37WxKcHnkGROTSLMjExsdtXkLVNt2z01WRttwdfBSn65o8++33tPShaCjrKGg9AGb1By8aGfMSmmweiO7lux2E9HsQDsR6IbrseSny6b0CpY6ABlFjz1THG1Kl9MY7u5PBI+zxCTOsZ0+i266HEpwEUXnVfeqaKzqKenUVT4xLdyTVVB+pNu2qaB6LbrocSnwZQABQABQ9U4oHoTq5pnTz1BUya6oHotuuhxKcBFAanSganpjZM6h03qER3csQmLjZoiZa9PBDddj2U+DSAAqAAKHigEg9Ed3K9OlS2MeDigTgPRLddDyU+DaAwOFUyONFZxHUWTdUyupNrqg7Um7bQNA9Et10PJT4NoAAoAAoeqMQD0Z1c0zp56guYNNUD0W3XQ4lPAygMTpUMTk1tmNQ7blCJ7uSITVxs0BIte3kguu16KPFpAAVAAVDwQCUeiO7kenWobGPAxQNxHohuux5KfBpAYXCqZHCis4jrLJqqZXQn11QdqDdtoWkeiG67Hkp8GkABUAAUPFCJB6I7uaZ18tQXMGmqB6LbrocSnwZQGJwqGZya2jCpd9ygEt3JEZu42KAlWvbyQHTb9VDi030Din6hWD8A6Cvvf/Avv63oxwL9vpYum8/y+yW/xUNj8n4g3Qw/RHdyxL0ZcSdOzY9TdNv1UOLTfQGK4ES/NOwhRL9MvGzZsuzXh2dnZ9PU1FRSPplQS33WekGE8il/3qBl8+X30+ed23dmZe/atWu3covys675jYMYNj+GarfRnRy+aL4viGH9Y7hr+67wtuuhxKdLA4qgRLCxevXqeYCi2ZPJyckOeHjY0D4GKx5k8iYsm8/vN3v/bNp85uZ0y4dvSeuOWZfuWHFHmr1rFkjhlhUeqLEHfLtd//71tNsax8r3t6TrDw7DjtEw266HEp8uDSh28gIOP4OimRGbJVEemymZmZnJ1uuz1udnV6w8W79QPsufLXf9OG389MZ0+9TtaduGbWndRevSpjM2pY2f2Jh2PrKTAYpODw/U0QO5drvpO5tot3WME3Wi/8h7YMht10OJTw8MKH7GRPBggDI9Pd259aP1BiI2o2LAkZ9Z6ZbP8mv5wHceSD9c+sO0feP27O/Gb96Ytv1oW7rlo7ek+y67D3PlzcVnPFEDD+Tb7ebvbk6P3vYo7bYGsfH9K2lmS/IeGHbb9VDi0wMDioBkGDMoupX0yCOPFP7dcc4d6dYTb033bbgv+1v7xrVp7Rvq8bfhfRtGW5cDR3/ePzjuByM7x3VvXDeSY938kZtHchzv0xvecsNIj/mDD4wubv48fXrdG56K5w1vHO35+3rk0ze+/caRxkLHH3lf8Ya1ad3BT+mf1yDy8w8+MjqvrTtkNOdk+mw4esR9/BvWpvXvWj9yf9r52tLa7rqD1qWbL785u7i4bfltacuXtgx8AeihxKcHBpRhPYNyzTXXFMKJoOWuNXdlz54YoFxzwTXpnu/fk25aelOa/n/TXffrBjysLwZBdEGXSA/k2606uXvX30u77XIhFqk9ZdGWB/FAUdvV7OetH7013XvZvfUFFH+LJn97xt/+sVs/Id/i0f2wT21Mt3/GPYOyYlPauJxnUPJTc3xmurY2Hsi12+wZFNrtwJ17beLLrar2xnLIbdfPmvj0wDMoahz9vgdFkKJv/mg/a1x68FZfYZ6YmJi33rbnl9kTxf+5Od163K3Zt3g2rdjEt3joIDp+yvuFz/UANd9us2/xrOTbd3izHt4kDr3jMMy266HEp/sGlLoFkfeg9DZV3eJFfYiXPMB7UPABfUEzPVDL96DU2Uy6fcSL2ppp9jr7iroN11O8qG24+uJf9B2WB6Lbrp818enGz6AoAAAKDXFYDZFyh+et6E6OWA0vVmiLtt4D0W3XQ4lPAyg8t8FzG3igEg9Ed3K+AyXNgIoHhueB6LbrocSnARQGp0oGJzqP4XUeTdE2upNrynlTT7zfdA9Et10PJT4NoAAoAAoeqMQD0Z1c0zt96g+4NMUD0W3XQ4lPAygMTpUMTk1piNRzeINGdCdHrIYXK7RFW++B6LbrocSnARQABUDBA5V4ILqT8x0oaQZUPDA8D0S3XQ8lPg2gMDhVMjjReQyv82iKttGdXFPOm3ri/aZ7ILrteijxaQAFQAFQ8EAlHoju5Jre6VN/wKUpHohuux5KfBpAYXCqZHBqSkOknsMbNKI7OWI1vFihLdp6D0S3XQ8lPg2gACgACh6oxAPRnZzvQEkzoOKB4Xkguu16KPHpEEDRrxbrh/70px/9M2PYLx0v9COA9ivIC+WzcvNL3iQ7PCPmteYzWkd5ILqTi6oX5eBxPNDbA9Ft10OJTw8MKIID+wViAw0Bi6UNWJRv2bJlSdCSD77ylMmX388+Ayi9zWQ6sUSnOnkgupOr07lRF9pamz0Q3XY9lPj0wIAiGDG4UEAEC1NTU2lmZiZNTk6mTZs2ZUBiwKLtPnC2XuVovfIvXbq0s5/P2y0NoNAZdPMG6+vrjehOjljXN9bEpl2xiW67Hkp8eiiAopmS6enpQkAxEPGG1TpBjWBFsNFtpsXv49MASrvM72NLur2xje7k8Ep7vUJs6xXb6LbrocSnBwYUwYHd4pGJNJsiwNAMiqDDZlc0M6J8RYCi/bRez6AYqPRjSAClXubtJ3bkHd/YRXdyeGl8vUTsRxv76LbrocSnBwYUGUMQIrjQn9IGGQYlWq/bPfoTTHgzdbvFc/PNN6ft27eX+rvmmmvStm3bSuUtWyb5ymmPTui0WA9s3LgxPfroo7Tbkv3cYnVmP9potAfUdufm5uaN5X5c7zftocSnQwDFV0YzITZr4tfr4Vj/TIptyz9zYsBywQUXZA/Uar+F/q666qq0devWBfMtVA7bF9YajdAoygO33HJLeuCBB2i3Jfq4KM0ph/Yb4QG13UYAimZEbMZEJ67bO1pnoGEzJv45E4MTLS2f3fqxWRfbz+ftllbeXbt2hdFct+OwfrTTiOjdbr2jp4nxS7v9QnzrE9/otutnTXw6ZAbF3+Ix0JCZDDZ0i8c/+CqQ8bMpBjZ2m8iXUcaUAEp9jFsmXuQhXvJAdCeHr/AVHhiNB6LbrocSnw4BlKpNAaCMxpRVx5njtyvO0Z0c/miXP4hnfeMZ3XY9lPg0gMJrzrk1hgcq8UB0J8eAVt8Bjdi0KzbRbddDiU8DKAxOlQxOdFjt6rAWE8/oTm4xdWAffIgH+vdAdNv1UOLTAAqAAqDggUo8EN3JMdD0P9CgGZotxgPRbddDiU8DKAxOlQxOi2kU7NOuzjS6k8Mf7fIH8axvPKPbrocSnwZQABQABQ9U4oHoTo4Brb4DGrFpV2yi266HEp8GUBicKhmc6LDa1WEtJp7Rndxi6sA++BAP9O+B6LbrocSnARQABUDBA5V4ILqTY6Dpf6BBMzRbjAei266HEp8GUBicKhmcFtMo2KddnWl0J4c/2uUP4lnfeEa3XQ8lPg2gACgACh6oxAPRnRwDWn0HNGLTrthEt10PJT4NoDA4VTI40WG1q8NaTDyjO7nF1IF98CEe6N8D0W3XQ4lPAygACoCCByrxQHQnx0DT/0CDZmi2GA9Et10PJT4dAij6cT/7oT/9cKCdsP8RwImJiezHA21bftntBwfz+Yo+81s8NLIiX7Cu3r6I7uSId73jTXzaE5/otuuhxKcHBhTBgcHH7OxsmpqaSgIWSxuwKJ//RWNvVuXXfton/0vHPl+3NIDSHuN3izHr2xfj6E4Oj7TPI8S0njGNbrseSnx6YEARXBiEyEyCBcHGzMxMmpyc7MyaGLBouzed1q9YsaKTz28rmwZQ6mnisvEj33jGL7qTw0fj6SPiPvq4R7ddDyU+PRRA0UzJ9PR0IaAIaLyhNGMioDnnnHM6t4nyeXz+ojSAMnqDFsWBdcShHw9Ed3L9HJu8eBUPLN4D0W3XQ4lPDwwoggO7xaOAazZFgKIZFIGHza5s2rQpy5eHD3tOxedbunRpXzMqAMrijUYjRbuqPBDdyVV1HhyXNjRuHohuux5KfHpgQFFgBBf+IVl7nsSgRNt0u0d/ggkfzPwzJ3Yr6MILL0yPPfZYqb/rrrsubd++vVTesmWSr5z26IROi/WA+gfaLf5ZrH/YrzrvqO3Ozc3NG8v9uN5v2kOJT4cAiq9M/pkU25YHEVtvQGLgYp/PP//8tHXr1lJ/V1xxRbrvvvtK5S1bJvnKaY9O6LRYD9x0003p/vvvp92W7OcWqzP70UajPaC22whAEVjYjIndrtE6Aw0DD4GL5TM4saWHGuX3t4wsT6+l9tm1a1cYzfU6FtuYzsUDMR6IniYmLjFxQUd0XMgD0W3Xz5r4dMgMir/F458x8bd4/FeMi2ZTfBkGNQuJZNsBFBqUeYFlc7wQ3ckR++bEnlg1O1bRbddDiU+HAErVZgNQmm32qv3D8avxT3QnRxyriSO6j5/u0W3XQ4lPAyi85pxbY3igEg9Ed3IMlOM3UBLzamIe3XY9lPg0gMLgVMngRMdSTcdSJ92jO7k6nRt1wd9t9kB02/VQ4tMACoACoOCBSjwQ3cm1eUDg3ACeOnkguu16KPFpAIXBqZLBqU6NjbpU0/lHd3LEsZo4ovv46R7ddj2U+DSAAqAAKHigEg9Ed3IMlOM3UBLzamIe3XY9lPg0gMLgVMngRMdSTcdSJ92jO7k6nRt1wd9t9kB02/VQ4tMACoACoOCBSjwQ3cm1eUDg3ACeOnkguu16KPFpAIXBqZLBqU6NjbpU0/lHd3LEsZo4ovv46R7ddj2U+DSAAqAAKHigEg9Ed3IMlOM3UBLzamIe3XY9lPg0gMLgVMngRMdSTcdSJ92jO7k6nRt1wd9t9kB02/VQ4tMACoACoOCBSjwQ3cm1eUDg3ACeOnkguu16KPHpEEDRDwQeffTR2Z9+9M+EtF831rayv1Cs/X0ZVlavJb/FQ+Pt5Q+21dMf0Z0cca5nnIlL++IS3XY9lPj0wIAiODD4mJ2dTVNTU0nAYmmDDeXzv2hcZFrlEczYPkV5itYBCyvhtgAAHH9JREFUKO1rAEVxZl274hzdyeGPdvmDeNY3ntFt10OJTw8MKIIRDxSCBUHKzMxMmpycTJs2bcpmVAxYtL3IeJpt0X768+UV5c2vA1Dqa+R8rPhMrMwD0Z2clcsSj+GB4Xoguu16KPHpoQCKZkqmp6cLAUVAU2QeQYnBDoAyXHMV6c86NB+1B6I7uVHXn+PRZsbVA9Ft10OJTw8MKJq9sFs8CpbgQoCiGRQ/G6KZFOUrAhRtW7FiRXZbSPsDKDT8cW3443Te0Z3cOGnHudJHVumB6LbrocSnBwYUiSSg8A/JCkx0S8egRNt0u0d/+Vs8yic4sVtBBig7duxIZf+uv/767Hhl85OvvLZohVbD8sDmzZvT448/XrqdD6selIvH8UB/HlDbnZubK7wbshhw8lDi0yGA4itkt2n8OqX1jIl/JsW2e4gxyNFy5cqV6d577y31t2bNmmzGpmx+8pXTFZ3QaZge2LBhQ7rnnntKtfFh1oOy8Tke6M8DaruNABTNiNiMiX2tWOvyD8UKXCyfwUnR0mZQirZ1W6fj7dq1K4zmuh2H9Uyr4oE4D0RPExObuNigJVr28kB02/WzJj4dMoPib/H4Z0z87Ij/inG32RQJAqDQMHo1DLa1xx/RnRzeaI83iGW9Yxnddj2U+HQIoFRtJmZQ6m3mqv3B8evpj+hOjjjXM87EpX1xiW67Hkp8GkDhNefcGsMDlXggupNjIGzfQEhM6xnT6LbrocSnARQGp0oGJzqeenY8o4xLdCc3yrpzLPw7zh6IbrseSnwaQAFQABQ8UIkHoju5cR4wOHeAaZQeiG67Hkp8GkBhcKpkcBplY+JY9ey8ozs54lzPOBOX9sUluu16KPFpAAVAAVDwQCUeiO7kGAjbNxAS03rGNLrteijxaQCFwamSwYmOp54dzyjjEt3JjbLuHAv/jrMHotuuhxKfBlAAFAAFD1TigehObpwHDM4dYBqlB6LbrocSnwZQGJwqGZxG2Zg4Vj077+hOjjjXM87EpX1xiW67Hkp8GkABUAAUPFCJB6I7OQbC9g2ExLSeMY1uux5KfBpAYXCqZHCi46lnxzPKuER3cqOsO8fCv+Psgei266HEpwEUAAVAwQOVeCC6kxvnAYNzB5hG6YHotuuhxKdDAEU/EHj00Udnf/qxPxPKft1Y2yYmJpJ+PNC2+aV+S8f211Kf/faF0vwWD41zIY+wvX4eie7kiHH9YkxM2hmT6LbrocSnBwYUwYHBx+zsbJqamkoCFksbsCif/0VjM64gRvtoqXXd8ln+oiWA0s5GUBRr1rUn1tGdHN5ojzeIZb1jGd12PZT49MCAIhgxCJGpBAsCjpmZmTQ5OdmZNTFg0fZe5rNZl4Xy+TIAlHqb2ceKNLEyD0R3clYuSzyGB4brgei266HEp4cCKJopmZ6eLgQUAU0v8+g20NKlSztg0yuvbQNQhmtG05klOkd6ILqTi6wbZeF1PNDdA9Ft10OJTw8MKIIDu8WjgGo2RYCiGRTNpNjsisBD+XoBis2y9MpTZBoApbuRivRiHXrVwQPRnVwdzok60LbGwQPRbddDiU8PDCgKhiDEHnJVWmAi2DAo0Tbd7tGfYKIogAYnBjQ7d+5MZf/Wrl2bduzYUTp/2XLJVz4GaIVW/Xpgy5Yt6YknnqDd9tHX9asx+WmXw/CA2u7c3FzhWF40vi+0zkOJT4cAij94/pkU26ZnS/wzKbZeS3vuxM+caAam7N9ll12WRHRl85OvvLZohVbD8sD69evT3XffTbvto68bViwol3bejwfUdhsBKJoRsRkTAw2tsxkRmzERfFg+DyeWz8OJ314mrWPs2rUrjObKHJM8TOXigcE8ED1NTDwGiwf6oV9ZD0S3XT9r4tMhMyj+Fo8HDX+Lx3/F2M+m+Dx2m6jfd6EAKDSssg2LfPXxSnQnR2zrE1ti0e5YRLddDyU+HQIoVZsRQGl3Y6jaXxx/OP6K7uSI03DihK7omvdAdNv1UOLTAAqvOefWGB6oxAPRnVy+E+UzAyseGI4HotuuhxKfBlAYnCoZnOg4htNxNEnX6E6uSedOXfF/kz0Q3XY9lPg0gAKgACh4oBIPRHdyTe7wqTvA0iQPRLddDyU+DaAwOFUyODWpMVLX4Qwe0Z0ccRpOnNAVXfMeiG67Hkp8GkABUAAUPFCJB6I7uXwnymcGVjwwHA9Et10PJT4NoDA4VTI40XEMp+Nokq7RnVyTzp264v8meyC67Xoo8WkABUABUPBAJR6I7uSa3OFTd4ClSR6IbrseSnwaQGFwqmRwalJjpK7DGTyiOzniNJw4oSu65j0Q3XY9lPg0gAKgACh4oBIPRHdy+U6UzwyseGA4Hohuux5KfBpAYXCqZHCi4xhOx9EkXaM7uSadO3XF/032QHTb9VDi0wAKgAKg4IFKPBDdyTW5w6fuAEuTPBDddj2U+HQIoOgHAu2H/vTDgSa0/bqxtk1MTCT9MKBtyy/tBwcXypffT5/5LR4ad5EvWFdvX0R3csS73vEmPu2JT3Tb9VDi0wMDiuDAoGJ2djZNTU0lAYulDViUz/+isTer8ms/7dMrn9/HpwGU9hjfx5V0u+Ma3cnhl3b7hfjWJ77RbddDiU8PDCiCC4MQGUiwINiYmZlJk5OTnVkTAxZtzxtN+6scrbdZl6J8+f3sM4BSH+NaTFgSk4U8EN3JLXQ8tuNJPBDjgei266HEp4cCKJopmZ6eLgQUAxEzSh5c7HM+n+UvWgIoMaYr0pZ1aDssD0R3csOqJ+XSBvDAfA9Et10PJT49MKAIDuwWj4Ko2RABimZQNJNisyt6/kT58uCRnzEBUOYbgYaBHm31QHQn11adOC/6gLp5ILrteijx6YEBRcIJQvxDsvY8iUGJtul2j/7yt24MSGy9fc6DTK8AMYNCA+7lD7bV0x/RnRxxrmeciUv74hLddj2U+HQIoHgDCixs1sSv10yJfybFb1N+AxKbUVmzZk268847S/199atfTWvXrk033HADf2iABxrigW9/+9tp3bp1xKsh8aJ/ZXwxD6jtzs3N7fY8qR/X+0l7KPHpgQFFsxc2Y2JwoXU2E2IzIwIQy5evuN+m/N2+7ZPfzz5H05yVy7J95E9M6xNT2m19YkG7IBb9eCC67Xoo8emBAUUn5W/x2EyI1vtbPB46imZTrAz/PEtZwaLFKntc8tGo8cDiPUC7Xbx2+A7tqvRAdNv1UOLTIYBSpVA6drRYVZ8Px6fzGQcP0G7x+Tj4vI3nGN12PZT4NIDCa87D7iO2sSFyTsMbRKM7OWI1vFihLdp6D0S3XQ8lPg2gACgACh6oxAPRnZzvQEkzoOKB4Xkguu16KPFpAIXBqZLBic5jeJ1HU7SN7uSact7UE+833QPRbddDiU8DKAAKgIIHKvFAdCfX9E6f+gMuTfFAdNv1UOLTAAqDUyWDU1MaIvUc3qAR3ckRq+HFCm3R1nsguu16KPFpAAVAAVDwQCUeiO7kfAdKmgEVDwzPA9Ft10OJT9cCUOwFb3olvn+Zm70bxV6jr6V/n4oZ0Iuld6/ojbUq07b7cor2t3wsh2dotG2ftrTb9sWUdjoeMR122zUf2XHsha22Pr/0UOLTlQOKvXHWXvAmmNBf/gTy+fLb9dleDOchRML48rqVX1Qe68ajsRLn/uOcb4/d2lU+X5HWtNv+9S/SkXXoWMYD+TYZ3XZ9HVS2JhYaCygiLP8bPd1eda/1fnbFi6C0tusttJdffvluMyg+b7fyfR7SNHQ80NsDtNve+uAf9KmrB0bVdm3M1oSB0r308LMmPl35DEr+low+L126NJsNsRMy4lvoJJU/X56VYUv/uz+2jiWdCR7ozwP5dka77U8//IZeVXlgFG3XIMgmBBYauz2U+HTlgGInoBNSwIo6OuXpNXviA50XP78tDz9+O2k6DTxQzgO023I64Sd0qpsHRtF2NRGgP43rrZ9B0X0se0ZFwZbA9uCsf95E27oBitbrFpD2rZthqA+dWNM8kG9n+pyHf9otvm6ar8ehvsNuuyp/xYoVSXc+Gg8oNhWkk5I58nSX376QgfLiW5mL+ZXkhY7FdjrgcfVAvl3SbmkL49oWmnbew267mkywCQS/7DU54G/r+HTlt3js+RKbIck/UVwEHL0Mkc+vz/kru177s42OFg8s7AHa7cIa4SM0qqMHht12/TkLhhp9i0cnYych2so/ayLqyq/zAuTTeUAporn8baF8GXymY8EDC3uAdruwRvgIjerogWG2XX++dpxesyfK72dNfLryGRR/MqRpzHgAD+ABPIAHxssDHkp8GkDhNec8NIwH8AAewAN4oDIPeCjxaQAFU1ZmSq6SxusqiXgTbzyAB4o84KHEpwEUAAVAwQN4AA/gATxQmQc8lPg0gIIpKzNlEUmzjissPIAH8MB4ecBDiU8DKAAKgIIH8AAewAN4oDIPeCjxaQAFU1ZmSq6SxusqiXgTbzyAB4o84KHEpwEUAAVAwQN4AA/gATxQmQc8lPg0gIIpKzNlEUmzjissPIAH8MB4ecBDiU8DKAAKgIIH8AAewAN4oDIPeCjxaQAFU1ZmSq6SxusqiXgTbzyAB4o84KHEpwEUAAVAwQN4AA/gATxQmQc8lPg0gIIpKzNlEUmzjissPIAH8MB4ecBDiU8DKAAKgIIH8AAewAN4oDIPeCjxaQAFU1ZmSq6SxusqiXgTbzyAB4o84KHEpwEUAAVAwQN4AA/gATxQmQc8lPg0gIIpKzNlEUmzjissPIAH8MB4ecBDiU8DKAAKgIIH8AAewAN4oDIPeCjxaQAFU1ZmSq6SxusqiXgTbzyAB4o84KHEpwEUAAVAwQN4AA/gATxQmQc8lPg0gIIpKzNlEUmzjissPIAH8MB4ecBDiU8DKAAKgIIH8AAewAN4oDIPeCjxaQAFU1ZmSq6SxusqiXgTbzyAB4o84KHEpwEUAAVAwQN4AA/gATxQmQc8lPg0gIIpKzNlEUmzjissPIAH8MB4ecBDiU+HAkriHwqgAAqgAAqgwFgpMChQeijxaQBlrGzEyaIACqAACqBArAIASqyelIYCKIACKIACKBCgAIASICJFoAAKoAAKoAAKxCoAoMTqSWkogAIogAIogAIBCgAoASJSBAqgAAqgAAqgQKwCAEqsnpSGAiiAAiiAAigQoACAEiAiRaAACqAACqAACsQqAKDE6klpKIACKIACKIACAQoAKAEiUgQKoAAKoAAKoECsAgBKrJ6UhgIogAIogAIoEKAAgBIgIkWgAAqgAAqgAArEKgCgxOpJaSiAAiiAAiiAAgEKACgBIlIECqAACqAACqBArAIASqyelIYCKIACKIACKBCgAIASICJFoAAKoAAKoAAKxCoAoMTqSWkogAIogAIogAIBCgAoASJSBAqgAAqgAAqgQKwCAEqsnpSGAiiAAiiAAigQoACAEiAiRaAACqAACqAACsQqAKDE6klpKIACKIACKIACAQoAKAEiUgQKoAAKoAAKoECsAgBKrJ6UhgIogAIogAIoEKAAgBIgIkWgAAqgAAqgAArEKgCgxOpJaSiAAiiAAiiAAgEKACgBIlIECqAACqAACqBArAIASqyelIYCKIACKIACKBCgAIASICJFoAAKoAAKoAAKxCoAoMTqSWkogAIogAIogAIBCgAoASJSBAqgAAqgAAqgQKwCAEqsnpSGAiiAAiiAAigQoACAEiAiRaBA1Qr8/Oc/T0cddVT65Cc/2anK2rVr08tf/vK0devWbN3OnTvT/vvvn84777xOnqoSW7ZsSX/5l3+ZTjjhhPTb3/62qmqUPu4FF1yQlixZkm688cZ5++zYsSPtt99+83Sfl4EPKIACi1YAQFm0dOyIAvVR4Pe//306+eST03vf+970y1/+MquYQOQ5z3lOuuWWW7LPAhUBi8Cl6n/f+c53sgH/kEMOSXNzc1VXZ8HjDwood955Z/rrv/7rpHL4hwIoUE4BAKWcTuRCgdorICCxAd+ARVf9l156aVb3jRs3ppe97GVJy6r/rVixIj3rWc/K6jMzM1N1dRY8fjdAWXDHP2QAUMoqRT4UeEoBAOUpLUihQKMV0KzEvvvumx555JH0k5/8JB1++OHZLIVgQP90e8K2V3mimuHRTM+hhx6a9t5777Rhw4Yqq1Pq2ABKKZnIhAKhCgAooXJSGApUp4BmRvbZZ5+k5zsEKXo24phjjkkf+tCH0q9//evs9oLNsPziF79I7373u7M8a9asSS996UszgJmdnU3vete70tOf/vTsGZFvfetbSbMxNgMg2DnxxBPTH//xH6cPfvCDSeXo36233ppe9apXZfuddNJJ2W2k97znPYW3b+xZmM9//vPZjI9/JkbP0Lz61a9OF154YXYuL3jBCzrPfehYU1NT2bF1ngY2WmfnqHPXLJHd1lJ5uvWlc1B+7adZpYMPPjjdfffdWd0Fblp31llnJdVdmtl5WTS7AUr+GRTdRnvzm9+c6SAdpadpp2PoT3HRfvxDARTorQCA0lsftqJAYxSwZ0w04ApWXv/616eLL744velNb8pAwQ/kBigGIoKCH/zgB+mMM87IBvj/+q//Sh/5yEc6D9naIPtP//RP6aqrrkrHHnts9kyF1gs4dAyBwI9+9KNsAD7wwAMzsPjNb36zm36CiD333DPbrodk/YOyAgrV6dRTT02XXHJJetGLXtR5APXyyy9Pz3/+89O5556bTj/99M7tLMGDHhDWg8J6vkYQoNtado5f+MIXsjoKSo444ogkIBMkGNQYoDz3uc/NAEYAthhAEQQuW7YsexBZddUMloBOGtx0000Z8H3xi1/M6vK73/1uN11YgQIoMF8BAGW+HnxCgcYqoIdNNUOi2Qfd7tEAqZkNfXNn8+bN2YAsSNE/G7w1o/DQQw9l6+y2kGZWtN0Gbi0NUAQD+qelHvrUegGHyrFnWwQZNvhnmXP/qW727SLBg+qpY+uf9rUZhvzshI4pkNKshGaINEPz4IMPZvW0fTQbI0ARGNhMjY6nuglurP46jnRRHjtPzehopqXon/ZTucrr//k6mqY2Y3Pttdem5cuXZ7NXef18GaRRAAWKFQBQinVhLQo0TgF7tkODswZ+zUxoANXsxtVXX52BgA3QNpjawK6TtcE2DygCnvwAq3IMUDRoW1rlCBKsjCIRVT+71eRhRXl7AYoGfJtd8TMzAiSBi+ooOHjLW96SAdL999+fwY5u9xiEGGD449g206aozmUARV+X/vjHP540E3P99dfPKyav37yNfEABFChUAEAplIWVKNBMBTRDomdD3v/+92egoNsOms0488wzs8HaBuh+AEWDc36A9YAiANBzHwIF/dPg3w1QrD56zmPbtm3ZcyF6H4o9T+LBwYBJ6/RPUKJbP5rJ0Hn+6le/ytZrRkWzIbq9c/TRRyfdRnnnO9+Z1q9fn63XrS+DEO1rfwZntm1QQFFltm/fnnR7S5By3XXXdWZk8vplFec/FECBngoAKD3lYSMKNEsBDbKve93r0ite8YrO+040Y6HnUfT8iAZK/YsEFIGGZjD0bMgTTzzRefaiSDm77WKQYEt7ULYXoKg8QcpnP/vZeTMpdmvqa1/7WjrssMOyB2Tf/va3J322mRqDEAM0XzfbFgEoKlfApNtWfiYFQPGKk0aBcgoAKOV0IhcKNEIBG2w1K2EzGnpgVO8c0YyBBk/96wdQFrrFo+c2NLjrGAIOfXW427tNVCfV7etf/3p2S+nhhx/OZjvsuY2FAEW3UfSA6fnnn5+Vc8cdd2RvotXtrOOOOy4r69FHH00f+MAHsm/j2IvrTBcDFD3Eqm/t/PSnP+3MrkQAirRQ/QRNekbm3/7t39LPfvaz3WagGmEmKokCFSsAoFQcAA6PApEK2JW63b5Q2faAqH3TReuKAMVmIuz2jB/UrVwbxLW0504EPZq5UH7NkPjnQ/Lnptsw/u22GtAFJ/agbDdA0aD/mc98Jrt9pVs7erBXD+YacGiWSHBkD+fqFpC+KWQPBZsG9tI6fxw7Tzu3fJ31WdtUvh3P8vjbUNLhoIMOSt/85jezzVdeeWXngd+8frY/SxRAge4KACjdtWELCjROAQ2Sut1ikKET0Dde9II2/3XeIkARLCz0NWMbxD2gbNq0Kfs68F577ZWWLl2afYNmenq68/yFF1EP79o3eGy9bu/YOg8OfvBXXg38um2iW0lf+cpX0otf/OLsa83aplkeAYTK95+tvgIn+5qxZk/0zIrBTD+Aom/6fO9738v+dI6+jgKniYmJrGx9FVtf09YDu+pk7SvgAjEdz56fySrLfyiAAoUKACiFsrASBZqpgM2C2MyBzsLWaZbB/hUBirYJcHq9qM0GfA8oGmz1gjPdVhGgCFQEEnoniv9nD8jacyG2Td/k0bdz9KBsL0BRnXUOekmcbhN94xvf6MzWaF+VobL0Tw/uaqbGz3gs9KI2Ozerl19qmwDI/6muHlCUX1971vMvyicgMg10a0rwpLr72S1/DNIogALzFQBQ5uvBJxRAgT4V0ODtbx/ZLyv3GvD7PATZUQAFxlABAGUMg84po0CkApqt0fMouu2id5XoWRG9FM3PXkQej7JQAAXGQwEAZTzizFmiwNAU0Ldm9G0Z3dbRrQ29E8XffhnagSkYBVCg1QoAKK0OLyeHAiiAAiiAAs1UAEBpZtyoNQqgAAqgAAq0WgEApdXh5eRQAAVQAAVQoJkKACjNjBu1RgEUQAEUQIFWKwCgtDq8nBwKoAAKoAAKNFMBAKWZcaPWKIACKIACKNBqBQCUVoeXk0MBFEABFECBZioAoDQzbtQaBVAABVAABVqtAIDS6vByciiAAiiAAijQTAUAlGbGjVqjAAqgAAqgQKsVAFBaHV5ODgVQAAVQAAWaqQCA0sy4UWsUQAEUQAEUaLUCAEqrw8vJoQAKoAAKoEAzFQBQmhk3ao0CKIACKIACrVYAQGl1eDk5FEABFEABFGimAgBKM+NGrVEABVAABVCg1QoAKK0OLyeHAiiAAiiAAs1UAEBpZtyoNQqgAAqgAAq0WgEApdXh5eRQAAVQAAVQoJkKACjNjBu1RgEUQAEUQIFWKwCgtDq8nBwKoAAKoAAKNFMBAKWZcaPWKIACKIACKNBqBQCUVoeXk0MBFEABFECBZioAoDQzbtQaBVAABVAABVqtAIDS6vByciiAAiiAAijQTAUAlGbGjVqjAAqgAAqgQKsVAFBaHV5ODgVQAAVQAAWaqQCA0sy4UWsUQAEUQAEUaLUCIwGUs88+O/GHBvXxwGnpyL/bMx156gAxOf7AtOTvjkynFXm71zbl77H9tKP2THsedRrtpUhX1uELPIAHAjywpD6D0QCDUIAQ6FBH/QcHFIHEkiUHpuOLPNIDQDI/aHuXfQGUOvqFOtGP4YE2eQBAKRq4WFcT+h8UUI5PBy5ZkpYsWZIOPP7Jjuv4Nzz5Weuyv26zK2c/eew9/25J4QwMgMJA0KaBgHPBz3X0AIACjNQERoo6CEFCDigMLDrLLrMjZ5+dMhgRgJx6ZNpzScGtoh4zKB5AOuU4r/jtdWzY1KnIT6zDF3igSR4AUNyg06TAjWddNSPSHUie0uQPMyd+diS7XfPUTEqWtwugZEDyhuPng1u2/1OQA6DQ0T/lN7RACzwwDA8AKADK/IG4Fno8dWumcyumM2PSbUblKXApBAydV34mpQBQuu6b02WYgHLAAQck/kajwTA6VcpksMYDMR74/3w3EMsGMV0yAAAAAElFTkSuQmCC;" vertex="1" parent="1">
                    <mxGeometry x="590" y="350" width="350.11" height="300" as="geometry"/>
                </mxCell>
            </root>
        </mxGraphModel>
    </diagram>
</mxfile>